SansGuiltDB.sfdir

StartChar: quotesingle
Encoding: 39 39 2
Width: 187
Flags: W
LayerCount: 2
Fore
SplineSet
35 507 m 1
 36 508 66 482 66 482 c 1
 66 482 112 519 146.65 592.62 c 0
 150.919 601.688 157.77 625.98 156.38 634.32 c 0
 154.99 637.1 154.99 644.05 154.99 646.83 c 0
 154.99 653.78 148.04 664.9 141.09 670.46 c 0
 134.14 676.02 123.02 682.97 121.63 681.58 c 0
 120.24 681.58 114.68 681.58 109.12 682.97 c 1
 103.56 685.75 89.6602 685.75 79.9297 685.75 c 2
 60.4697 685.75 l 1
 53.5195 678.8 l 2
 45.1797 670.46 36.8398 652.39 35.4502 644.05 c 0
 34.0596 641.27 34.0596 634.32 32.6699 630.15 c 0
 28.5 610.69 49.9619 597.06 57.6904 578.72 c 0
 66 559 33.6104 509.78 35 507 c 1
EndSplineSet
EndChar

StartChar: comma
Encoding: 44 44 3
Width: 187
Flags: W
LayerCount: 2
Fore
SplineSet
35 -76 m 1
 36 -75 66 -101 66 -101 c 1
 66 -101 112 -64 146.65 9.62012 c 0
 150.919 18.6885 157.77 42.9805 156.38 51.3203 c 0
 154.99 54.0996 154.99 61.0498 154.99 63.8301 c 0
 154.99 70.7803 148.04 81.9004 141.09 87.46 c 0
 134.14 93.0195 123.02 99.9697 121.63 98.5801 c 0
 120.24 98.5801 114.68 98.5801 109.12 99.9697 c 1
 103.56 102.75 89.6602 102.75 79.9297 102.75 c 2
 60.4697 102.75 l 1
 53.5195 95.7998 l 2
 45.1797 87.46 36.8398 69.3896 35.4502 61.0498 c 0
 34.0596 58.2695 34.0596 51.3203 32.6699 47.1504 c 0
 28.5 27.6904 49.9619 14.0596 57.6904 -4.28027 c 0
 66 -24 33.6104 -73.2197 35 -76 c 1
EndSplineSet
EndChar

StartChar: period
Encoding: 46 46 4
Width: 187
Flags: W
LayerCount: 2
Fore
SplineSet
35.4502 61.0498 m 0
 34.0596 58.2695 34.0596 51.3203 32.6699 47.1504 c 0
 28.5 27.6904 39.6201 4.05957 57.6904 -4.28027 c 0
 61.8604 -7.05957 67.4199 -9.83984 68.8096 -12.6201 c 0
 72.9805 -16.79 84.0996 -19.5703 88.2695 -16.79 c 0
 91.0498 -15.4004 96.6104 -15.4004 102.17 -14.0098 c 1
 125.8 -12.6201 134.14 -7.05957 146.65 9.62012 c 0
 152.21 17.96 157.77 42.9805 156.38 51.3203 c 0
 154.99 54.0996 154.99 61.0498 154.99 63.8301 c 0
 154.99 70.7803 148.04 81.9004 141.09 87.46 c 0
 134.14 93.0195 123.02 99.9697 121.63 98.5801 c 0
 120.24 98.5801 114.68 98.5801 109.12 99.9697 c 1
 103.56 102.75 89.6602 102.75 79.9297 102.75 c 2
 60.4697 102.75 l 1
 53.5195 95.7998 l 2
 45.1797 87.46 36.8398 69.3896 35.4502 61.0498 c 0
EndSplineSet
EndChar

StartChar: uni0041
Encoding: 65 65 5
Width: 571
Flags: MW
HStem: 216 76
VStem: 16 76 18 80<21 33> 30 79<57.5 66.5> 44 75 49 75<103.5 119> 56 86<140 155.5> 75 77<178 195> 138 76<360 370> 144 74<374 384.5> 159 79<429.5 430 428 430.5> 169 71<436.5 450.5> 196 124<515 525.5> 205 103<540.5 545> 215 77<569 577.5> 273 72<438.5 460> 296 73<384 404.5> 326 64<323.5 360.5> 331 84<311.5 314> 389 77<193.5 199.5> 442 78<80 85> 462 77<36 45> 470 78<18 25.5>
LayerCount: 2
Fore
SplineSet
250 597 m 2x800280
 231 598 l 1
 225 591 l 2
 222 588 219 584 219 582 c 0
 219 580 219 578 217 576 c 0
 216 575 215 572 215 570 c 0x800280
 215 568 214 565 213 563 c 0
 212 562 211 559 211 557 c 0
 211 556 210 552 208 549 c 0
 207 546 205 542 205 541 c 0x8004
 205 540 203 536 201 533 c 0
 198 530 196 526 196 525 c 0x8008
 196 521 193 514 191 508 c 0
 190 506 189 503 189 501 c 0
 189 500 187 498 186 496 c 0
 184 494 183 490 183 488 c 0
 183 484 180 480 176 480 c 0
 173 480 173 480 175 475 c 0
 176 472 176 471 173 467 c 0
 171 464 171 461 171 458 c 1
 172 456 171 454 171 453 c 0
 170 452 169 451 169 450 c 0x8010
 169 448 168 446 166 445 c 1
 165 443 163 440 163 437 c 2
 161 431 l 2
 160 431 159 431 159 430 c 0
 159 429 158 426 156 424 c 0
 153 420 152 418 154 416 c 0
 155 414 155 412 152 408 c 1x8120
 151 405 149 400 149 398 c 0
 149 396 148 392 147 390 c 0
 145 388 144 385 144 384 c 0x8040
 144 382 143 379 141 377 c 0
 140 375 138 371 138 369 c 0
 138 366 136 364 132 362 c 0
 127 359 127 359 129 356 c 1
 132 354 132 353 127 340 c 0
 125 333 122 323 120 319 c 0
 119 315 116 310 113 307 c 0
 109 302 108 300 106 290 c 0
 105 284 103 276 102 273 c 0
 100 270 99 264 98 260 c 0xa080
 98 256 97 253 95 251 c 0
 94 250 93 247 93 245 c 0
 93 242 92 239 91 237 c 1
 89 236 88 233 88 231 c 0
 88 227 83 213 81 211 c 0
 80 210 79 208 79 206 c 0
 79 204 78 201 77 200 c 0
 76 198 75 196 75 194 c 0x81
 75 193 74 190 73 188 c 0
 70 182 61 157 61 154 c 0
 61 153 60 150 58 148 c 0
 57 146 56 143 56 141 c 0x82
 56 139 55 137 54 136 c 0
 53 136 53 134 53 131 c 0
 53 129 52 125 51 124 c 0
 50 122 49 120 49 118 c 0x84
 49 117 48 114 47 113 c 0
 46 111 44 108 44 106 c 0x88
 43 101 35 80 32 73 c 0
 30 70 30 67 30 66 c 0x90
 30 65 29 63 28 61 c 0
 25 58 25 56 23 44 c 0
 22 41 21 39 20 38 c 0
 19 37 18 34 18 32 c 0xa0
 18 30 17 26 16 24 c 0xc0
 9 10 9 1 18 0 c 0xa0
 47 -6 92 -1 92 8 c 0xc0
 92 9 93 12 95 14 c 1
 96 17 98 20 98 22 c 0xa0
 98 23 98 25 99 26 c 0
 100 27 101 32 101 36 c 0
 102 41 103 46 105 50 c 0
 107 54 109 57 109 58 c 0x90
 109 60 110 62 111 64 c 0
 113 68 116 76 119 87 c 0x88
 120 90 121 95 122 98 c 0
 123 100 124 103 124 104 c 0x84
 124 105 126 107 127 110 c 0
 129 113 130 115 129 116 c 0
 129 117 130 120 131 122 c 0
 133 125 135 131 136 136 c 0
 137 141 139 147 140 149 c 0
 141 151 142 154 142 155 c 0x82
 142 156 144 159 145 162 c 0
 147 165 148 169 148 170 c 0
 148 171 149 173 150 174 c 0
 152 175 152 177 152 179 c 0
 151 181 152 184 154 186 c 0
 155 188 156 190 156 191 c 0
 156 192 158 197 160 202 c 0
 165 214 168 215 190 215 c 0
 199 215 207 216 208 216 c 0
 209 217 230 217 254 218 c 0
 321 219 352 220 362 221 c 0
 375 222 383 216 383 206 c 0
 383 205 384 202 386 200 c 0
 388 198 389 195 389 194 c 0x810010
 389 193 390 189 392 185 c 0
 398 171 401 166 402 162 c 0
 403 160 405 157 407 154 c 0
 409 148 410 145 412 142 c 0
 418 132 436 92 436 91 c 0
 436 90 438 87 439 85 c 0
 441 83 442 81 442 80 c 2x800008
 442 80 444 76 445 72 c 1
 451 61 456 50 457 47 c 0
 457 45 458 43 460 42 c 0
 461 41 462 39 462 37 c 0x800004
 462 35 464 31 466 28 c 0
 468 25 470 21 470 19 c 0
 470 17 471 15 472 14 c 0
 474 13 476 10 477 7 c 0
 478 4 479 3 482 3 c 0
 484 3 486 2 486 2 c 1
 489 -2 553 -3 557 1 c 0
 559 3 556 12 552 18 c 0
 550 21 548 24 548 25 c 0x800012
 548 26 546 30 544 34 c 0
 541 39 539 43 539 44 c 0x800004
 539 46 537 48 536 50 c 0
 534 52 533 55 533 56 c 0
 533 58 531 61 530 64 c 0
 528 67 526 70 526 72 c 0
 526 73 525 75 523 77 c 0
 522 79 520 82 520 84 c 0x800008
 520 86 519 89 517 91 c 0
 515 94 513 97 513 99 c 0
 513 100 512 103 511 105 c 0
 509 107 508 109 508 110 c 2
 508 110 506 114 505 117 c 0
 503 121 500 128 498 133 c 0
 496 138 493 144 491 147 c 0
 490 150 488 153 488 154 c 0
 488 155 486 158 484 162 c 0
 482 165 480 169 480 171 c 0
 480 173 478 176 476 178 c 0
 474 180 473 184 473 185 c 0
 473 187 471 191 469 193 c 0
 467 196 466 199 466 199 c 2x800010
 466 200 465 202 464 204 c 0
 463 206 460 212 457 217 c 0
 454 223 452 228 452 230 c 0
 452 231 451 234 449 236 c 0
 447 238 446 240 446 242 c 0
 446 243 445 247 443 249 c 0
 441 252 439 255 439 257 c 0
 439 258 438 261 436 264 c 0
 434 267 432 270 432 272 c 0
 432 273 431 276 429 278 c 0
 428 280 427 283 427 285 c 0
 427 286 426 289 425 291 c 0
 418 305 415 312 415 314 c 1x800020
 414 315 413 318 412 319 c 0
 411 320 409 324 407 328 c 0
 406 331 403 335 402 337 c 0
 401 339 399 343 399 345 c 0
 398 348 395 352 394 354 c 0
 392 356 390 358 390 359 c 0x800040
 390 362 384 376 380 381 c 0
 379 382 378 385 378 386 c 0
 378 387 376 391 373 395 c 0
 371 398 369 402 369 404 c 0x800080
 369 405 368 408 366 411 c 0
 364 414 362 417 362 419 c 0
 362 420 361 423 359 425 c 0
 358 427 357 429 357 430 c 0
 357 432 354 438 351 445 c 0
 348 451 345 458 345 459 c 0x8001
 345 461 344 463 343 465 c 0
 341 467 340 470 339 472 c 0
 339 474 337 477 335 480 c 0
 334 482 333 485 333 487 c 0
 333 488 332 491 330 493 c 0
 329 495 327 499 326 502 c 0
 325 505 323 509 322 510 c 0
 321 512 320 514 320 516 c 0x800840
 320 518 319 520 318 521 c 0
 317 522 316 524 316 526 c 0
 316 527 314 531 312 535 c 0
 310 538 308 542 308 544 c 0x8004
 308 546 307 548 306 549 c 0
 304 550 303 553 302 556 c 0
 301 558 298 564 296 567 c 0
 294 571 292 574 292 575 c 0
 292 580 282 598 279 599 c 0
 275 601 275 601 272 598 c 0
 270 597 266 596 250 597 c 2x800280
273 439 m 0x8011
 273 438 274 435 276 431 c 0
 277 428 279 423 280 421 c 0
 283 415 292 395 294 390 c 1
 296 388 296 386 296 385 c 0x800080
 296 383 298 381 300 378 c 0
 302 376 306 368 310 360 c 0
 314 353 318 345 319 342 c 0
 323 335 326 328 326 324 c 0x800040
 326 323 327 320 329 318 c 0
 330 316 331 313 331 312 c 0
 331 311 333 308 335 304 c 0
 340 295 339 294 317 294 c 0
 307 294 294 293 289 293 c 0
 241 290 199 289 196 292 c 0x800820
 193 296 195 306 204 325 c 0
 205 329 207 334 208 337 c 0
 209 341 211 347 212 350 c 0
 213 353 214 359 214 361 c 0x8080
 214 364 215 367 216 369 c 0
 217 370 218 373 218 375 c 0x8040
 218 377 219 380 221 383 c 0
 222 386 225 391 226 394 c 0
 228 404 232 414 235 420 c 0
 236 423 238 427 238 429 c 0x8020
 238 431 238 433 239 433 c 0
 240 434 240 436 240 437 c 0
 240 439 242 443 244 447 c 0
 248 454 252 463 252 467 c 0
 252 470 253 472 255 472 c 0
 256 472 260 465 265 456 c 0
 269 447 273 440 273 439 c 0x8011
EndSplineSet
EndChar

StartChar: uni0042
Encoding: 66 66 6
Width: 447
Flags: MW
HStem: -1 62<145 163.5 145 225> 260 93<251 256.5> 268 66<150 160> 526 59<209.5 249> 528 66<114 134>
VStem: 47 73 272 80<369 376> 292 68
LayerCount: 2
Fore
SplineSet
46 592 m 0x8d
 46 591 46 590 44 589 c 1
 43 587 42 581 42 575 c 0
 42 574 43 548 43 518 c 0
 44 488 44 462 44 461 c 2
 44 440 l 1
 43 411 45 268 46 237 c 0
 46 221 47 203 47 197 c 2
 47 139 l 1
 47 72 l 2
 47 62 46 52 45 51 c 0
 43 47 44 23 47 20 c 0
 47 19 48 15 49 10 c 0
 50 -2 59 -7 69 -2 c 0
 71 0 84 0 123 -1 c 0
 187 -2 206 -2 225 -1 c 0
 233 0 246 0 253 1 c 0
 278 2 287 3 288 4 c 0
 290 6 296 8 310 10 c 1
 315 12 321 13 324 14 c 0
 330 15 350 26 351 28 c 0
 352 29 355 31 359 33 c 0
 368 37 374 43 378 52 c 0
 380 55 383 60 386 63 c 0
 393 69 402 82 402 85 c 0
 402 86 404 89 406 91 c 0
 408 94 409 97 410 99 c 0
 410 101 412 105 413 107 c 0
 414 109 414 111 414 112 c 0
 413 113 414 115 416 117 c 0
 421 125 423 151 421 172 c 0
 420 181 419 188 418 200 c 0
 417 206 416 212 415 214 c 0
 413 216 412 220 411 223 c 0
 410 226 408 229 407 230 c 0
 406 231 402 236 399 241 c 0
 396 247 392 254 390 257 c 0
 386 264 368 282 361 285 c 0
 359 286 354 290 350 292 c 1
 344 297 335 303 325 307 c 0
 317 311 317 314 326 326 c 0
 331 332 336 337 337 338 c 0
 338 338 340 341 340 343 c 0
 344 354 346 361 349 363 c 1
 350 365 352 368 352 370 c 0x8e
 352 371 354 375 356 377 c 0
 361 381 361 382 360 389 c 0
 360 394 360 397 362 400 c 0
 363 403 364 405 364 406 c 0
 363 407 364 411 365 416 c 0
 367 427 367 456 365 460 c 0
 364 462 363 465 363 467 c 0
 363 468 362 471 361 473 c 0
 360 474 359 476 359 478 c 0
 359 479 358 482 357 483 c 0
 356 485 354 490 354 493 c 0
 353 498 351 503 348 507 c 0
 345 511 340 518 337 522 c 0
 330 534 301 561 292 566 c 0
 287 568 283 571 282 572 c 0
 281 573 278 574 277 574 c 0
 275 574 271 575 268 577 c 0
 265 578 262 580 261 580 c 0
 259 580 257 581 255 582 c 0
 253 584 250 585 248 585 c 0x95
 247 585 244 586 242 587 c 0
 240 588 236 590 232 590 c 0
 228 591 223 592 221 592 c 0
 207 596 129 598 120 595 c 0
 118 594 115 594 114 594 c 0
 113 595 107 596 100 596 c 0
 94 596 81 596 72 597 c 0
 58 598 53 597 50 596 c 1
 48 594 46 593 46 592 c 0x8d
211 526 m 0x96
 215 526 221 526 224 525 c 0
 227 524 232 523 236 522 c 0
 239 522 242 520 244 519 c 0
 245 518 249 516 252 514 c 0
 260 510 271 496 280 480 c 0
 281 477 283 474 284 473 c 0
 290 466 294 433 292 416 c 1x95
 289 401 281 382 275 380 c 0
 273 379 272 377 272 375 c 0
 272 372 269 366 263 360 c 0
 262 359 260 358 259 358 c 0
 257 358 256 357 255 356 c 0
 254 354 252 353 251 353 c 2xd6
 251 353 247 351 244 348 c 0
 236 343 228 339 224 339 c 0
 223 339 220 338 218 337 c 0
 214 335 202 334 160 334 c 0
 115 334 118 333 118 349 c 0
 118 355 118 376 117 394 c 0
 116 435 116 526 117 528 c 0
 118 528 125 529 134 528 c 0
 155 527 176 528 183 529 c 0
 189 530 196 530 202 528 c 0xae
 203 527 208 526 211 526 c 0x96
230 265 m 0
 232 264 235 263 235 264 c 1
 236 264 240 263 245 262 c 0
 250 260 255 260 256 260 c 0xc5
 257 260 259 260 261 258 c 0
 263 257 265 256 266 257 c 0
 267 258 286 249 293 244 c 0
 295 242 298 241 300 241 c 0
 303 241 333 213 336 206 c 2
 338 202 l 2
 337 202 339 198 342 193 c 0
 350 176 348 150 338 120 c 0
 334 108 305 79 292 74 c 1
 287 71 280 69 278 68 c 0
 276 66 271 65 267 65 c 0
 263 65 251 64 240 63 c 0
 230 62 211 62 198 62 c 0
 186 62 168 61 159 61 c 0
 131 61 122 61 120 63 c 0
 119 64 118 252 119 261 c 0
 120 267 120 267 126 266 c 0
 129 266 133 266 134 267 c 0
 135 268 145 268 155 268 c 0xa5
 165 268 185 267 200 267 c 0
 220 267 227 267 230 265 c 0
EndSplineSet
EndChar

StartChar: uni0043
Encoding: 67 67 7
Width: 592
Flags: W
LayerCount: 2
Fore
SplineSet
322 589 m 1
 318 589 315 589 313 587 c 0
 311 586 307 585 301 586 c 0
 295 586 291 585 290 584 c 0
 288 583 284 582 279 581 c 0
 274 580 268 579 266 577 c 1
 260 575 240 568 237 568 c 0
 236 568 232 567 230 565 c 0
 227 563 223 561 221 561 c 0
 220 561 216 559 213 557 c 0
 210 555 207 553 205 553 c 0
 202 553 199 551 197 549 c 0
 195 546 192 545 191 545 c 2
 191 545 187 542 183 540 c 0
 179 537 175 535 174 535 c 0
 172 535 162 529 158 525 c 0
 150 517 135 503 131 501 c 0
 129 499 128 498 128 497 c 0
 128 496 123 491 118 485 c 0
 108 474 98 462 96 456 c 0
 95 454 91 450 88 445 c 1
 84 441 81 437 81 436 c 0
 81 435 80 431 78 429 c 0
 73 423 65 406 65 403 c 0
 65 402 63 398 61 395 c 0
 59 392 57 388 57 386 c 0
 57 384 56 382 55 380 c 0
 54 378 53 376 53 374 c 0
 53 373 53 370 51 368 c 1
 49 363 45 336 45 320 c 0
 45 312 45 303 44 299 c 0
 43 295 43 291 43 290 c 0
 44 288 45 280 46 272 c 0
 48 239 50 224 53 217 c 0
 54 215 55 211 55 209 c 0
 56 206 57 201 59 198 c 0
 61 195 62 192 62 190 c 0
 62 189 63 185 65 181 c 1
 66 176 69 171 70 168 c 0
 72 161 79 148 84 141 c 0
 87 137 88 134 88 134 c 2
 88 133 92 127 96 121 c 0
 100 115 104 109 104 108 c 0
 104 104 161 50 172 43 c 0
 176 41 182 37 185 35 c 0
 188 33 194 29 198 27 c 0
 203 24 208 21 210 20 c 0
 212 19 219 16 226 13 c 0
 232 10 239 6 240 4 c 0
 242 2 245 1 249 1 c 0
 253 1 262 0 269 -2 c 0
 276 -3 284 -5 287 -5 c 1
 289 -6 292 -7 294 -8 c 0
 295 -9 302 -10 313 -10 c 0
 321 -10 329 -11 330 -12 c 1
 332 -12 338 -13 346 -13 c 0
 365 -12 364 -12 370 -12 c 0
 373 -12 381 -12 388 -11 c 0
 395 -10 404 -10 408 -9 c 0
 412 -9 419 -8 424 -6 c 0
 428 -5 433 -4 435 -4 c 0
 437 -4 440 -4 441 -3 c 0
 443 -2 447 -1 451 -1 c 0
 460 0 472 2 479 4 c 0
 482 5 486 6 490 7 c 0
 500 9 508 12 511 14 c 0
 513 15 516 15 517 15 c 0
 519 15 523 17 526 18 c 0
 530 20 535 22 538 22 c 0
 550 23 550 17 549 97 c 0
 548 124 544 129 531 117 c 0
 524 110 516 105 500 97 c 0
 496 95 488 91 483 88 c 0
 477 85 472 83 470 83 c 0
 468 83 466 82 465 80 c 0
 464 79 462 78 460 78 c 0
 458 78 455 77 453 76 c 0
 451 75 449 74 447 75 c 0
 446 75 443 75 440 73 c 0
 438 72 431 71 426 71 c 0
 420 70 414 69 411 68 c 1
 409 66 405 66 402 66 c 0
 399 67 394 66 391 65 c 0
 383 62 369 61 356 63 c 0
 349 64 338 65 331 65 c 0
 324 65 314 66 308 67 c 0
 302 68 296 69 294 69 c 0
 292 69 289 70 288 71 c 0
 287 72 285 73 283 73 c 0
 281 73 278 74 276 75 c 0
 274 76 271 77 270 77 c 0
 266 77 252 84 248 88 c 0
 247 89 244 90 241 90 c 0
 238 91 233 94 229 97 c 0
 225 99 220 102 219 103 c 0
 217 104 212 107 208 110 c 0
 205 113 201 116 200 116 c 0
 197 116 163 153 163 156 c 0
 163 157 160 160 157 164 c 0
 152 171 145 184 141 195 c 0
 140 198 138 202 137 203 c 0
 135 205 135 207 135 208 c 0
 136 210 135 213 133 215 c 0
 132 217 130 220 130 222 c 0
 130 224 130 226 129 226 c 0
 128 227 128 229 128 232 c 0
 128 234 127 237 126 237 c 0
 123 239 120 318 123 327 c 0
 125 333 127 342 131 357 c 0
 133 366 135 369 141 384 c 0
 143 387 144 391 144 392 c 0
 144 393 145 393 146 393 c 2
 148 399 l 2
 149 402 151 405 153 407 c 0
 154 408 156 410 156 411 c 0
 156 419 205 469 221 477 c 0
 225 478 229 482 231 484 c 0
 233 486 235 487 236 487 c 0
 238 487 241 489 245 491 c 0
 255 496 265 499 279 501 c 0
 283 502 288 503 289 504 c 0
 291 505 296 506 301 506 c 0
 305 506 310 507 312 508 c 0
 314 509 320 510 328 510 c 2
 359 510 l 1
 373 511 380 511 388 509 c 0
 394 508 402 506 406 505 c 0
 410 504 414 503 415 502 c 0
 416 501 418 500 420 500 c 0
 426 500 444 495 450 492 c 0
 452 490 458 488 462 488 c 0
 466 487 471 486 472 485 c 0
 473 484 477 483 480 481 c 0
 483 480 486 479 488 478 c 0
 489 477 491 476 493 476 c 0
 495 476 498 475 500 473 c 0
 502 472 506 470 509 469 c 0
 511 469 516 466 520 462 c 0
 531 452 537 456 537 475 c 0
 539 517 539 529 541 532 c 0
 545 544 538 556 528 556 c 0
 526 556 522 557 519 559 c 0
 516 561 513 563 512 563 c 0
 510 563 506 567 505 571 c 0
 501 583 492 584 488 574 c 0
 488 572 487 571 485 572 c 0
 484 573 481 573 479 573 c 0
 477 573 474 574 473 575 c 1
 469 575 l 2
 468 575 466 575 465 576 c 0
 462 577 459 578 449 579 c 0
 439 580 435 581 433 583 c 0
 432 583 431 584 430 583 c 1
 430 583 423 583 415 585 c 0
 407 586 396 587 390 587 c 0
 385 587 379 588 377 588 c 0
 373 590 333 591 330 589 c 0
 328 588 325 588 322 589 c 1
EndSplineSet
EndChar

StartChar: uni0044
Encoding: 68 68 8
Width: 603
Flags: W
LayerCount: 2
Fore
SplineSet
158 605 m 0
 152 606 145 605 144 605 c 1
 144 604 139 604 133 605 c 0
 121 606 113 606 103 604 c 0
 98 603 94 602 93 603 c 0
 92 603 87 604 81 604 c 0
 76 604 71 605 70 605 c 0
 68 607 59 606 58 605 c 0
 57 604 55 604 54 604 c 0
 48 605 44 599 45 593 c 0
 46 585 47 545 46 534 c 0
 45 529 45 521 46 518 c 0
 48 511 48 511 47 493 c 0
 47 487 47 476 48 469 c 0
 48 462 47 455 46 452 c 0
 45 449 45 443 46 430 c 0
 48 406 48 386 46 383 c 0
 45 381 45 379 45 377 c 0
 46 372 47 247 47 210 c 0
 47 161 47 152 48 135 c 0
 48 126 49 114 48 108 c 1
 48 94 l 2
 48 92 49 70 49 45 c 0
 49 -5 49 -2 59 -3 c 0
 69 -5 69 -5 90 -4 c 0
 104 -3 175 -3 207 -3 c 0
 214 -3 226 -3 232 -2 c 1
 242 -2 245 -2 246 -4 c 0
 248 -6 258 -6 262 -3 c 0
 264 -2 270 -1 291 -1 c 0
 309 -1 319 -1 321 0 c 0
 322 1 327 2 331 2 c 0
 335 2 340 3 341 4 c 0
 343 5 347 6 350 6 c 0
 353 7 359 8 363 10 c 0
 367 12 372 14 373 14 c 0
 375 14 376 15 376 15 c 2
 376 16 378 17 381 18 c 0
 384 18 388 19 389 20 c 0
 391 22 394 22 396 22 c 0
 398 22 401 24 402 25 c 0
 403 27 407 29 409 29 c 0
 421 34 444 48 459 60 c 0
 462 63 469 68 474 71 c 0
 479 74 483 78 483 78 c 2
 483 79 488 84 494 91 c 0
 500 97 505 103 505 103 c 2
 505 104 508 108 512 112 c 0
 521 123 529 133 529 135 c 1
 529 135 531 139 534 143 c 0
 537 147 540 152 541 155 c 0
 541 157 543 161 545 163 c 0
 547 165 548 168 548 169 c 0
 548 171 555 183 558 187 c 0
 559 188 560 192 560 195 c 0
 560 199 561 202 562 203 c 0
 563 204 564 207 563 209 c 1
 563 212 564 214 564 215 c 0
 565 216 566 220 566 224 c 0
 566 228 567 233 568 234 c 0
 569 236 570 239 570 241 c 0
 570 244 573 252 575 257 c 0
 577 260 577 266 575 269 c 0
 574 270 575 274 576 278 c 0
 577 286 577 303 576 312 c 0
 575 314 575 317 576 317 c 0
 577 318 577 319 577 320 c 0
 576 321 575 327 574 334 c 0
 574 341 573 347 572 348 c 0
 571 349 571 353 570 358 c 0
 570 362 569 368 568 370 c 0
 567 373 566 377 566 381 c 0
 566 385 565 388 564 388 c 0
 562 388 559 395 556 407 c 0
 552 420 550 424 546 429 c 0
 545 431 543 435 542 438 c 0
 542 440 540 444 538 446 c 0
 531 453 529 457 529 459 c 0
 529 461 526 465 522 469 c 0
 518 473 515 478 514 480 c 0
 513 485 507 495 503 497 c 0
 501 498 499 500 499 502 c 1
 494 507 l 1
 491 508 487 512 483 515 c 0
 446 550 444 552 441 552 c 0
 438 552 435 553 432 556 c 0
 429 559 426 561 424 561 c 0
 422 561 419 563 416 565 c 0
 414 566 410 569 407 570 c 0
 404 571 399 574 395 576 c 0
 392 578 388 580 388 579 c 1
 387 579 385 580 382 582 c 0
 380 584 376 585 374 585 c 0
 371 585 369 586 369 586 c 2
 368 587 365 588 362 588 c 0
 358 588 354 589 352 589 c 0
 350 590 346 591 344 591 c 0
 342 591 340 592 338 593 c 0
 337 594 332 595 327 595 c 0
 322 596 318 597 318 597 c 2
 317 598 313 599 310 598 c 1
 306 598 299 599 294 600 c 0
 290 601 285 602 283 602 c 0
 269 602 254 603 253 604 c 0
 251 606 227 608 226 606 c 1
 224 605 177 604 158 605 c 0
226 527 m 0
 235 529 255 529 258 527 c 0
 260 526 265 525 276 525 c 0
 284 525 291 525 292 524 c 0
 293 524 300 523 307 523 c 0
 318 523 322 522 329 519 c 0
 334 517 343 514 349 513 c 0
 355 512 362 509 366 507 c 0
 369 505 374 502 376 502 c 0
 378 501 383 498 387 495 c 0
 391 491 395 487 397 486 c 0
 400 485 401 484 401 483 c 0
 401 482 403 482 405 482 c 0
 407 482 411 479 416 474 c 0
 420 470 424 466 425 466 c 0
 427 466 461 430 463 426 c 0
 464 423 466 419 467 417 c 0
 468 415 470 411 470 409 c 0
 471 406 473 402 475 400 c 0
 477 398 478 396 478 395 c 0
 477 394 479 390 480 388 c 0
 482 385 484 382 484 380 c 0
 484 378 485 375 487 373 c 0
 488 372 490 369 490 368 c 0
 490 366 490 363 492 361 c 0
 493 359 493 356 493 355 c 0
 492 354 493 351 495 350 c 0
 499 345 500 337 501 299 c 0
 502 287 501 276 501 273 c 1
 500 271 499 264 499 258 c 0
 498 250 498 245 496 244 c 0
 495 243 494 240 493 238 c 0
 492 236 491 233 491 233 c 2
 490 233 490 231 490 229 c 0
 492 225 485 204 482 204 c 1
 482 204 481 203 481 201 c 0
 480 199 478 196 477 194 c 1
 475 193 474 189 473 187 c 0
 473 185 470 180 468 177 c 0
 466 174 460 167 457 161 c 0
 450 151 440 140 438 140 c 0
 437 140 435 139 433 137 c 0
 431 135 427 131 423 128 c 0
 419 125 413 119 409 116 c 0
 404 112 398 107 394 106 c 1
 391 104 386 101 383 99 c 0
 381 97 375 94 371 93 c 0
 366 92 359 89 354 87 c 0
 340 81 330 78 320 78 c 0
 315 78 310 77 308 77 c 1
 307 76 302 75 297 75 c 0
 292 74 286 73 285 72 c 0
 282 71 268 71 228 71 c 1
 198 70 166 70 156 70 c 0
 138 70 134 71 131 76 c 0
 128 81 127 359 129 372 c 0
 130 376 130 383 130 389 c 1
 129 394 129 406 130 415 c 0
 131 423 131 435 130 440 c 1
 130 446 129 458 129 468 c 0
 129 477 129 485 128 485 c 1
 128 522 l 2
 128 525 136 527 148 528 c 0
 155 528 164 529 170 529 c 0
 180 530 202 530 205 528 c 1
 212 526 221 525 226 527 c 0
EndSplineSet
EndChar

StartChar: uni0045
Encoding: 69 69 9
Width: 420
Flags: MW
HStem: -2 71<182.5 183.5 182.5 191.5 182.5 276> 106 11<42 44.5> 270 69<165 173 173 187 134 195 134 197.5> 538 69
VStem: 42 79<400 463 401 463 408 463 449 454 454 463 463 466 449 510> 42 333<607 607> 216 5
LayerCount: 2
Fore
SplineSet
41 577 m 2xf4
 41 532 l 2
 41 531 41 521 42 510 c 1
 42 454 l 1
 42 414 l 1
 42 408 l 1
 42 401 l 2
 42 399 43 374 43 346 c 0
 44 275 45 178 46 156 c 0
 46 146 46 137 45 135 c 0
 44 134 44 130 43 125 c 0
 43 121 43 117 42 117 c 0xf8
 41 116 43 106 44 106 c 0
 45 106 46 66 45 51 c 1
 45 47 l 1
 45 32 l 1
 44 -7 40 -3 89 -3 c 2
 136 -3 l 2
 152 -3 174 -2 186 -2 c 0
 197 -2 208 -1 208 -1 c 2
 209 -1 233 -2 262 -2 c 0
 290 -2 323 -3 335 -3 c 0
 365 -5 367 -4 371 -2 c 0
 377 2 381 22 377 26 c 0
 376 27 375 35 375 43 c 0xf4
 373 68 382 66 287 66 c 1
 247 67 207 68 199 68 c 0
 191 69 184 69 183 69 c 0
 182 69 181 69 180 70 c 0
 180 71 178 71 176 71 c 0
 161 67 132 70 127 75 c 0
 122 81 121 104 126 109 c 0
 128 112 128 114 124 122 c 0
 123 125 122 135 122 149 c 0
 121 263 121 266 128 266 c 0
 129 266 130 267 132 267 c 1
 137 270 143 271 165 270 c 1
 195 270 l 2
 200 270 206 270 209 269 c 0
 213 268 216 268 217 269 c 0
 218 270 224 270 230 270 c 0
 237 270 244 270 247 271 c 0
 250 271 257 271 262 270 c 0
 268 269 292 269 316 269 c 0
 373 268 370 267 371 299 c 0
 371 309 372 319 373 321 c 0
 377 330 362 342 349 340 c 0
 343 339 340 339 338 340 c 0
 334 342 279 341 274 338 c 1
 266 335 262 334 259 337 c 0
 255 340 242 340 230 338 c 0
 225 337 223 339 221 347 c 0
 219 353 215 351 216 344 c 0
 216 342 215 342 211 342 c 0
 207 342 205 341 204 340 c 1
 204 340 201 339 199 340 c 1
 196 340 191 340 187 339 c 0
 183 339 177 338 173 339 c 0
 170 340 166 340 165 339 c 0
 159 335 146 335 146 339 c 1
 134 339 l 1
 120 338 116 340 117 347 c 0
 117 349 117 351 116 352 c 0
 116 353 116 357 117 362 c 0
 120 381 122 420 121 449 c 1
 121 463 l 2xfa
 121 469 120 481 120 489 c 0
 118 544 116 538 138 538 c 0
 147 538 155 537 157 537 c 0
 159 537 194 538 236 538 c 1
 277 539 316 539 322 539 c 0
 357 538 366 538 367 539 c 0
 367 540 368 540 370 540 c 0
 372 539 377 543 377 546 c 0
 377 547 378 549 379 551 c 0
 381 553 381 554 379 556 c 0
 377 558 377 562 376 582 c 0
 376 598 376 606 375 607 c 1
 337 607 l 2
 317 607 296 607 291 608 c 0
 272 611 44 610 42 607 c 0
 42 606 41 592 41 577 c 2xf4
EndSplineSet
EndChar

StartChar: uni0046
Encoding: 70 70 10
Width: 389
Flags: MW
HStem: 279 71<241 262 262 285> 539 66<121 123 123 141 141 188 188 230 230 246>
VStem: 45 77<110 111 111 112 26 204>
LayerCount: 2
Fore
SplineSet
43 591 m 0
 43 574 41 543 41 542 c 1
 40 542 41 539 41 535 c 1
 42 532 42 528 41 526 c 0
 40 524 40 523 41 522 c 0
 43 520 43 513 42 512 c 0
 41 511 41 508 41 504 c 0
 41 496 42 433 43 312 c 0
 44 279 44 231 45 204 c 1
 45 111 l 2
 45 109 46 98 46 85 c 1
 47 73 47 61 47 59 c 0
 46 0 47 -4 67 -4 c 0
 107 -4 123 -3 125 -1 c 0
 129 5 129 6 126 12 c 0
 123 16 122 18 122 26 c 1
 123 30 123 41 122 50 c 1
 122 112 l 1
 121 138 121 180 120 206 c 1
 120 256 121 274 125 277 c 0
 127 279 152 279 241 279 c 2
 355 279 l 1
 358 282 l 2
 362 287 361 345 357 349 c 0
 355 352 351 352 350 350 c 0
 349 349 339 349 323 349 c 1
 309 350 291 350 285 350 c 2
 262 350 l 1
 187 350 l 2
 143 350 123 351 123 352 c 0
 120 357 119 364 119 386 c 0
 120 417 120 419 122 421 c 0
 122 422 122 424 121 425 c 0
 121 426 120 429 120 432 c 0
 121 440 123 483 123 498 c 0
 123 514 122 526 120 528 c 0
 118 530 119 538 121 539 c 0
 122 540 131 540 141 539 c 0
 172 538 351 538 352 539 c 0
 354 540 354 558 354 592 c 1
 353 595 352 598 349 600 c 2
 345 604 l 1
 297 604 l 1
 271 605 248 605 246 605 c 2
 230 605 l 1
 188 605 l 1
 123 605 l 1
 75 605 l 1
 68 606 58 605 54 604 c 0
 43 602 43 602 43 591 c 0
EndSplineSet
EndChar

StartChar: uni0047
Encoding: 71 71 11
Width: 581
Flags: MW
HStem: -8 72<402 402> 1 63<245 307> 1 76<245 252> 4 80<229.5 237.5> 14 78<210 214.5> 21 88<190.5 195> 204 70 491 72<469 499> 506 71<255 267>
VStem: 32 80<215.5 240.5> 42 70 44 79<188.5 194> 45 79<387 387> 62 98<135.5 152.5> 460 75<144.5 158 150 158 158 161>
LayerCount: 2
Fore
SplineSet
328 586 m 0x030a
 315 586 303 585 300 585 c 0
 297 584 290 583 285 583 c 0
 279 582 273 582 272 582 c 0
 271 582 269 582 267 581 c 1
 266 579 261 578 257 577 c 0
 253 577 249 576 247 575 c 0
 246 574 243 573 242 573 c 0
 237 573 216 565 211 561 c 0
 208 559 204 557 202 557 c 0
 199 557 190 552 179 546 c 0
 175 543 171 540 170 540 c 0
 169 540 165 538 162 535 c 0
 158 532 152 528 149 526 c 0
 134 517 92 475 84 461 c 0
 82 458 79 453 77 451 c 0
 75 448 72 443 70 439 c 0
 68 435 64 429 62 426 c 0x0286
 60 423 58 420 58 419 c 0
 58 418 56 415 55 412 c 2
 51 404 l 1
 51 401 50 398 48 398 c 1
 47 397 46 395 46 393 c 0
 46 392 46 389 45 387 c 0x028a
 44 386 43 382 42 379 c 0x02a2
 42 376 40 369 38 365 c 0
 34 353 31 336 32 335 c 0
 32 334 32 332 31 331 c 0
 26 322 26 288 30 261 c 0
 31 252 32 242 32 239 c 0x02c2
 32 234 37 214 39 211 c 0
 39 210 40 208 40 205 c 0
 40 203 40 200 42 199 c 0x02a2
 43 198 44 195 44 193 c 0x0292
 44 191 44 189 45 188 c 0x028a
 46 187 48 182 51 175 c 0
 53 169 56 162 58 159 c 0
 60 157 62 153 62 152 c 0
 62 151 63 148 65 145 c 0
 67 143 71 136 74 130 c 0
 78 121 83 115 93 103 c 0
 112 82 142 52 146 50 c 0
 148 49 156 44 163 39 c 0
 171 34 180 29 182 28 c 0
 185 27 188 25 189 23 c 0
 190 22 192 21 194 21 c 0x0686
 196 21 199 19 203 17 c 0
 206 16 209 14 211 14 c 0x0a06
 213 14 215 13 216 12 c 0
 217 11 220 9 224 8 c 0
 227 7 230 6 231 5 c 2
 231 5 234 4 236 4 c 0x1206
 239 4 241 4 242 3 c 0
 242 2 244 1 246 1 c 0x2206
 248 1 251 1 253 -1 c 0
 266 -7 391 -14 402 -8 c 0x8206
 403 -8 408 -7 413 -6 c 0
 417 -6 425 -5 430 -5 c 0
 435 -4 442 -3 445 -3 c 0
 448 -2 452 -1 453 -1 c 0
 455 0 458 0 460 1 c 0x4206
 462 2 464 3 465 2 c 0
 466 2 471 2 476 4 c 1x1206
 482 5 489 6 492 6 c 0
 495 6 498 8 500 9 c 0
 502 11 504 11 506 11 c 1
 507 10 509 10 510 11 c 0
 511 12 516 13 520 15 c 1
 537 19 536 14 536 92 c 1x0a06
 535 121 535 147 535 150 c 2
 535 158 l 1
 535 215 l 1
 534 269 534 270 531 274 c 2
 528 277 l 1
 484 276 l 1
 439 276 379 275 373 274 c 0
 371 274 366 274 363 275 c 0
 357 276 356 275 353 272 c 2
 349 269 l 1
 349 240 l 1
 350 223 350 209 351 207 c 0
 353 202 360 200 365 202 c 0
 368 204 444 205 452 204 c 1
 459 202 461 195 460 161 c 1
 460 149 l 2
 460 140 458 101 457 99 c 0
 457 98 456 93 456 87 c 0
 455 75 456 75 443 72 c 0
 437 71 431 69 429 69 c 0
 427 68 421 67 415 66 c 0
 409 66 403 65 401 64 c 0
 392 61 371 60 367 63 c 0
 364 65 363 65 352 64 c 0
 339 62 324 61 319 62 c 0
 318 63 312 63 307 64 c 1x8206
 296 64 276 68 272 71 c 0
 270 72 267 73 265 73 c 0
 264 73 261 74 260 75 c 0
 258 76 254 77 250 77 c 0x2206
 245 77 241 78 238 81 c 1
 234 82 231 84 230 84 c 0x1206
 229 84 226 86 222 88 c 1
 219 91 215 92 214 92 c 0x0a06
 212 92 202 100 197 105 c 0
 195 107 192 109 191 109 c 0
 190 109 188 111 186 113 c 0
 185 115 182 116 181 116 c 0
 178 116 160 134 160 137 c 0x0606
 160 140 156 145 146 155 c 0
 141 160 136 166 135 169 c 0
 133 172 130 178 128 181 c 0
 125 184 123 188 123 189 c 0x0612
 123 190 122 192 121 194 c 0
 119 196 118 200 117 203 c 0
 117 206 115 209 114 211 c 0
 113 213 112 215 112 216 c 0x0642
 112 217 111 220 110 222 c 0
 103 238 100 300 104 317 c 0
 106 322 107 329 107 333 c 0
 107 337 108 341 109 342 c 0
 110 344 111 347 111 348 c 0
 111 350 112 353 112 354 c 0x0622
 113 356 114 358 114 360 c 1
 115 361 116 365 117 367 c 0
 120 373 123 383 124 388 c 0
 125 390 126 392 128 394 c 0
 129 395 130 398 130 399 c 0
 130 400 133 403 136 406 c 0
 139 409 142 413 142 414 c 0
 142 417 155 432 171 447 c 2
 179 455 l 2
 186 462 197 472 203 474 c 0
 206 475 212 479 217 483 c 2
 227 489 l 2
 228 489 230 490 231 491 c 0x070a
 233 492 236 493 237 494 c 1
 239 494 243 495 246 497 c 0
 258 503 266 507 267 506 c 1x028a
 267 506 270 506 274 508 c 0
 282 510 283 510 307 512 c 0
 316 512 323 513 324 513 c 0
 327 515 360 515 372 513 c 0
 379 512 390 511 395 510 c 1
 401 510 406 509 407 509 c 1
 407 508 412 508 417 507 c 0
 421 507 426 506 428 505 c 0
 430 504 432 503 434 503 c 0
 435 503 438 501 440 500 c 0
 443 498 448 497 452 496 c 1
 457 496 462 494 463 493 c 0
 465 492 468 491 470 491 c 0
 471 491 474 491 476 490 c 0
 477 489 482 487 487 486 c 0
 496 484 496 484 504 478 c 0
 511 473 519 471 521 473 c 0
 522 474 522 485 522 501 c 2
 522 538 l 2
 522 544 522 549 521 550 c 0
 517 555 506 562 499 563 c 0
 495 563 490 565 488 565 c 0
 486 566 478 568 471 570 c 0
 464 573 457 575 454 576 c 0
 451 577 444 578 438 578 c 0
 428 579 415 581 399 584 c 0
 394 585 384 585 378 586 c 1
 371 586 362 587 359 587 c 0
 355 588 352 588 351 587 c 2
 351 587 340 586 328 586 c 0x030a
EndSplineSet
EndChar

StartChar: uni0048
Encoding: 72 72 12
Width: 572
Flags: W
LayerCount: 2
Fore
SplineSet
74 605 m 0
 41 607 41 607 42 584 c 0
 43 575 43 560 42 550 c 0
 41 526 42 412 43 367 c 1
 43 328 l 2
 43 323 44 240 44 220 c 0
 44 213 44 204 43 201 c 0
 43 198 43 181 44 164 c 0
 45 146 45 102 45 66 c 0
 45 29 46 -1 47 -2 c 0
 48 -4 63 -4 66 -2 c 1
 66 -2 78 -1 92 -1 c 0
 108 0 118 0 120 1 c 1
 121 3 121 31 120 172 c 0
 119 263 119 270 120 272 c 0
 122 274 285 274 307 272 c 0
 314 272 324 271 330 272 c 0
 344 273 447 272 450 271 c 0
 452 271 454 269 454 266 c 0
 455 263 457 106 456 98 c 1
 456 73 l 1
 456 43 l 1
 454 -8 453 -7 509 -5 c 0
 532 -5 532 -2 528 46 c 0
 528 54 527 67 528 76 c 1
 528 98 l 1
 528 118 l 2
 528 191 527 421 526 451 c 0
 525 468 525 507 525 550 c 1
 526 572 523 599 521 601 c 0
 519 602 499 603 495 602 c 1
 474 602 l 2
 454 602 453 602 452 599 c 0
 451 596 451 528 453 427 c 0
 454 372 454 343 453 341 c 0
 452 341 444 340 433 340 c 0
 416 341 389 341 375 340 c 0
 365 340 349 343 347 346 c 1
 344 348 344 348 342 345 c 0
 340 342 337 342 192 341 c 0
 123 341 121 341 119 347 c 0
 117 350 116 413 116 489 c 1
 115 511 115 529 114 530 c 1
 114 538 l 1
 115 541 116 550 115 557 c 1
 115 586 l 2
 115 604 113 609 106 607 c 0
 104 607 102 607 101 608 c 0
 100 610 93 609 89 606 c 0
 85 604 83 604 74 605 c 0
EndSplineSet
EndChar

StartChar: uni0049
Encoding: 73 73 13
Width: 129
Flags: W
LayerCount: 2
Fore
SplineSet
24 586 m 0
 14 590 10 584 13 572 c 0
 15 566 16 557 17 446 c 0
 17 402 18 359 18 351 c 0
 19 338 20 279 20 215 c 0
 20 202 20 190 19 189 c 1
 19 187 19 186 20 185 c 0
 20 184 21 164 21 142 c 0
 21 103 22 79 24 57 c 0
 25 44 25 32 23 29 c 0
 22 28 22 25 23 21 c 0
 24 18 25 10 25 3 c 2
 25 -8 l 1
 29 -8 l 2
 31 -8 35 -8 37 -7 c 0
 40 -5 45 -5 89 -5 c 0
 97 -5 101 -5 103 -3 c 0
 104 -2 107 -1 110 -1 c 0
 116 0 121 4 116 4 c 0
 114 4 113 5 113 6 c 2
 113 6 110 7 107 7 c 0
 99 7 99 9 98 35 c 0
 98 48 97 59 97 60 c 2
 97 75 l 1
 98 83 97 89 96 90 c 0
 95 91 94 102 94 120 c 2
 94 148 l 1
 98 148 l 2
 103 148 104 150 99 153 c 0
 93 156 92 160 94 176 c 0
 95 183 96 191 95 193 c 0
 93 204 95 250 98 250 c 1
 98 249 101 249 103 249 c 0
 107 249 108 249 108 247 c 0
 108 246 111 244 114 244 c 0
 116 244 114 251 112 256 c 0
 109 261 107 262 107 258 c 0
 107 257 106 256 105 256 c 0
 104 256 103 257 103 258 c 0
 103 259 103 260 104 260 c 0
 105 260 106 261 106 262 c 0
 106 264 105 265 104 265 c 0
 103 265 102 264 102 262 c 0
 101 260 96 260 96 263 c 0
 96 264 95 268 95 272 c 0
 94 280 94 283 95 300 c 0
 95 307 95 312 94 312 c 0
 93 312 93 317 94 323 c 1
 94 331 94 335 93 337 c 0
 92 338 92 339 93 341 c 0
 94 343 94 344 93 345 c 0
 91 347 88 459 89 531 c 0
 89 538 88 549 88 554 c 0
 88 560 88 566 89 568 c 0
 91 574 87 582 82 584 c 0
 80 585 77 587 77 588 c 0
 76 590 74 590 72 588 c 0
 70 585 30 584 24 586 c 0
EndSplineSet
EndChar

StartChar: uni004A
Encoding: 74 74 14
Width: 352
Flags: W
LayerCount: 2
Fore
SplineSet
226 568 m 0
 225 567 225 565 226 564 c 0
 228 561 228 551 229 463 c 0
 230 441 230 410 231 393 c 0
 231 376 232 330 232 291 c 0
 233 252 233 193 234 160 c 0
 235 90 235 23 234 14 c 0
 231 -8 231 -12 229 -15 c 0
 228 -17 227 -19 227 -21 c 0
 227 -22 226 -24 225 -25 c 0
 224 -26 223 -29 223 -31 c 0
 223 -35 221 -38 212 -47 c 0
 198 -61 186 -68 164 -73 c 0
 156 -75 126 -74 120 -72 c 0
 118 -71 113 -69 110 -68 c 0
 85 -59 58 -36 49 -18 c 0
 47 -14 43 -8 40 -6 c 1
 37 -2 36 1 35 6 c 0
 34 13 31 16 28 15 c 0
 26 14 26 11 30 -3 c 0
 31 -8 32 -15 32 -18 c 0
 32 -22 33 -26 34 -27 c 0
 35 -28 36 -30 36 -32 c 0
 36 -35 36 -37 37 -37 c 2
 37 -37 38 -41 39 -46 c 0
 39 -50 41 -56 42 -58 c 0
 43 -60 45 -66 45 -71 c 1
 46 -75 48 -81 49 -83 c 0
 50 -85 52 -91 53 -95 c 0
 56 -105 66 -116 76 -120 c 0
 80 -121 85 -123 88 -125 c 0
 90 -127 94 -129 95 -129 c 0
 96 -129 99 -130 101 -132 c 0
 103 -133 106 -134 107 -134 c 0
 108 -133 124 -136 131 -139 c 1
 139 -141 173 -142 182 -139 c 0
 192 -136 200 -134 206 -133 c 0
 208 -133 211 -132 213 -131 c 0
 214 -130 217 -129 218 -129 c 0
 220 -129 223 -127 225 -126 c 0
 228 -124 231 -122 233 -121 c 0
 243 -119 288 -72 288 -64 c 0
 288 -63 289 -61 291 -58 c 0
 294 -55 295 -51 296 -46 c 0
 296 -42 297 -37 298 -35 c 0
 299 -33 300 -28 300 -25 c 0
 300 -22 301 -18 301 -17 c 0
 302 -16 303 -11 303 -8 c 0
 303 -4 304 1 305 3 c 0
 307 6 307 97 305 109 c 0
 305 112 304 119 304 125 c 0
 304 132 303 138 302 140 c 0
 300 143 300 144 303 146 c 1
 305 149 305 151 305 170 c 0
 305 182 304 204 304 219 c 0
 304 237 303 249 302 250 c 0
 301 252 301 258 302 267 c 0
 303 283 302 355 301 367 c 0
 301 372 301 377 302 378 c 0
 303 380 303 382 302 385 c 0
 300 388 300 394 300 404 c 1
 301 406 300 418 300 431 c 0
 298 467 298 534 300 537 c 0
 301 539 301 541 300 542 c 0
 300 543 299 550 298 557 c 0
 297 572 296 574 293 574 c 0
 292 574 290 575 289 576 c 0
 287 578 282 578 257 578 c 2
 227 578 l 1
 227 574 l 2
 227 572 227 570 226 568 c 0
EndSplineSet
EndChar

StartChar: uni004B
Encoding: 75 75 15
Width: 550
Flags: W
LayerCount: 2
Fore
SplineSet
40 574 m 1
 41 521 l 2
 42 492 42 442 43 409 c 0
 43 377 44 324 44 292 c 0
 44 260 45 201 45 161 c 0
 46 121 46 70 47 47 c 1
 47 23 47 4 48 4 c 0
 50 1 76 -1 115 0 c 0
 126 0 126 0 125 32 c 0
 125 48 124 66 124 71 c 0
 124 77 123 94 123 108 c 0
 123 122 122 136 121 139 c 1
 121 143 121 150 123 159 c 1
 124 172 124 176 123 184 c 0
 121 195 120 280 122 281 c 0
 123 281 136 272 136 270 c 0
 136 269 157 247 171 235 c 0
 179 228 189 219 194 214 c 0
 242 165 256 151 260 151 c 0
 262 151 265 149 268 145 c 0
 275 137 278 134 303 111 c 0
 314 101 325 90 327 88 c 0
 328 87 336 78 344 70 c 0
 377 36 390 22 392 19 c 1
 393 15 411 2 418 0 c 0
 420 -1 433 -1 446 -1 c 2
 475 -1 l 1
 513 -2 516 0 504 12 c 0
 501 14 479 37 454 62 c 0
 400 116 370 144 361 148 c 0
 358 149 354 152 351 155 c 0
 347 160 306 200 241 263 c 0
 206 297 207 294 217 305 c 0
 221 310 224 314 224 314 c 1
 224 316 231 324 258 352 c 0
 282 376 302 399 305 402 c 0
 310 410 329 431 351 454 c 0
 364 468 375 481 377 483 c 0
 378 485 382 489 385 493 c 0
 389 497 392 500 392 501 c 0
 392 503 399 510 442 555 c 0
 449 562 453 567 453 568 c 0
 453 575 376 577 368 571 c 0
 365 569 363 568 362 569 c 0
 360 570 324 533 319 524 c 0
 316 519 298 500 253 452 c 0
 236 434 234 431 226 422 c 0
 215 409 209 402 192 384 c 0
 182 374 168 359 160 350 c 0
 139 328 123 313 121 315 c 0
 120 316 120 327 119 348 c 1
 119 381 118 460 117 524 c 0
 116 566 115 572 110 573 c 0
 107 574 49 575 44 574 c 1
 40 574 l 1
EndSplineSet
EndChar

StartChar: uni004C
Encoding: 76 76 16
Width: 400
Flags: MW
HStem: -1 73
VStem: 42 72 43 79
LayerCount: 2
Fore
SplineSet
51 575 m 0xc0
 41 575 42 577 42 525 c 2
 42 316 l 2xc0
 42 313 43 306 43 298 c 0
 45 256 48 65 47 20 c 0
 46 10 48 7 54 3 c 2
 59 -1 l 1
 166 -1 l 2
 244 -1 276 -2 282 -3 c 0
 287 -4 294 -4 297 -4 c 0
 305 -2 317 -1 320 -1 c 0
 321 -1 330 -1 340 -2 c 0
 359 -3 376 -1 379 1 c 0
 380 2 380 15 380 32 c 2
 381 61 l 1
 377 67 l 2
 373 73 370 74 368 71 c 1
 366 70 354 69 319 70 c 1
 197 70 126 71 124 72 c 0
 123 73 122 77 122 88 c 0
 123 130 122 152 121 153 c 0
 120 155 120 157 121 161 c 0
 122 164 122 173 122 182 c 2
 122 199 l 2xa0
 122 207 121 309 120 335 c 0
 120 353 119 398 119 435 c 0
 117 562 116 573 114 576 c 0
 112 578 61 579 58 577 c 0
 57 576 54 575 51 575 c 0xc0
EndSplineSet
EndChar

StartChar: uni004D
Encoding: 77 77 17
Width: 639
Flags: W
LayerCount: 2
Fore
SplineSet
516 578 m 0
 516 577 513 572 509 568 c 0
 505 564 500 559 498 556 c 0
 497 554 493 549 490 546 c 0
 487 542 484 538 483 536 c 0
 483 535 478 529 472 523 c 0
 467 517 461 510 459 507 c 0
 457 504 453 500 450 498 c 0
 447 495 444 493 444 491 c 0
 444 489 441 484 437 480 c 0
 433 476 428 469 424 464 c 0
 415 452 411 447 397 430 c 0
 390 422 382 413 380 410 c 1
 377 408 375 404 374 402 c 0
 374 400 372 398 370 398 c 0
 368 397 365 395 364 392 c 0
 360 386 351 375 344 368 c 0
 341 365 337 359 336 357 c 0
 334 352 327 345 321 342 c 0
 320 341 318 339 318 337 c 0
 318 336 318 334 317 334 c 0
 316 333 307 340 307 342 c 0
 307 344 298 355 287 367 c 0
 282 372 277 378 276 380 c 0
 275 383 273 386 271 387 c 0
 270 388 267 391 265 394 c 0
 263 397 256 405 250 412 c 1
 243 418 237 426 236 428 c 0
 235 430 232 434 230 437 c 0
 227 440 221 446 217 451 c 0
 212 456 207 463 205 466 c 0
 204 469 197 477 190 484 c 0
 183 492 176 501 174 504 c 0
 172 508 164 517 157 525 c 0
 150 532 141 543 137 549 c 0
 125 566 111 580 104 580 c 0
 94 580 85 579 84 578 c 0
 83 577 81 577 79 578 c 0
 73 579 54 579 51 577 c 0
 48 575 48 572 49 522 c 1
 49 465 l 1
 48 459 48 440 48 422 c 0
 48 403 48 390 47 390 c 0
 46 389 46 388 46 387 c 0
 48 380 49 346 48 336 c 0
 47 334 48 331 48 330 c 0
 49 328 49 326 48 322 c 0
 48 318 48 313 49 308 c 0
 49 304 50 292 50 281 c 0
 51 222 51 195 50 186 c 0
 49 179 48 173 49 168 c 0
 50 164 50 159 50 156 c 0
 49 153 49 147 49 142 c 0
 50 137 50 130 50 125 c 0
 50 120 51 115 52 114 c 0
 52 113 53 107 52 100 c 1
 52 68 l 1
 52 28 l 2
 52 12 52 8 55 4 c 1
 57 -2 l 1
 80 -2 l 2
 104 -2 125 1 126 3 c 0
 127 4 127 17 128 31 c 1
 128 68 l 2
 128 74 128 84 127 91 c 0
 126 97 126 103 127 105 c 0
 128 110 128 128 127 135 c 0
 126 139 126 142 128 145 c 0
 129 147 129 152 129 156 c 0
 129 169 130 177 131 182 c 0
 132 186 132 188 130 190 c 0
 129 192 128 194 129 195 c 1
 129 199 l 1
 128 200 127 206 127 213 c 0
 127 220 126 226 126 228 c 1
 125 229 125 233 126 237 c 0
 126 241 127 245 127 246 c 0
 125 260 125 272 127 274 c 0
 128 276 128 278 127 279 c 0
 126 280 125 290 125 300 c 2
 125 324 l 1
 124 350 126 361 130 359 c 1
 131 359 l 1
 131 361 129 363 126 364 c 0
 124 365 124 366 124 372 c 1
 125 375 125 378 124 379 c 0
 123 380 123 424 125 426 c 0
 125 427 126 430 125 434 c 1
 125 441 126 441 131 436 c 0
 150 417 155 412 155 409 c 0
 155 406 157 403 161 400 c 0
 167 396 188 370 188 367 c 0
 188 366 193 361 198 356 c 0
 203 350 207 345 208 345 c 1
 208 344 211 340 216 335 c 0
 220 331 225 325 226 322 c 0
 227 319 234 312 241 305 c 0
 247 299 253 293 253 292 c 0
 253 290 268 271 276 264 c 0
 279 261 285 254 288 248 c 0
 301 228 311 220 318 225 c 0
 319 226 322 227 325 227 c 0
 329 227 332 229 352 251 c 0
 369 270 371 273 375 280 c 0
 377 284 381 290 384 293 c 0
 387 296 392 302 395 306 c 0
 398 309 400 312 401 312 c 0
 402 312 404 316 407 320 c 0
 409 324 417 334 424 341 c 0
 442 360 451 371 458 380 c 0
 463 388 465 390 479 405 c 0
 497 426 501 431 503 432 c 0
 504 433 506 436 507 438 c 0
 511 452 512 445 514 390 c 0
 515 350 516 329 517 327 c 1
 517 327 517 325 516 324 c 0
 515 323 515 315 515 298 c 1
 516 285 516 271 516 268 c 2
 516 260 l 2
 516 258 518 172 518 165 c 2
 518 126 l 2
 518 107 517 89 517 85 c 2
 517 76 l 2
 517 74 518 15 519 7 c 1
 519 -2 527 -4 568 -3 c 0
 575 -3 586 0 588 2 c 0
 591 5 592 45 591 87 c 0
 590 111 590 127 591 129 c 0
 591 130 591 133 590 134 c 0
 589 136 589 138 591 142 c 0
 592 144 592 147 592 148 c 0
 591 149 592 151 593 152 c 0
 594 154 594 155 591 161 c 0
 588 168 588 168 591 173 c 0
 593 177 593 178 592 180 c 1
 590 181 590 188 590 202 c 2
 590 225 l 1
 589 253 588 279 589 310 c 0
 589 331 589 353 588 360 c 1
 588 381 l 1
 589 387 589 394 589 398 c 0
 589 401 589 405 590 405 c 0
 592 407 592 412 589 418 c 0
 587 424 587 432 588 449 c 0
 589 464 590 488 589 489 c 0
 588 490 588 505 588 523 c 0
 588 554 586 583 584 585 c 0
 583 586 555 586 537 585 c 0
 523 584 518 582 516 578 c 0
EndSplineSet
EndChar

StartChar: uni004E
Encoding: 78 78 18
Width: 607
Flags: MW
VStem: 46 83<25 145 107 108.5 163 175 175 189 189 210 58 244> 49 112<508.5 523> 489 73<236 245 245 246.5>
LayerCount: 2
Fore
SplineSet
46.0498 -1.20117 m 0xa0
 42.8408 4.25391 49 12 47 15 c 0
 46 18 46 22 46 28 c 1
 47 33 47 40 47 43 c 0
 46 46 46 51 47 55 c 1
 47 61 47 80 46 107 c 0
 46 110 47 113 47 115 c 0
 47 117 46 126 45 136 c 0
 44 152 44 155 46 163 c 0
 48 172 48 172 46 175 c 1
 43 177 43 212 46 244 c 1
 46 267 l 2
 46 277 46 287 47 290 c 1
 47 325 l 1
 46 342 46 364 46 374 c 2
 46 398 l 2xa0
 46 418 47 447 48 449 c 1
 50 450 50 463 48 463 c 0
 47 463 47 466 47 470 c 1
 48 473 48 477 47 478 c 0
 46 479 45 485 45 491 c 0
 44 506 45 507 47 507 c 0
 48 507 49 508 49 509 c 0
 49 510 48 511 48 511 c 2
 47 511 46 512 47 514 c 0
 48 517 50 546 49 553 c 0
 48 572 51 578 59 578 c 0
 61 578 63 579 64 579 c 0
 65 582 103 580 109 578 c 1
 116 574 151 540 153 534 c 0
 154 531 156 528 158 527 c 0
 160 525 161 523 161 523 c 2x60
 161 522 166 517 172 511 c 0
 178 505 185 496 188 491 c 0
 192 486 199 477 205 471 c 0
 211 465 216 459 216 458 c 2
 216 458 218 455 221 451 c 0
 224 448 227 445 227 444 c 0
 227 443 229 440 231 438 c 0
 240 429 252 415 254 410 c 1
 256 408 261 401 266 395 c 0
 271 390 277 383 279 379 c 0
 281 375 289 366 296 358 c 0
 304 349 310 343 310 340 c 0
 311 337 316 330 340 305 c 0
 344 301 349 295 350 293 c 0
 352 290 355 285 358 283 c 0
 368 274 382 258 385 252 c 0
 386 249 390 244 393 240 c 0
 396 237 402 231 406 226 c 0
 409 221 413 217 413 217 c 2
 414 217 415 215 415 213 c 0
 416 211 419 207 423 204 c 0
 426 201 432 194 436 189 c 0
 441 184 446 178 448 176 c 0
 450 173 452 170 453 168 c 0
 454 163 485 131 487 133 c 0
 489 134 489 157 489 197 c 2
 489 213 l 1
 489 233 l 1
 489 245 l 2
 489 248 489 287 488 330 c 0
 486 566 486 574 490 577 c 0
 494 579 499 580 504 578 c 0
 507 577 518 576 532 576 c 0
 556 576 557 576 557 570 c 0
 557 568 558 549 558 528 c 0
 559 507 559 462 560 428 c 0
 560 394 560 349 561 328 c 0
 561 308 562 289 562 287 c 2
 562 236 l 1
 563 212 563 188 563 183 c 2
 563 90 l 2
 563 68 563 48 562 44 c 1
 562 35 l 1
 564 32 564 17 562 7 c 0
 560 -5 562 -4 528 -5 c 1
 503 -5 l 1
 495 3 l 2
 485 13 482 18 481 22 c 0
 480 24 475 30 470 35 c 0
 464 41 458 48 457 52 c 0
 456 55 447 65 437 75 c 0
 420 94 413 102 413 104 c 0
 413 105 408 111 403 116 c 0
 397 122 390 130 388 133 c 0
 385 136 382 141 381 142 c 0
 379 144 376 147 375 150 c 1
 373 152 364 163 354 172 c 1
 345 182 335 193 332 197 c 0
 328 205 315 218 297 236 c 0
 292 241 289 245 289 246 c 0
 290 247 289 248 288 249 c 0
 287 249 286 250 286 252 c 0
 286 253 283 257 279 261 c 0
 275 265 270 272 267 276 c 0
 264 280 261 285 259 287 c 0
 248 297 231 316 231 319 c 0
 231 321 221 332 219 332 c 0
 218 332 217 333 217 334 c 0
 217 335 213 340 209 345 c 0
 204 350 200 354 200 355 c 0
 200 356 199 358 197 360 c 0
 195 362 192 365 191 367 c 0
 190 369 183 378 175 386 c 0
 166 395 159 404 159 406 c 0
 158 411 142 427 140 425 c 0
 138 421 134 424 135 429 c 0
 136 431 135 433 135 433 c 1
 134 433 133 432 133 430 c 0
 133 429 133 428 132 428 c 0
 131 428 131 427 132 425 c 0
 133 423 132 421 131 420 c 0
 129 418 127 351 129 348 c 0
 130 347 130 344 129 341 c 0
 128 337 128 332 129 329 c 0
 130 326 129 320 129 315 c 0
 128 310 128 305 129 303 c 0
 129 302 130 295 130 289 c 0
 129 283 130 278 131 278 c 1
 131 275 l 1
 130 274 130 260 129 210 c 1
 129 189 l 1
 129 145 l 1
 129 58 l 1
 130 -7 130 -3 118 -4 c 0
 87 -5 78 -6 76 -7 c 1
 75 -9 73 -8 70 -6 c 0
 68 -5 64 -4 63 -4 c 0
 61 -3 59 -3 57 -2 c 0
 55 -1 48.2207 -4.8916 46.0498 -1.20117 c 0xa0
EndSplineSet
EndChar

StartChar: O
Encoding: 79 79 19
Width: 650
Flags: MW
HStem: -18 78<306 311> -11 72<373 398> -1 74<243.5 255.5> 13 74<206.5 223> 468 85<199 204> 484 75<213.5 230.5> 494 74<409 410> 504 72<275 289.5> 508 72
VStem: 29 83<230 318> 41 76<358.5 374> 64 68<144 178> 74 58<128 178> 509 99<139.5 161> 529 78<390.5 394.5> 536 83<356 377.5> 547 67<175 206.5> 557 68
LayerCount: 2
Fore
SplineSet
286 -12 m 0x2008
 291 -13 297 -15 299 -16 c 0
 302 -17 305 -18 307 -18 c 0x8008
 309 -18 313 -19 316 -19 c 0
 320 -20 326 -21 331 -21 c 1
 335 -22 342 -21 345 -22 c 0
 354 -23 370 -15 384 -13 c 0
 392 -11 398 -11 398 -11 c 1
 399 -12 401 -11 403 -10 c 0
 404 -9 410 -7 415 -7 c 1
 419 -6 424 -5 425 -4 c 0
 426 -3 428 -2 429 -2 c 0
 430 -2 434 -1 437 1 c 0
 438 1 443 3 446 5 c 0
 450 7 457 10 462 12 c 0
 467 14 473 17 476 18 c 0
 479 20 482 21 483 21 c 2
 489 25 l 1
 491 28 495 29 496 29 c 0
 498 29 502 33 513 42 c 0
 517 46 523 51 526 53 c 0
 534 57 563 87 564 91 c 0
 565 93 569 99 573 104 c 0
 578 110 583 117 585 120 c 1
 586 124 591 131 595 137 c 0
 598 143 601 148 601 148 c 1
 601 148 603 151 605 153 c 0
 607 155 608 159 608 160 c 0x400c
 608 162 610 166 611 168 c 0
 613 171 614 174 614 176 c 0x400080
 614 177 615 180 616 181 c 0
 617 183 618 186 618 188 c 0
 618 190 619 192 620 194 c 0
 629 208 634 293 626 329 c 0
 626 333 625 338 625 340 c 0x400040
 625 342 624 345 622 347 c 1
 621 350 619 354 619 358 c 0x4001
 619 362 619 365 618 366 c 0
 617 367 615 373 613 380 c 0
 610 387 608 393 607 394 c 0
 607 395 605 398 604 402 c 0
 602 406 601 409 600 409 c 2
 600 409 598 412 597 415 c 0
 596 418 594 422 593 423 c 0
 592 424 590 428 588 431 c 1
 587 435 583 440 580 443 c 0
 577 446 574 451 572 454 c 0
 568 463 520 512 506 522 c 0
 503 524 494 529 487 533 c 0
 480 536 473 540 472 542 c 0
 467 546 434 562 432 561 c 0
 431 560 429 561 427 562 c 0
 426 563 423 564 421 564 c 0
 419 564 416 565 415 566 c 0
 414 567 412 568 410 568 c 0x4202
 408 568 404 569 402 571 c 0
 400 572 396 573 392 573 c 0
 389 573 385 573 383 574 c 0
 381 576 375 576 369 577 c 0
 363 577 358 578 356 578 c 1
 353 580 325 581 305 580 c 0x0082
 298 579 290 578 290 578 c 2
 289 577 283 576 278 576 c 0x0102
 272 576 266 575 265 574 c 0
 263 573 260 572 258 572 c 0
 256 572 252 571 249 570 c 0
 246 569 241 568 239 567 c 0
 226 564 223 563 220 561 c 0
 219 560 216 559 214 559 c 0x0402
 213 559 210 557 207 556 c 1
 205 554 202 553 200 553 c 0
 198 553 196 552 194 550 c 2
 186 546 l 2
 183 545 179 543 177 541 c 0
 175 539 171 536 167 534 c 0
 163 532 157 528 154 526 c 0
 150 523 145 520 142 518 c 0
 133 514 79 457 79 452 c 0
 79 451 78 448 76 446 c 0
 74 443 71 439 70 436 c 0
 68 433 66 429 64 426 c 0x0812
 60 420 50 399 50 396 c 0
 50 395 49 393 48 391 c 1
 46 390 46 387 46 386 c 0
 46 384 45 382 44 380 c 0
 43 379 41 375 41 373 c 0x0820
 39 362 37 355 36 354 c 0
 34 351 31 333 29 318 c 0
 28 306 28 262 29 260 c 0x0840
 30 260 31 254 31 248 c 0
 31 242 33 234 34 230 c 0
 35 227 36 220 37 215 c 0
 37 210 38 206 39 204 c 0
 40 203 42 200 43 197 c 0
 44 190 49 174 52 169 c 0
 53 166 55 162 56 159 c 0
 57 157 59 153 61 151 c 0
 62 150 64 147 64 145 c 0x0810
 64 143 66 139 69 136 c 0
 71 133 74 130 74 129 c 0
 74 127 81 117 87 109 c 1
 91 106 94 101 95 99 c 0
 100 89 122 66 134 58 c 0
 137 56 139 54 139 53 c 2
 139 53 142 51 146 49 c 0
 150 46 156 42 160 39 c 0
 164 35 170 31 174 29 c 0
 179 27 183 24 185 22 c 0
 186 21 189 20 191 20 c 0
 193 20 196 18 199 16 c 0
 202 14 206 13 207 13 c 0x1808
 209 13 211 11 213 10 c 0
 215 8 217 7 219 7 c 1
 220 8 223 7 224 6 c 0
 226 5 228 4 230 4 c 0
 231 4 234 3 237 1 c 0
 240 0 243 -1 244 -1 c 0
 245 -1 250 -3 256 -5 c 0
 272 -10 277 -11 286 -12 c 0x2008
372 505 m 0
 377 504 380 503 381 502 c 2
 381 502 383 501 385 501 c 0
 388 501 391 500 392 499 c 0
 394 498 397 497 398 498 c 0
 399 498 401 497 403 496 c 0
 405 495 408 494 409 494 c 0x0220
 411 494 415 493 417 491 c 1
 420 490 423 489 424 489 c 0
 425 489 429 487 431 485 c 0
 433 484 438 481 440 480 c 0
 443 479 447 477 449 475 c 0
 451 473 455 470 459 468 c 0
 468 464 502 432 509 421 c 0x0824
 512 417 517 409 521 404 c 0
 525 398 529 393 529 391 c 0x0802
 529 390 530 386 532 384 c 0
 534 381 536 378 536 377 c 0x0801
 536 376 537 373 538 370 c 1
 540 368 541 365 540 365 c 2
 540 365 541 363 543 360 c 0
 544 358 546 353 547 351 c 0x080080
 548 348 549 343 550 341 c 0
 553 330 556 307 557 295 c 0x080040
 559 273 558 249 556 243 c 0
 555 240 554 238 555 237 c 0
 556 236 551 217 549 213 c 0
 548 211 547 207 547 206 c 0x080080
 547 204 546 202 545 200 c 0
 544 199 541 194 539 188 c 0
 535 177 528 164 521 157 c 0
 513 148 509 142 509 141 c 0
 509 138 483 112 478 110 c 0
 475 109 470 105 467 102 c 0
 460 94 448 85 445 85 c 0
 444 85 441 85 439 83 c 0
 435 81 428 79 421 77 c 0
 419 76 415 75 412 73 c 0x2804
 409 71 405 70 404 70 c 0
 403 70 401 69 400 68 c 0
 399 67 394 66 390 65 c 1
 385 65 379 63 378 62 c 0
 376 61 374 60 373 61 c 1x4004
 373 61 367 61 359 59 c 0
 345 57 334 57 325 58 c 0
 322 59 315 59 311 60 c 1x8004
 306 60 300 61 296 62 c 0
 293 62 289 63 287 63 c 0
 285 63 282 64 279 65 c 0
 277 66 271 68 266 69 c 0
 262 69 258 71 258 72 c 2
 258 72 257 73 254 73 c 0x2004
 251 72 237 79 229 85 c 0
 227 86 224 87 222 87 c 0
 220 87 216 89 213 92 c 0
 210 96 205 99 202 100 c 1
 198 100 196 102 196 104 c 1
 195 105 194 106 193 106 c 0
 191 106 185 112 158 138 c 0
 154 141 149 147 148 150 c 0
 146 153 142 160 139 165 c 0
 135 170 132 175 132 177 c 0x1014
 132 179 132 181 131 181 c 0
 130 181 129 183 128 185 c 0
 122 197 120 203 120 204 c 0
 120 205 119 207 118 209 c 0
 117 211 115 216 115 220 c 0
 114 224 113 229 112 230 c 1x1040
 112 232 111 234 111 236 c 0
 110 238 109 245 108 251 c 0
 107 257 106 263 107 264 c 1
 107 264 106 267 105 269 c 0
 103 274 103 290 105 307 c 0
 105 310 106 316 106 319 c 0
 106 323 107 327 108 329 c 0
 109 331 110 334 109 335 c 0
 109 336 110 342 113 347 c 1
 115 353 117 358 117 359 c 0
 117 360 118 364 120 367 c 0
 124 375 131 390 131 391 c 0
 131 392 133 394 135 397 c 0
 137 400 141 406 144 411 c 0
 150 421 184 456 188 456 c 1
 188 456 192 459 195 462 c 0
 199 465 203 468 204 468 c 2x1820
 204 468 206 469 207 470 c 0
 208 472 211 474 213 475 c 0
 215 476 220 478 223 480 c 0
 226 483 229 484 230 484 c 0x0420
 231 484 234 486 236 487 c 0
 239 489 242 490 243 490 c 0
 244 490 248 491 252 493 c 0
 256 495 262 497 265 498 c 0
 275 501 283 503 288 504 c 0x0120
 291 504 295 506 297 506 c 1
 298 507 303 508 307 508 c 0x00a0
 311 508 315 508 315 509 c 0
 316 510 356 508 360 507 c 0
 362 506 368 505 372 505 c 0
EndSplineSet
EndChar

StartChar: P
Encoding: 80 80 20
Width: 385
Flags: MW
HStem: 251 68 508 66 516 61
VStem: 44 73<16 70 42 115> 270 71<462.5 493.5> 279 78
LayerCount: 2
Fore
SplineSet
263 266 m 0xb4
 264.338 266.459 277 280 279 280 c 0
 280 280 284 282 287 285 c 1
 291 287 297 290 300 292 c 0
 317 300 343 335 349 356 c 0
 350 361 351 365 352 367 c 0
 353 368 354 372 354 375 c 0
 355 379 356 384 357 386 c 0xb4
 360 395 359 438 355 453 c 0
 351 467 351 470 350 474 c 0
 349 476 347 481 345 484 c 0
 343 487 341 490 341 492 c 0xb8
 341 495 325 516 321 518 c 0
 320 519 318 521 318 523 c 0
 317 528 310 533 305 534 c 0
 301 535 297 537 291 543 c 0
 285 549 282 552 279 552 c 0
 276 552 271 555 271 557 c 0
 271 559 261 563 255 563 c 0
 251 563 247 564 245 565 c 0
 244 566 241 567 239 567 c 0
 237 567 234 568 233 569 c 0
 231 571 224 573 214 573 c 0
 210 573 206 573 205 574 c 0xd4
 204 575 199 575 195 576 c 0
 191 576 187 576 185 577 c 0
 182 579 106 579 70 578 c 0
 46 577 40 576 40 569 c 0
 40 567 39 565 39 565 c 2
 38 564 37 563 38 562 c 0
 39 559 39 543 40 426 c 0
 41 395 41 369 42 369 c 1
 42 325 l 1
 41 263 41 249 43 234 c 0
 44 228 44 208 44 191 c 2
 44 159 l 1
 41 154 l 2
 36 147 36 142 40 138 c 0
 42 136 43 133 43 127 c 0
 43 123 43 117 44 115 c 1
 44 110 45 91 46 59 c 0
 46 54 46 47 45 43 c 0
 44 34 44 35 44 16 c 0
 45 -4 45 -5 59 -3 c 0
 65 -2 79 -2 91 -2 c 0
 107 -2 112 -1 114 0 c 1
 116 3 117 23 117 61 c 0
 117 79 117 92 118 94 c 0
 119 96 119 98 118 100 c 0
 115 107 116 246 119 249 c 0
 122 252 137 253 139 251 c 0
 139 250 144 249 150 249 c 1
 152 250 164 251 176 251 c 0
 200 251 216 248 221 253 c 1
 232.671 257.636 244.761 259.748 263 266 c 0xb4
201 511 m 0
 205 511 210 509 212 508 c 0
 214 507 216 507 216 508 c 1
 217 508 220 507 222 506 c 0
 224 505 227 504 230 503 c 0
 235 502 270 468 270 463 c 0xd8
 270 462 271 458 273 455 c 0
 276 451 277 449 278 440 c 0
 278 434 278 425 279 419 c 0
 280 404 273 371 268 364 c 0
 266 362 264 358 262 356 c 0
 258 349 238 332 233 331 c 0
 230 331 227 329 226 328 c 0
 221 323 203 321 179 321 c 0
 167 321 155 320 153 319 c 0
 148 317 123 320 118 322 c 0
 116 323 116 327 116 355 c 0
 116 372 116 413 115 447 c 0
 114 521 112 514 134 515 c 0
 144 515 151 515 151 516 c 1
 152 516 179 515 186 514 c 0
 190 513 197 512 201 511 c 0
EndSplineSet
EndChar

StartChar: uni0051
Encoding: 81 81 21
Width: 700
Flags: W
LayerCount: 2
Fore
SplineSet
311 578 m 2
 310 577 304 576 299 576 c 0
 293 576 287 575 286 574 c 0
 284 573 281 572 279 572 c 0
 277 572 273 571 270 570 c 0
 267 569 262 568 260 567 c 0
 247 564 244 563 241 561 c 0
 240 560 237 559 235 559 c 0
 234 559 231 557 228 556 c 1
 226 554 223 553 221 553 c 0
 219 553 217 552 215 550 c 2
 207 546 l 2
 204 545 200 543 198 541 c 0
 196 539 192 536 188 534 c 0
 184 532 178 528 175 526 c 0
 171 523 166 520 163 518 c 0
 154 514 100 457 100 452 c 0
 100 451 99 448 97 446 c 0
 95 443 92 439 91 436 c 0
 89 433 87 429 85 426 c 0
 81 420 71 399 71 396 c 0
 71 395 70 393 69 391 c 1
 67 390 67 387 67 386 c 0
 67 384 66 382 65 380 c 0
 64 379 62 375 62 373 c 0
 60 362 58 355 57 354 c 0
 55 351 52 333 50 318 c 0
 49 306 49 262 50 260 c 0
 51 260 52 254 52 248 c 0
 52 242 54 234 55 230 c 0
 56 227 57 220 58 215 c 0
 58 210 59 206 60 204 c 0
 61 203 63 200 64 197 c 0
 65 190 70 174 73 169 c 0
 74 166 76 162 77 159 c 0
 78 157 80 153 82 151 c 0
 83 150 85 147 85 145 c 0
 85 143 87 139 90 136 c 0
 92 133 95 130 95 129 c 0
 95 127 102 117 108 109 c 1
 112 106 115 101 116 99 c 0
 121 89 143 66 155 58 c 0
 158 56 160 54 160 53 c 2
 160 53 163 51 167 49 c 0
 171 46 177 42 181 39 c 0
 185 35 191 31 195 29 c 0
 200 27 204 24 206 22 c 0
 207 21 210 20 212 20 c 0
 214 20 217 18 220 16 c 0
 223 14 227 13 228 13 c 0
 230 13 232 11 234 10 c 0
 236 8 238 7 240 7 c 1
 241 8 244 7 245 6 c 0
 247 5 249 4 251 4 c 0
 252 4 255 3 258 1 c 0
 261 0 264 -1 265 -1 c 0
 266 -1 271 -3 277 -5 c 0
 293 -10 298 -11 307 -12 c 0
 316 -12 323 -16 332 -23 c 0
 335 -26 339 -28 340 -28 c 0
 342 -28 347 -31 351 -34 c 0
 355 -38 360 -41 362 -41 c 0
 363 -41 366 -42 368 -44 c 0
 371 -46 379 -51 387 -55 c 0
 395 -59 407 -65 414 -68 c 1
 420 -72 426 -75 427 -75 c 0
 430 -75 444 -81 448 -83 c 0
 450 -84 453 -85 455 -85 c 0
 456 -85 460 -87 462 -88 c 0
 465 -90 468 -91 468 -91 c 2
 469 -91 481 -94 484 -95 c 0
 486 -96 509 -100 529 -103 c 0
 546 -106 553 -106 558 -104 c 0
 559 -103 562 -102 563 -102 c 0
 564 -102 568 -100 571 -98 c 0
 574 -96 578 -94 579 -94 c 0
 582 -94 597 -80 597 -78 c 0
 597 -77 600 -74 603 -71 c 0
 606 -69 610 -65 611 -64 c 0
 612 -63 615 -59 618 -57 c 0
 622 -53 629 -40 629 -37 c 0
 629 -34 625 -34 618 -35 c 0
 615 -36 609 -37 605 -37 c 0
 591 -38 586 -39 583 -40 c 1
 581 -42 579 -42 574 -41 c 0
 570 -40 564 -39 561 -39 c 0
 551 -38 521 -33 518 -32 c 0
 510 -29 505 -28 502 -28 c 0
 501 -28 498 -27 497 -25 c 0
 496 -24 492 -22 489 -22 c 1
 481 -18 l 2
 479 -16 476 -14 473 -13 c 0
 462 -9 452 1 458 1 c 0
 459 1 464 3 467 5 c 0
 471 7 478 10 483 12 c 0
 488 14 494 17 497 18 c 0
 500 20 503 21 504 21 c 2
 510 25 l 1
 512 28 516 29 517 29 c 0
 519 29 523 33 534 42 c 0
 538 46 544 51 547 53 c 0
 555 57 584 87 585 91 c 0
 586 93 590 99 594 104 c 0
 599 110 604 117 606 120 c 1
 607 124 612 131 616 137 c 0
 619 143 622 148 622 148 c 1
 622 148 624 151 626 153 c 0
 628 155 629 159 629 160 c 0
 629 162 631 166 632 168 c 0
 634 171 635 174 635 176 c 0
 635 177 636 180 637 181 c 0
 638 183 639 186 639 188 c 0
 639 190 640 192 641 194 c 0
 650 208 655 293 647 329 c 0
 647 333 646 338 646 340 c 0
 646 342 645 345 643 347 c 1
 642 350 640 354 640 358 c 0
 640 362 640 365 639 366 c 0
 638 367 636 373 634 380 c 0
 631 387 629 393 628 394 c 0
 628 395 626 398 625 402 c 0
 623 406 622 409 621 409 c 2
 621 409 619 412 618 415 c 0
 617 418 615 422 614 423 c 0
 613 424 611 428 609 431 c 1
 608 435 604 440 601 443 c 0
 598 446 595 451 593 454 c 0
 589 463 541 512 527 522 c 0
 524 524 515 529 508 533 c 0
 501 536 494 540 493 542 c 0
 488 546 455 562 453 561 c 0
 452 560 450 561 448 562 c 0
 447 563 444 564 442 564 c 0
 440 564 437 565 436 566 c 0
 435 567 433 568 431 568 c 0
 429 568 425 569 423 571 c 0
 421 572 417 573 413 573 c 0
 410 573 406 573 404 574 c 0
 402 576 396 576 390 577 c 0
 384 577 379 578 377 578 c 1
 374 580 346 581 326 580 c 0
 319 579 311 578 311 578 c 2
393 505 m 0
 398 504 401 503 402 502 c 2
 402 502 404 501 406 501 c 0
 409 501 412 500 413 499 c 0
 415 498 418 497 419 498 c 0
 420 498 422 497 424 496 c 0
 426 495 429 494 430 494 c 0
 432 494 436 493 438 491 c 1
 441 490 444 489 445 489 c 0
 446 489 450 487 452 485 c 0
 454 484 459 481 461 480 c 0
 464 479 468 477 470 475 c 0
 472 473 476 470 480 468 c 0
 489 464 523 432 530 421 c 0
 533 417 538 409 542 404 c 0
 546 398 550 393 550 391 c 0
 550 390 551 386 553 384 c 0
 555 381 557 378 557 377 c 0
 557 376 558 373 559 370 c 1
 561 368 562 365 561 365 c 2
 561 365 562 363 564 360 c 0
 565 358 567 353 568 351 c 0
 569 348 570 343 571 341 c 0
 574 330 577 307 578 295 c 0
 580 273 579 249 577 243 c 0
 576 240 575 238 576 237 c 0
 577 236 572 217 570 213 c 0
 569 211 568 207 568 206 c 0
 568 204 567 202 566 200 c 0
 565 199 562 194 560 188 c 0
 556 177 549 164 542 157 c 0
 534 148 530 142 530 141 c 0
 530 138 504 112 499 110 c 0
 496 109 491 105 488 102 c 0
 481 94 469 85 466 85 c 0
 465 85 462 85 460 83 c 0
 456 81 449 79 442 77 c 0
 440 76 436 75 433 73 c 0
 430 71 426 70 425 70 c 0
 424 70 422 69 421 68 c 0
 420 67 415 66 411 65 c 1
 406 65 400 63 399 62 c 0
 397 61 395 60 394 61 c 1
 394 61 388 61 380 59 c 0
 366 57 355 57 346 58 c 0
 343 59 336 59 332 60 c 1
 327 60 321 61 317 62 c 0
 314 62 310 63 308 63 c 0
 306 63 303 64 300 65 c 0
 298 66 292 68 287 69 c 0
 283 69 279 71 279 72 c 2
 279 72 278 73 275 73 c 0
 272 72 258 79 250 85 c 0
 248 86 245 87 243 87 c 0
 241 87 237 89 234 92 c 0
 231 96 226 99 223 100 c 1
 219 100 217 102 217 104 c 1
 216 105 215 106 214 106 c 0
 212 106 206 112 179 138 c 0
 175 141 170 147 169 150 c 0
 167 153 163 160 160 165 c 0
 156 170 153 175 153 177 c 0
 153 179 153 181 152 181 c 0
 151 181 150 183 149 185 c 0
 143 197 141 203 141 204 c 0
 141 205 140 207 139 209 c 0
 138 211 136 216 136 220 c 0
 135 224 134 229 133 230 c 1
 133 232 132 234 132 236 c 0
 131 238 130 245 129 251 c 0
 128 257 127 263 128 264 c 1
 128 264 127 267 126 269 c 0
 124 274 124 290 126 307 c 0
 126 310 127 316 127 319 c 0
 127 323 128 327 129 329 c 0
 130 331 131 334 130 335 c 0
 130 336 131 342 134 347 c 1
 136 353 138 358 138 359 c 0
 138 360 139 364 141 367 c 0
 145 375 152 390 152 391 c 0
 152 392 154 394 156 397 c 0
 158 400 162 406 165 411 c 0
 171 421 205 456 209 456 c 1
 209 456 213 459 216 462 c 0
 220 465 224 468 225 468 c 2
 225 468 227 469 228 470 c 0
 229 472 232 474 234 475 c 0
 236 476 241 478 244 480 c 0
 247 483 250 484 251 484 c 0
 252 484 255 486 257 487 c 0
 260 489 263 490 264 490 c 0
 265 490 269 491 273 493 c 0
 277 495 283 497 286 498 c 0
 296 501 304 503 309 504 c 0
 312 504 316 506 318 506 c 1
 319 507 324 508 328 508 c 0
 332 508 336 508 336 509 c 0
 337 510 377 508 381 507 c 0
 383 506 389 505 393 505 c 0
EndSplineSet
EndChar

StartChar: uni0052
Encoding: 82 82 22
Width: 483
Flags: MW
HStem: 242 79<187 189.5> 251 68 508 66 516 61
VStem: 48 73<16 70 42 115> 274 71<462.5 493.5> 283 78 303 91<112 119> 365 64<19 64>
LayerCount: 2
Fore
SplineSet
44 569 m 0x1a
 44 567 43 565 43 565 c 2
 42 564 41 563 42 562 c 0
 43 559 43 543 44 426 c 0
 45 395 45 369 46 369 c 1
 46 325 l 1
 45 263 45 249 47 234 c 0
 48 228 48 208 48 191 c 2
 48 159 l 1
 45 154 l 2
 40 147 40 142 44 138 c 0
 46 136 47 133 47 127 c 0
 47 123 47 117 48 115 c 1
 48 110 49 91 50 59 c 0
 50 54 50 47 49 43 c 0
 48 34 48 35 48 16 c 0
 49 -4 49 -5 63 -3 c 0
 69 -2 83 -2 95 -2 c 0
 111 -2 116 -1 118 0 c 1
 120 3 121 23 121 61 c 0
 121 79 121 92 122 94 c 0
 123 96 123 98 122 100 c 0
 119 107 120 246 123 249 c 0
 126 252 141 253 143 251 c 0x5a
 143 250 148 249 154 249 c 0
 164 250 177 247 182 244 c 0
 183 243 186 242 188 242 c 0
 191 242 205 232 209 228 c 0
 210 226 212 225 214 225 c 0
 218 225 256 187 261 178 c 0
 264 174 269 167 272 162 c 1
 276 158 280 153 281 151 c 0
 282 149 284 146 286 144 c 0
 290 140 303 120 303 118 c 0x89
 303 117 304 116 305 115 c 0
 307 114 309 110 310 107 c 0
 312 103 315 98 317 95 c 0
 322 88 331 76 331 74 c 1
 331 74 333 71 336 69 c 1
 338 66 342 61 343 57 c 0
 345 53 347 49 348 48 c 0
 349 46 351 43 352 41 c 0
 353 38 356 33 359 30 c 0
 362 27 365 23 365 21 c 0
 365 17 376 2 382 -1 c 0
 387 -4 390 -4 426 -4 c 0
 473 -3 475 -2 461 11 c 0
 456 16 454 19 454 21 c 0
 454 24 452 27 449 30 c 0
 447 33 443 39 440 44 c 0
 438 49 434 54 432 56 c 0
 430 58 429 61 429 63 c 0x8880
 429 65 427 69 423 73 c 0
 417 79 416 81 411 89 c 0
 410 91 406 97 401 101 c 1
 397 106 394 111 394 113 c 0x89
 394 115 391 119 388 123 c 0
 385 126 381 133 378 137 c 1
 376 142 372 148 371 151 c 0
 369 154 366 159 363 162 c 0
 360 166 357 171 356 173 c 0
 354 176 353 178 352 178 c 0
 351 178 349 181 347 184 c 0
 345 187 342 193 339 196 c 0
 336 200 332 205 329 208 c 0
 320 220 293 249 278 262 c 0
 273 266 269 270 269 271 c 0
 270 272 281 280 283 280 c 0
 284 280 288 282 291 285 c 1
 295 287 301 290 304 292 c 0
 321 300 347 335 353 356 c 0
 354 361 355 365 356 367 c 0
 357 368 358 372 358 375 c 0
 359 379 360 384 361 386 c 0x8a
 364 395 363 438 359 453 c 0
 355 467 355 470 354 474 c 0
 353 476 351 481 349 484 c 0
 347 487 345 490 345 492 c 0x8c
 345 495 329 516 325 518 c 0
 324 519 322 521 322 523 c 0
 321 528 314 533 309 534 c 0
 305 535 301 537 295 543 c 0
 289 549 286 552 283 552 c 0
 280 552 275 555 275 557 c 0
 275 559 265 563 259 563 c 0
 255 563 251 564 249 565 c 0
 248 566 245 567 243 567 c 0
 241 567 238 568 237 569 c 0
 235 571 228 573 218 573 c 0
 214 573 210 573 209 574 c 0xaa
 208 575 203 575 199 576 c 0
 195 576 191 576 189 577 c 0
 186 579 110 579 74 578 c 0
 50 577 44 576 44 569 c 0x1a
205 511 m 0
 209 511 214 509 216 508 c 0
 218 507 220 507 220 508 c 1
 221 508 224 507 226 506 c 0
 228 505 231 504 234 503 c 0
 239 502 274 468 274 463 c 0x2c
 274 462 275 458 277 455 c 0
 280 451 281 449 282 440 c 0
 282 434 282 425 283 419 c 0
 284 404 277 371 272 364 c 0
 270 362 268 358 266 356 c 0
 262 349 242 332 237 331 c 0
 234 331 231 329 230 328 c 0
 225 323 207 321 183 321 c 0xaa
 171 321 159 320 157 319 c 0
 152 317 127 320 122 322 c 0
 120 323 120 327 120 355 c 0
 120 372 120 413 119 447 c 0
 118 521 116 514 138 515 c 0
 148 515 155 515 155 516 c 1
 156 516 183 515 190 514 c 0
 194 513 201 512 205 511 c 0
EndSplineSet
EndChar

StartChar: uni0053
Encoding: 83 83 23
Width: 386
Flags: W
LayerCount: 2
Fore
SplineSet
137 577 m 0
 134 576 130 575 128 574 c 1
 125 574 121 573 120 572 c 0
 118 571 116 570 114 570 c 0
 113 570 110 568 107 567 c 1
 105 565 102 563 100 562 c 0
 89 559 49 518 49 511 c 0
 49 510 48 507 46 505 c 0
 44 503 42 499 42 497 c 0
 42 495 41 492 40 491 c 0
 39 489 38 486 38 484 c 0
 38 482 37 480 36 479 c 0
 25 470 30 396 43 377 c 0
 45 374 46 371 46 370 c 0
 46 369 48 366 51 363 c 2
 55 357 l 1
 55 352 95 311 106 304 c 0
 110 302 115 299 118 297 c 1
 120 294 124 293 126 293 c 0
 128 293 132 290 135 288 c 0
 138 285 141 283 143 283 c 0
 144 283 149 281 153 278 c 0
 157 275 161 273 162 273 c 0
 164 273 167 271 170 269 c 0
 173 266 177 265 179 265 c 0
 180 265 185 262 189 259 c 0
 195 255 201 251 221 241 c 0
 228 238 261 205 263 199 c 2
 267 191 l 2
 268 189 270 184 272 180 c 0
 277 168 278 162 278 146 c 0
 278 134 277 129 275 126 c 0
 274 125 273 122 274 120 c 0
 275 117 272 111 267 108 c 0
 264 106 262 104 262 104 c 1
 262 102 239 83 238 83 c 0
 237 83 233 81 229 79 c 0
 225 77 221 76 219 76 c 0
 218 76 215 74 213 73 c 0
 210 71 208 70 207 71 c 1
 207 71 204 70 202 69 c 0
 195 66 160 65 153 68 c 0
 151 69 146 70 143 71 c 1
 139 71 135 72 134 72 c 0
 132 73 129 74 127 74 c 0
 126 74 123 75 122 77 c 1
 119 79 119 79 114 76 c 0
 110 74 109 74 105 77 c 2
 97 81 l 2
 95 81 92 83 90 85 c 0
 88 86 83 90 79 92 c 0
 75 94 71 97 70 99 c 0
 70 100 66 105 61 109 c 0
 57 112 52 118 50 122 c 0
 42 132 37 137 33 137 c 1
 30 136 l 1
 31 104 l 2
 31 86 31 68 32 66 c 1
 32 63 33 58 33 54 c 0
 34 46 44 36 53 34 c 0
 56 33 60 31 62 29 c 0
 66 25 81 17 84 17 c 0
 85 17 89 15 92 13 c 1
 96 12 103 10 107 9 c 0
 111 9 115 8 116 7 c 0
 116 6 118 6 120 6 c 0
 122 6 125 5 126 4 c 0
 127 4 134 3 141 2 c 0
 148 2 154 1 155 0 c 0
 159 -3 222 -2 226 1 c 0
 228 2 232 3 236 3 c 0
 240 3 244 3 244 4 c 0
 245 5 249 7 253 8 c 0
 258 10 262 12 263 13 c 0
 265 14 268 16 270 17 c 0
 273 18 277 20 279 22 c 0
 281 23 285 26 288 28 c 0
 299 33 326 60 328 68 c 0
 329 70 331 75 334 79 c 0
 336 82 338 86 338 87 c 0
 338 88 339 90 340 92 c 0
 343 96 350 116 350 121 c 0
 350 122 351 125 352 127 c 0
 359 141 357 184 348 202 c 0
 347 204 346 207 346 208 c 0
 346 210 344 214 341 217 c 0
 338 220 336 223 336 225 c 0
 336 227 332 234 328 238 c 0
 327 239 327 241 327 242 c 0
 328 245 321 252 315 256 c 0
 312 257 308 261 305 264 c 0
 302 267 297 272 293 274 c 0
 289 276 282 282 276 288 c 0
 268 295 264 298 262 298 c 0
 260 298 255 301 251 304 c 0
 248 306 242 310 240 311 c 0
 237 312 233 314 231 315 c 1
 230 317 226 318 223 319 c 0
 220 320 216 322 214 324 c 0
 213 326 209 328 206 329 c 0
 203 330 197 333 193 337 c 1
 188 340 184 343 183 343 c 0
 182 343 177 345 173 348 c 0
 169 351 164 353 164 353 c 1
 158 353 117 392 112 403 c 0
 111 405 110 408 109 409 c 0
 105 417 102 443 104 447 c 0
 105 449 106 453 106 457 c 0
 107 470 123 497 134 504 c 0
 136 505 139 507 141 508 c 0
 149 515 181 523 198 522 c 1
 216 522 226 521 232 519 c 1
 236 519 242 517 246 517 c 1
 252 515 268 509 276 504 c 0
 277 503 282 500 287 498 c 0
 295 493 304 485 321 469 c 0
 328 462 331 461 333 464 c 1
 334 468 335 527 333 535 c 0
 332 538 331 543 331 546 c 0
 330 551 321 560 317 560 c 0
 315 560 311 562 308 564 c 0
 305 566 300 569 297 569 c 1
 295 570 292 571 292 571 c 2
 292 572 290 573 289 573 c 0
 288 573 285 574 283 575 c 0
 281 576 277 577 275 576 c 1
 272 576 270 577 269 578 c 0
 268 579 264 580 260 580 c 0
 256 580 252 580 251 581 c 0
 250 582 243 583 235 583 c 1
 228 584 220 584 218 585 c 0
 208 586 183 586 168 584 c 0
 153 582 148 580 137 577 c 0
EndSplineSet
EndChar

StartChar: uni0054
Encoding: 84 84 24
Width: 576
Flags: MW
HStem: 515 66<462 486 457 544>
VStem: 266 74
LayerCount: 2
Fore
SplineSet
47 586 m 0
 45 588 36 588 34 586 c 0
 32 585 33 520 35 517 c 0
 36 516 41 515 52 515 c 0
 73 515 86 514 89 512 c 0
 90 511 91 511 94 513 c 0
 97 515 99 515 101 514 c 0
 103 513 124 513 124 514 c 0
 124 515 142 515 143 514 c 0
 144 513 147 513 151 514 c 1
 163 514 l 1
 167 513 172 513 175 513 c 0
 180 514 219 515 251 516 c 0
 265 516 264 519 264 467 c 0
 264 442 265 422 265 421 c 0
 266 420 266 411 266 401 c 0
 265 391 265 379 265 373 c 1
 266 368 265 363 264 362 c 0
 263 360 263 359 264 356 c 0
 265 354 266 349 266 346 c 0
 266 334 266 306 265 297 c 0
 265 292 265 282 266 274 c 1
 266 255 l 1
 265 252 265 248 267 245 c 0
 268 243 268 239 268 238 c 0
 265 232 265 153 266 71 c 0
 267 41 267 14 267 12 c 0
 267 8 268 6 272 3 c 0
 278 -1 279 -1 309 -1 c 2
 333 -1 l 2
 341 -1 346 11 341 20 c 0
 340 21 340 28 340 37 c 2
 340 56 l 1
 340 78 l 1
 342 101 342 112 341 175 c 0
 340 255 339 270 338 275 c 0
 337 278 337 281 338 282 c 0
 339 283 339 287 339 293 c 0
 338 299 338 306 338 309 c 0
 339 334 338 472 337 502 c 0
 337 515 338 516 348 517 c 1
 369 517 450 515 462 515 c 0
 514 511 538 511 544 515 c 0
 548 517 548 522 548 554 c 2
 548 579 l 1
 542 580 l 2
 534 581 523 582 486 581 c 1
 428 581 301 582 285 584 c 1
 275 584 257 585 243 585 c 0
 186 585 153 586 149 589 c 1
 149 589 148 589 148 588 c 0
 145 584 53 582 47 586 c 0
EndSplineSet
EndChar

StartChar: uni0055
Encoding: 85 85 25
Width: 563
Flags: W
LayerCount: 2
Fore
SplineSet
44 535 m 0
 45 532 45 530 44 524 c 0
 43 519 42 506 42 490 c 0
 43 447 43 379 42 346 c 0
 41 314 41 313 42 300 c 0
 43 290 43 273 43 264 c 0
 43 250 44 223 46 212 c 0
 47 205 48 196 48 192 c 0
 48 189 49 185 50 184 c 0
 51 183 52 175 53 159 c 0
 53 157 55 152 57 148 c 0
 58 145 60 141 60 139 c 0
 60 137 61 134 62 132 c 0
 63 131 64 129 64 127 c 0
 64 126 65 123 67 120 c 0
 69 118 71 113 72 110 c 0
 73 108 75 104 76 103 c 0
 78 101 79 100 79 99 c 0
 79 93 113 57 129 47 c 0
 134 44 141 39 145 36 c 0
 154 29 169 21 173 21 c 0
 175 21 178 19 181 17 c 0
 183 16 186 14 188 14 c 0
 190 14 193 13 195 11 c 0
 197 9 200 9 201 9 c 0
 202 10 204 9 206 8 c 0
 208 7 213 5 217 5 c 0
 222 5 227 4 228 3 c 0
 230 2 245 -1 255 -2 c 0
 275 -4 345 -2 351 1 c 0
 356 3 364 6 368 6 c 1
 370 7 372 8 373 9 c 0
 375 11 377 11 380 11 c 0
 386 10 402 17 410 25 c 0
 412 27 418 30 422 32 c 0
 440 41 467 68 478 87 c 0
 480 91 485 96 492 103 c 0
 497 107 504 124 507 139 c 0
 508 144 510 151 511 153 c 0
 513 159 515 167 515 175 c 0
 515 179 516 184 517 185 c 0
 518 188 518 195 519 248 c 0
 520 280 520 334 520 351 c 1
 519 357 520 363 521 365 c 0
 522 368 522 370 521 371 c 0
 519 375 518 468 519 538 c 0
 520 565 520 569 518 573 c 0
 515 577 509 580 505 579 c 0
 504 578 491 578 476 578 c 2
 449 577 l 1
 449 562 l 2
 449 554 448 545 447 542 c 0
 446 539 446 537 448 534 c 0
 449 532 450 522 450 480 c 0
 451 362 451 309 450 306 c 0
 448 303 448 287 449 242 c 0
 449 223 448 208 446 205 c 0
 445 203 444 198 444 194 c 0
 444 190 443 185 441 183 c 0
 440 181 438 175 437 168 c 0
 435 154 429 139 421 130 c 0
 419 127 415 122 414 120 c 0
 412 114 404 107 399 106 c 0
 397 105 391 101 386 96 c 0
 379 89 375 87 372 87 c 0
 370 87 367 85 364 83 c 0
 361 80 357 78 353 78 c 0
 349 77 344 76 342 76 c 0
 340 76 338 75 336 75 c 0
 334 75 330 74 327 73 c 0
 311 69 285 68 274 72 c 0
 271 73 263 73 257 73 c 0
 238 74 211 82 194 92 c 0
 193 93 190 94 188 94 c 0
 181 96 145 133 145 139 c 0
 145 141 144 143 143 144 c 0
 137 149 128 172 124 195 c 0
 123 199 121 207 120 213 c 0
 118 224 118 232 119 262 c 0
 119 272 119 277 117 279 c 0
 116 281 115 290 115 317 c 2
 115 411 l 1
 114 443 114 478 114 487 c 0
 115 532 114 576 112 578 c 0
 109 581 49 580 45 577 c 0
 41 573 40 543 44 535 c 0
EndSplineSet
EndChar

StartChar: V
Encoding: 86 86 26
Width: 552
Flags: MW
VStem: 52.9473 62.9365<511.219 550.15> 92.9072 72.9268<424.898 443.178> 120.879 62.9375<366.554 403.748> 133.866 76.9229<339.279 355.037> 194.806 81.918<209.994 210.597 209.491 210.684> 215.784 81.9678 227.772 139.86<136.704 137.421> 256.793 85.876<70 70> 264.735 54.9297 320.68 74.9746 387.612 71.9277<390.41 418.082> 409.591 72.9268<454.322 480.762> 429.57 78.9209<529.333 537.117> 446.554 80.5908
LayerCount: 2
Fore
SplineSet
476.724 598.215 m 0x0004
 487.513 599.148 504.762 598.59 515.385 596.963 c 0
 525.475 595.418 527.955 593.108 527.145 586.014 c 0x0004
 526.825 583.224 525.449 578.571 524.026 575.475 c 0
 522.604 572.378 521.191 568.122 520.829 565.834 c 0
 520.469 563.559 519.158 559.74 517.882 557.243 c 0
 516.609 554.753 515.094 549.851 514.485 546.254 c 0
 513.877 542.657 512.295 537.889 510.939 535.564 c 0
 509.599 533.267 508.491 530.646 508.491 529.771 c 0x0008
 508.491 528.896 506.05 521.979 503.097 514.485 c 0
 500.144 506.993 496.775 497.771 495.654 494.105 c 0
 494.523 490.409 492.689 485.623 491.559 483.417 c 0
 490.432 481.219 489.511 478.769 489.511 477.972 c 0
 489.511 477.173 488.615 474.575 487.513 472.178 c 0
 486.41 469.78 485.492 466.265 485.465 464.336 c 0
 485.438 462.438 484.752 459.948 483.966 458.891 c 0
 483.188 457.846 482.518 455.994 482.518 454.896 c 0x0010
 482.518 453.748 481.484 450.649 480.17 447.853 c 0
 478.865 445.077 476.602 438.861 475.075 433.866 c 0
 473.574 428.954 470.333 419.98 467.932 414.086 c 0
 465.531 408.191 463.536 402.617 463.536 401.798 c 0
 463.536 400.991 462.614 398.502 461.538 396.403 c 0
 460.463 394.306 459.54 391.747 459.54 390.859 c 0x0020
 459.54 389.96 457.951 385.964 456.044 382.068 c 0
 454.137 378.172 451.889 371.814 451.099 368.082 c 0
 450.295 364.286 448.938 360.46 448.052 359.49 c 0
 447.175 358.53 446.093 355.444 445.654 352.647 c 0
 445.216 349.851 444.111 346.403 443.207 345.005 c 0
 442.3 343.604 440.907 339.111 440.11 335.015 c 0
 439.312 330.919 438.167 326.629 437.562 325.475 c 0
 436.959 324.322 435.136 317.232 433.517 309.74 c 0
 431.336 299.65 429.845 295.064 427.783 292.107 c 0
 420.474 281.627 419.444 279.32 411.511 255.645 c 2
 407.393 243.356 l 1
 409.475 241.159 l 2
 412.433 238.037 412.188 237.348 407.192 234.728 c 0
 402.997 232.526 400.6 229.271 400.6 225.774 c 0
 400.6 224.84 399.498 222.277 398.152 220.08 c 0
 396.806 217.882 395.682 215.185 395.654 214.086 c 0x0040
 395.628 213.01 394.659 210.29 393.557 208.191 c 0
 392.423 206.035 391.085 201.798 390.56 198.701 c 0
 390.034 195.604 388.474 190.899 387.062 188.162 c 0
 384.85 183.866 384.673 182.843 385.714 180.369 c 0
 386.789 177.817 386.588 177.073 383.767 173.177 c 0
 382.03 170.779 380.619 168.361 380.619 167.782 c 0
 380.619 167.218 380.02 166.361 379.32 165.928 c 0
 377.755 164.957 375.624 160.24 375.624 157.742 c 0
 375.624 156.695 374.542 154.546 373.21 152.947 c 0
 369.783 148.834 367.633 143.057 367.633 137.962 c 0x02
 367.633 135.257 366.691 131.818 365.185 129.021 c 0
 363.302 125.524 362.959 123.899 363.698 121.978 c 0
 365.158 118.182 364.857 116.684 362.638 116.684 c 0
 359.443 116.684 355.645 112.288 355.645 108.592 c 0
 355.645 106.854 354.408 103.297 352.938 100.799 c 0
 350.289 96.3037 342.692 74.7207 342.669 71.6279 c 0x01
 342.663 70.7568 341.207 68.0322 339.466 65.6348 c 0
 335.864 60.6738 330.062 47.6523 328.159 40.2598 c 0
 327.438 37.4629 326.17 33.6387 325.274 31.5684 c 0
 324.411 29.5703 323.677 26.8164 323.677 25.5742 c 0
 323.677 24.2725 322.811 21.9775 321.679 20.2793 c 0
 320.546 18.5811 319.674 16.417 319.665 15.2852 c 0
 319.645 12.5186 308.191 -1.88574 304.495 -3.79492 c 0
 301.599 -5.29102 301.231 -5.27051 298.801 -3.47168 c 0
 294.261 -0.109375 284.795 11.8877 282.111 17.6826 c 0
 280.678 20.7793 279.052 24.1689 278.472 25.2744 c 0
 277.896 26.3721 275.307 31.3682 272.728 36.3633 c 0
 270.147 41.3584 267.289 46.5127 266.384 47.8018 c 0
 265.472 49.1006 264.735 50.8418 264.735 51.6982 c 0x0080
 264.735 52.5498 262.96 56.8428 260.789 61.2383 c 0
 258.619 65.6348 256.82 69.9053 256.793 70.7295 c 0x01
 256.765 71.5781 255.878 73.5264 254.745 75.2246 c 0
 253.613 76.9229 252.747 78.9141 252.747 79.8203 c 0
 252.747 81.4463 246.563 95.6045 242.318 103.696 c 0
 241.008 106.193 239.649 109.657 239.261 111.488 c 0
 238.874 113.31 236.146 119.48 233.167 125.274 c 0
 230.187 131.069 227.772 136.346 227.772 137.062 c 0x02
 227.772 137.78 225.088 144.355 221.778 151.748 c 0
 218.468 159.141 215.784 165.738 215.784 166.483 c 0x04
 215.784 167.237 214.749 169.88 213.437 172.478 c 0
 212.129 175.065 209.519 180.22 207.542 184.116 c 0
 205.566 188.012 203.708 192.458 203.347 194.156 c 0
 202.986 195.846 200.939 199.851 198.751 203.146 c 0
 196.562 206.443 194.806 209.647 194.806 210.34 c 0x08
 194.806 211.028 192.609 215.734 189.91 220.829 c 0
 187.211 225.924 184.5 231.729 183.866 233.767 c 0
 183.227 235.823 180.745 240.409 178.271 244.105 c 0
 175.798 247.802 173.826 251.37 173.826 252.147 c 0
 173.826 253.646 163.646 273.427 160.767 277.522 c 0
 159.776 278.932 157.821 283.067 156.493 286.563 c 0
 155.161 290.071 152.18 296.854 149.95 301.448 c 0
 147.721 306.044 145.854 310.846 145.854 311.988 c 0
 145.854 314.069 143.23 320.08 137.262 331.668 c 0
 135.41 335.265 133.866 338.897 133.866 339.66 c 0x10
 133.866 340.434 132.527 343.157 130.869 345.754 c 0
 129.211 348.352 127.604 351.677 127.272 353.197 c 0
 126.947 354.689 125.351 358.042 123.776 360.539 c 0
 122.202 363.037 120.879 366.024 120.879 367.083 c 0x20
 120.879 368.154 116.225 378.271 110.539 389.561 c 0
 104.854 400.85 99.8848 411.371 99.501 412.938 c 0
 99.1162 414.503 97.4746 417.582 95.8545 419.78 c 0
 94.2334 421.979 92.9072 424.473 92.9072 425.324 c 0x40
 92.9072 426.182 89.5381 433.566 85.3643 441.858 c 0
 81.2285 450.076 74.8223 463.836 71.1787 472.328 c 0
 67.5361 480.819 63.9268 488.557 63.1865 489.461 c 0
 62.4482 490.363 61.1826 493.257 60.3896 495.854 c 0
 59.5967 498.451 57.585 502.725 55.9443 505.295 c 0
 54.2861 507.893 52.9473 510.749 52.9473 511.688 c 0
 52.9473 513.153 51.3164 516.684 48.0547 522.277 c 0
 45.667 526.374 39.96 539.122 39.96 540.359 c 0
 39.96 541.137 38.6279 543.756 36.9629 546.254 c 0
 35.2979 548.751 33.9658 551.26 33.9658 551.898 c 0
 33.9658 552.531 30.7607 559.24 26.8311 566.833 c 0
 16.6455 586.514 16.2578 587.336 15.5322 590.81 c 0
 15.0732 593.007 15.3203 594.267 16.3838 595.146 c 0
 20.5273 598.577 74.9248 598.254 85.0146 594.738 c 0
 87.4121 593.903 90.4326 593.207 91.6582 593.207 c 0
 93.2979 593.207 94.4736 592.058 96.0039 588.961 c 0
 97.1396 586.663 99.1328 583.569 100.35 582.218 c 0
 101.588 580.843 102.889 578.172 103.247 576.273 c 0
 103.6 574.4 105.265 570.729 106.894 568.231 c 0
 108.521 565.734 110.187 562.062 110.539 560.189 c 0
 110.897 558.292 112.243 555.464 113.536 553.896 c 0
 114.854 552.298 115.884 550.501 115.884 549.8 c 0x80
 115.884 549.11 118.387 543.457 121.479 537.163 c 0
 124.57 530.869 127.989 523.316 129.121 520.279 c 0
 130.238 517.283 131.782 514.081 132.518 513.236 c 0
 133.255 512.39 137.191 504.246 141.209 495.255 c 0
 145.268 486.172 152.417 470.979 157.192 461.289 c 0
 161.969 451.599 165.834 443.398 165.834 442.957 c 0x40
 165.834 442.513 166.667 440.959 167.709 439.461 c 0
 170.416 435.564 183.816 404.898 183.816 402.598 c 0x20
 183.816 401.543 185.525 398.302 187.662 395.305 c 0
 189.799 392.308 192.285 388.356 193.257 386.414 c 0
 194.207 384.513 196.806 380.569 198.951 377.772 c 0
 201.097 374.975 203.353 370.964 203.896 368.981 c 0
 204.455 366.942 206.194 363.287 207.842 360.689 c 0
 209.49 358.092 210.789 355.428 210.789 354.646 c 0x10
 210.789 353.883 212.319 350.25 214.156 346.653 c 0
 220.022 335.165 222.777 328.812 222.777 326.773 c 0
 222.777 325.729 224.395 321.528 226.374 317.433 c 0
 228.353 313.337 231.048 307.295 232.367 303.996 c 0
 233.703 300.656 236.259 294.905 238.138 291.009 c 0
 244.979 276.823 245.801 274.859 247.288 269.131 c 0
 249.004 262.523 266.954 226.474 272.856 217.782 c 0
 274.959 214.686 276.724 211.153 276.724 210.04 c 0x08
 276.724 208.941 277.136 207.529 277.613 206.993 c 0
 278.392 206.12 292.391 175.324 296.097 166.334 c 0
 296.961 164.235 297.726 161.446 297.752 160.29 c 0
 297.791 158.623 298.127 158.891 299.251 161.488 c 0
 300.029 163.287 300.699 165.528 300.699 166.334 c 0
 300.699 167.156 302.906 173.326 305.595 180.02 c 0
 308.282 186.713 311.232 195.067 312.138 198.552 c 0
 313.053 202.07 315.321 207.942 317.232 211.738 c 0
 319.145 215.534 320.68 219.493 320.68 220.629 c 0x0440
 320.68 221.763 321.527 224.775 322.577 227.373 c 0
 323.635 229.988 324.947 235.165 325.54 239.061 c 0
 326.744 246.973 334.323 270.13 340.549 284.915 c 0
 342.864 290.414 347.203 302.248 350.2 311.238 c 0
 353.197 320.229 356.116 328.471 356.693 329.57 c 0
 357.271 330.67 358.394 334.915 359.19 339.011 c 0
 359.988 343.106 361.381 347.599 362.288 349.001 c 0
 363.187 350.391 364.3 353.796 364.735 356.493 c 0
 365.171 359.19 366.466 362.642 367.582 364.086 c 0
 368.741 365.584 369.631 367.688 369.631 368.931 c 0
 369.631 372.028 374.323 385.47 376.432 388.411 c 0
 377.416 389.785 379.503 394.506 381.069 398.901 c 0
 382.635 403.297 384.748 408.377 385.765 410.189 c 0
 386.791 412.021 387.612 415.085 387.612 417.083 c 0x0020
 387.612 419.081 388.234 421.39 389.011 422.277 c 0
 389.773 423.149 391.317 426.374 392.407 429.371 c 0
 393.513 432.409 395.812 438.661 397.553 443.356 c 0
 399.297 448.063 401.768 455.944 403.097 461.039 c 0
 404.426 466.134 406.407 472.011 407.543 474.226 c 0
 408.669 476.424 409.591 479.121 409.591 480.22 c 0x0010
 409.591 481.305 410.675 483.816 411.963 485.714 c 0
 414.643 489.663 416.407 494.705 421.09 511.788 c 0
 422.897 518.382 425.545 526.406 426.973 529.62 c 0
 428.394 532.817 429.57 536.053 429.57 536.764 c 0x0008
 429.57 537.47 431.142 541.408 433.017 545.404 c 0
 435.271 550.205 436.826 555.444 437.513 560.539 c 0
 438.091 564.835 439.01 569.184 439.561 570.229 c 0
 440.086 571.229 440.56 572.979 440.56 573.926 c 0
 440.56 574.901 441.931 578.422 443.557 581.618 c 0
 445.182 584.815 446.554 588.152 446.554 588.911 c 0
 446.554 592.679 459.74 596.745 476.724 598.215 c 0x0004
EndSplineSet
EndChar

StartChar: uni0057
Encoding: 87 87 27
Width: 892
Flags: MW
VStem: 20.9795 85.9141<553.153 571.086> 41.958 71.9277<517.646 540.572> 50.9492 78.9209<492.517 496.088> 61.9385 75.9238<468.481 472.727> 69.9297 72.9277<444.667 456.318> 75.9238 78.9209<427.184 431.429> 173.826 65.9336<178.282 211.919> 282.717 57.9424<212.839 251.93> 345.917 70.6162 366.634 76.9229<451.497 464.309> 413.586 91.873 459.54 78.9219<434.251 439.446> 480.47 68.9805 487.513 85.9141 518.481 72.9268<290.52 316.617> 532.468 80.9189<260.439 264.695> 638.361 32.9678 671.329 78.9209<267.554 278.101> 681.318 84.915<304.928 308.837> 691.309 81.918<322.694 332.375> 710.29 99.8506 743.257 86.9131<456.408 471.289>
LayerCount: 2
Fore
SplineSet
61.5381 601.148 m 0x83
 64.2207 602.772 74.5254 601.719 81.0186 599.158 c 0
 89.4102 595.848 92.5273 593.014 93.1621 588.112 c 0
 93.458 585.829 95.3457 580.819 97.3027 577.123 c 0
 99.2598 573.427 100.899 569.669 100.899 568.881 c 0
 100.899 568.083 102.244 564.586 103.896 561.089 c 0
 105.548 557.593 106.894 554.185 106.894 553.496 c 0x83
 106.894 552.811 108.47 549.95 110.39 547.152 c 0
 112.31 544.355 113.886 541.135 113.886 540.01 c 0x43
 113.886 538.861 114.697 536.164 115.734 533.866 c 0
 116.771 531.568 118.131 528.235 118.831 526.273 c 0
 119.515 524.359 121.662 518.481 123.576 513.287 c 0
 125.49 508.092 127.299 502.326 127.572 500.55 c 0
 127.849 498.751 128.473 497.058 128.971 496.753 c 0
 129.467 496.45 129.87 494.905 129.87 493.307 c 0x23
 129.87 491.727 131.687 486.663 133.866 482.168 c 0
 136.046 477.672 137.862 473.177 137.862 472.277 c 0x13
 137.862 471.366 138.979 467.882 140.359 464.485 c 0
 141.74 461.089 142.857 457.091 142.857 455.545 c 0x0b
 142.857 454.008 145.559 447.503 148.852 441.109 c 0
 152.144 434.715 154.845 428.66 154.845 427.672 c 0
 154.845 426.695 155.918 424.026 157.192 421.828 c 0
 158.468 419.631 159.814 415.979 160.14 413.836 c 0
 160.472 411.65 163.681 404.096 167.333 396.903 c 0
 171.391 388.911 174.233 381.918 174.726 378.722 c 0
 175.171 375.824 176.739 371.692 178.271 369.381 c 0
 179.779 367.105 181.673 362.688 182.468 359.591 c 0
 183.27 356.464 186.412 348.152 189.511 340.959 c 0
 192.609 333.767 195.707 324.874 196.453 321.029 c 0
 197.435 315.977 200.909 307.692 209.211 290.609 c 0
 220.135 268.132 223.776 258.417 223.776 251.748 c 0
 223.776 249.95 224.775 247.553 226.273 245.754 c 0
 227.689 244.056 228.923 241.523 229.121 239.91 c 0
 229.313 238.34 231.778 231.618 234.615 224.925 c 0
 237.452 218.231 239.76 212.249 239.76 211.589 c 0
 239.76 210.918 240.795 208.342 242.107 205.744 c 0
 243.421 203.146 245.292 199.381 246.353 197.203 c 0
 249.077 191.608 251.102 190.609 254.046 193.406 c 0
 257.742 196.918 264.929 210.59 272.793 229.071 c 0
 276.789 238.462 280.623 246.925 281.368 248.002 c 0
 282.129 249.101 282.717 250.625 282.717 251.498 c 0
 282.717 252.361 284.231 256.144 286.136 260.04 c 0
 292.583 273.227 304.695 304.913 304.695 308.592 c 0
 304.695 309.368 306.027 311.988 307.692 314.485 c 0
 309.357 316.983 310.689 319.625 310.689 320.43 c 0
 310.689 321.225 315.199 331.169 320.68 342.457 c 0
 327.905 357.343 331.043 364.972 332.018 370.03 c 0
 332.752 373.837 334.846 380.869 336.613 385.465 c 0
 338.395 390.096 341.394 397.853 343.257 402.647 c 0
 345.12 407.442 346.653 412.448 346.653 413.736 c 0
 346.653 415.008 347.63 417.183 348.784 418.481 c 0
 351.639 421.692 357.305 433.966 358.7 439.96 c 0
 359.326 442.646 361.373 448.801 363.236 453.597 c 0
 365.1 458.392 366.634 463.037 366.634 463.886 c 0x0740
 366.634 464.732 369.803 471.979 373.626 479.87 c 0
 377.449 487.763 381.027 496.117 381.519 498.302 c 0
 382.013 500.5 383.519 503.759 384.865 505.545 c 0
 386.191 507.303 387.862 510.989 388.512 513.586 c 0
 389.17 516.221 393.02 525.674 397.053 534.565 c 0
 401.087 543.457 405.066 552.775 405.884 555.245 c 0
 408.297 562.537 409.743 566.442 411.728 571.029 c 0
 412.766 573.427 413.586 576.207 413.586 577.322 c 0x0320
 413.586 578.412 414.131 580.319 414.785 581.519 c 0
 415.431 582.702 416.237 585.515 416.533 587.612 c 0x0380
 416.899 590.21 417.915 592.126 419.58 593.361 c 0
 425.634 597.853 453.047 598.502 463.536 594.403 c 0
 476.393 589.38 484.501 578.122 486.92 561.938 c 0
 488.439 551.767 490.005 547.952 497.247 536.764 c 0
 502.679 528.372 505.416 522.577 505.459 519.381 c 0x0320
 505.492 516.971 506.061 515.685 513.315 501.599 c 0
 515.63 497.103 517.482 492.686 517.482 491.658 c 0
 517.482 490.65 518.822 487.312 520.43 484.315 c 0
 522.037 481.318 523.399 477.913 523.427 476.823 c 0
 523.454 475.704 524.355 473.177 525.475 471.079 c 0
 526.594 468.981 527.473 466.783 527.473 466.084 c 0
 527.473 465.391 528.805 462.837 530.47 460.34 c 0
 532.135 457.842 533.467 454.601 533.467 453.047 c 0
 533.467 451.506 534.588 448.052 535.964 445.354 c 0
 537.34 442.657 538.462 439.832 538.462 439.061 c 0x0310
 538.462 438.287 540.914 432.667 543.956 426.474 c 0
 546.998 420.279 549.45 414.571 549.45 413.687 c 0x0308
 549.45 412.805 550.593 410.14 551.998 407.742 c 0
 553.396 405.356 555.672 399.95 557.043 395.754 c 0
 558.415 391.555 562.669 381.968 566.483 374.476 c 0
 570.299 366.983 573.427 359.916 573.427 358.791 c 0x0304
 573.427 357.679 574.772 354.896 576.374 352.697 c 0
 577.981 350.49 580.751 344.405 582.468 339.311 c 0
 584.184 334.216 586.932 327.291 588.512 324.076 c 0
 590.083 320.879 591.408 317.199 591.408 316.034 c 0x0302
 591.408 314.853 593.061 311.188 595.08 307.893 c 0
 601.751 297.003 603.236 294.033 603.928 290.21 c 0
 604.288 288.212 605.468 284.815 606.493 282.817 c 0
 607.52 280.819 608.392 278.18 608.392 277.073 c 0
 608.392 275.94 609.508 272.927 610.889 270.33 c 0
 612.271 267.732 613.387 265.054 613.387 264.336 c 0
 613.387 263.612 614.56 261.289 616.034 259.091 c 0
 617.467 256.955 619.048 253.197 619.48 250.899 c 0
 619.913 248.602 621.448 244.797 622.827 242.607 c 0
 624.211 240.409 625.375 238.014 625.375 237.362 c 0
 625.375 235.487 634.238 217.782 638.179 211.788 c 2
 641.658 206.493 l 1
 644.285 211.289 l 2
 646.584 215.484 652.18 228.271 659.281 245.555 c 0
 660.513 248.552 662.129 253.093 662.837 255.545 c 0
 663.546 257.996 665.771 263.536 667.732 267.732 c 0
 669.694 271.928 671.329 276.378 671.329 277.522 c 0x030140
 671.329 278.68 672.426 282.218 673.776 285.414 c 0
 675.111 288.575 676.973 294.455 677.872 298.352 c 0
 678.771 302.248 679.929 305.744 680.42 306.044 c 0
 680.934 306.357 681.318 307.343 681.318 308.342 c 0x030020
 681.318 309.332 682.617 311.346 684.315 312.987 c 0
 686.014 314.629 687.312 316.642 687.312 317.633 c 0
 687.312 318.592 688.214 321.679 689.311 324.476 c 0
 690.408 327.272 691.309 330.562 691.309 331.769 c 0x030010
 691.309 332.981 694.667 340.859 698.804 349.351 c 0
 706.396 364.936 710.29 375.433 710.29 380.319 c 0x030008
 710.29 381.794 712.6 389.561 715.385 397.452 c 0
 718.17 405.345 721.476 414.922 722.678 418.581 c 0
 723.891 422.277 725.603 426.08 726.499 427.073 c 0
 728.481 429.268 733.267 441.559 733.267 444.455 c 0
 733.267 445.547 735.533 451.349 738.262 457.243 c 0
 740.99 463.137 743.257 469.188 743.257 470.579 c 0
 743.257 471.998 744.718 475.274 746.554 477.972 c 0
 748.379 480.655 752.213 488.611 755.145 495.805 c 0
 758.077 502.997 761.286 510.44 762.338 512.487 c 0
 763.363 514.485 764.235 517.079 764.235 518.132 c 0
 764.235 519.197 766.047 523.227 768.231 527.023 c 0
 770.417 530.819 772.522 535.506 772.877 537.362 c 0
 773.232 539.223 775.04 544.306 776.873 548.602 c 0
 778.706 552.897 780.22 556.963 780.22 557.593 c 0
 780.22 558.216 781.293 560.34 782.567 562.237 c 0
 783.934 564.272 785.18 568.032 785.549 571.229 c 0
 786.918 583.117 795.285 593.485 804.396 594.586 c 0
 806.782 594.874 812.688 595.594 817.683 596.204 c 0
 823.677 596.937 834.565 597.02 850.35 596.453 c 0
 871.828 595.684 874.226 595.424 876.174 593.656 c 0
 878.049 591.956 878.258 591.009 877.819 586.214 c 0
 877.295 580.478 869.207 557.243 862.31 541.658 c 0
 860.055 536.563 857.93 530.754 857.543 528.621 c 0
 857.154 526.484 855.866 522.777 854.646 520.279 c 0
 853.425 517.782 852.182 514.408 851.849 512.688 c 0
 851.518 510.977 848.298 503.197 844.655 495.305 c 0
 841.013 487.412 837.369 478.292 836.514 474.925 c 0
 835.65 471.528 833.904 466.466 832.567 463.486 c 0
 831.268 460.59 830.17 457.524 830.17 456.793 c 0x030004
 830.17 456.022 829.57 454.845 828.771 454.046 c 0
 825.04 450.314 810.212 412.388 810.141 406.394 c 0x030008
 810.125 405.042 802.313 388.611 798.743 382.418 c 0
 797.94 381.026 797.015 378.172 796.653 375.974 c 0
 796.295 373.795 792.896 366.034 789.061 358.642 c 0
 785.227 351.249 781.491 342.795 780.72 339.76 c 0
 779.956 336.764 777.936 332.041 776.273 329.371 c 0
 774.595 326.673 773.227 323.848 773.227 323.077 c 0x030010
 773.227 322.311 771.646 318.382 769.73 314.386 c 0
 767.814 310.39 766.233 306.325 766.233 305.395 c 0x030020
 766.233 304.461 764.436 300.1 762.238 295.704 c 0
 760.04 291.309 758.242 286.903 758.242 285.914 c 0
 758.242 284.921 756.452 281.119 754.246 277.423 c 0
 752.039 273.727 750.25 270.059 750.25 269.23 c 0
 750.25 265.877 746.391 251.748 744.41 247.853 c 0
 740.189 239.549 736.442 228.971 733.229 216.284 c 0
 732.703 214.207 729.62 207.192 726.424 200.799 c 0
 723.227 194.405 720.285 187.617 719.93 185.814 c 0
 719.568 183.978 717.467 179.421 715.185 175.524 c 0
 712.201 170.43 710.842 166.715 710.178 161.838 c 0
 708.74 151.284 703.825 137.862 696.934 125.674 c 0
 694.222 120.879 687.422 100.478 687.344 96.9033 c 0
 687.326 96.1279 685.532 93.2568 683.316 90.46 c 0
 680.705 87.1631 679.32 84.3936 679.32 82.4678 c 0
 679.32 80.8691 678.645 78.2861 677.843 76.8232 c 0
 675.763 73.0273 671.329 59.9707 671.329 57.6426 c 0x030040
 671.329 56.6006 668.917 50.8994 665.984 45.0049 c 0
 663.051 39.1113 660.093 32.0117 659.428 29.2705 c 0
 657.029 19.3809 650.022 10.7891 644.355 10.7891 c 0
 641.017 10.7891 638.361 13.8857 638.361 17.7822 c 0
 638.361 19.2334 637.26 21.8779 635.864 23.7764 c 0
 634.469 25.6738 633.366 27.4814 633.366 27.8721 c 0
 633.366 28.2617 631.816 31.1191 629.87 34.3154 c 0
 627.924 37.5127 626.107 41.6553 625.774 43.6562 c 0
 625.445 45.6299 623.642 49.7998 621.778 52.8975 c 0
 619.915 55.9941 618.089 60.0518 617.732 61.8877 c 0
 617.384 63.6865 616.251 66.4365 615.285 67.832 c 0
 614.29 69.2686 613.018 72.5273 612.438 75.125 c 0
 611.862 77.7002 608.705 85.165 605.444 91.6582 c 0
 602.185 98.1514 598.846 106.157 598.051 109.391 c 0
 596.037 117.582 593.134 124.79 589.479 130.669 c 0
 587.743 133.463 585.267 138.562 583.994 141.958 c 0
 581.114 149.65 575.804 160.289 574.426 161.129 c 0
 573.877 161.464 573.427 162.887 573.427 164.286 c 0x030480
 573.427 165.672 572.061 169.93 570.43 173.626 c 0
 568.799 177.322 567.433 180.921 567.433 181.519 c 0
 567.433 182.134 566.334 184.266 564.936 186.363 c 0
 563.548 188.445 561.799 192.107 561.001 194.605 c 0
 558.703 201.798 554.967 210.135 552.092 214.485 c 0
 550.639 216.684 549.037 220.189 548.532 222.277 c 0
 547.011 228.571 536.815 252.635 533.845 256.943 c 0
 533.105 258.015 532.468 259.89 532.468 260.989 c 0x0301
 532.468 262.119 530.9 265.635 528.971 268.831 c 0
 527.042 272.028 525.206 275.835 524.875 277.322 c 0
 524.55 278.789 522.953 282.118 521.379 284.615 c 0
 519.804 287.113 518.481 290.031 518.481 291.009 c 0x0302
 518.481 291.983 517.062 295.005 515.385 297.603 c 0
 513.562 300.423 511.732 305.194 510.939 309.19 c 0
 510.009 313.875 506.656 321.878 500.143 334.965 c 0
 491.242 352.848 487.513 362.257 487.513 366.833 c 0x0304
 487.513 367.929 485.933 371.878 484.016 375.574 c 0
 482.1 379.271 480.497 383.13 480.47 384.116 c 0x0308
 480.442 385.104 479.318 387.712 477.972 389.91 c 0
 476.626 392.107 475.524 394.896 475.524 396.104 c 0
 475.524 397.315 473.508 402.447 471.029 407.543 c 0
 468.551 412.638 466.511 417.926 466.483 419.331 c 0
 466.456 420.733 464.884 424.326 462.987 427.322 c 0
 461.09 430.319 459.54 433.688 459.54 434.815 c 0
 459.54 435.953 458.208 438.861 456.543 441.358 c 0
 454.879 443.856 453.547 446.653 453.547 447.652 c 0
 453.547 450.55 450.746 455.142 448.552 455.844 c 0
 445.962 456.673 443.557 454.845 443.557 452.048 c 0x0350
 443.557 450.945 441.541 446.803 439.061 442.808 c 0
 436.581 438.812 434.565 434.624 434.565 433.467 c 0
 434.565 432.268 434.18 431.368 433.666 431.368 c 0
 432.282 431.368 416.583 395.104 416.583 391.908 c 0
 416.583 391.246 414.796 387.312 412.588 383.117 c 0
 410.379 378.921 408.592 374.854 408.592 374.026 c 0
 408.592 373.193 407.481 371.329 406.094 369.83 c 0
 404.706 368.332 403.597 366.423 403.597 365.534 c 0
 403.597 360.489 399.431 349.65 390.083 330.369 c 0
 382.623 314.985 379.176 306.684 378.072 301.448 c 0
 377.145 297.053 375.18 291.9 373.176 288.611 c 0
 369.181 282.055 366.781 275.924 365.589 269.23 c 0
 365.116 266.572 362.48 260.34 359.676 255.245 c 0
 350.713 238.961 346.497 229.81 345.917 225.375 c 0
 345.604 222.977 344.317 219.711 343.007 217.982 c 0
 341.72 216.284 340.659 214.344 340.659 213.687 c 0
 340.659 211.992 328.967 181.818 326.606 177.423 c 0
 325.533 175.425 324.676 173.227 324.676 172.478 c 0
 324.676 171.735 323.395 168.432 321.828 165.135 c 0
 320.263 161.838 318.666 157.388 318.281 155.245 c 0
 317.898 153.11 314.737 144.755 311.289 136.764 c 0
 307.84 128.771 304.656 121.049 304.246 119.681 c 0
 303.835 118.312 301.097 111.988 298.188 105.694 c 0
 291.818 91.9082 280.881 65.583 279.511 60.7393 c 0
 278.974 58.8408 277.928 56.5576 277.223 55.7441 c 0
 276.509 54.9199 275.438 49.75 274.844 44.2559 c 0
 273.008 27.2725 269.491 18.4072 261.838 11.4697 c 0
 256.585 6.70703 251.549 5.19336 245.954 6.69727 c 0
 240.759 8.09375 234.294 14.1357 233.024 18.7812 c 0
 232.503 20.6885 230.638 24.5254 228.921 27.2227 c 0
 227.205 29.9199 225.774 33.2119 225.774 34.4658 c 0
 225.774 36.5225 222.464 46.2539 213.269 71.2285 c 0
 211.252 76.707 207.199 88.2119 204.296 96.7031 c 0
 201.393 105.194 197.151 116.632 194.905 122.028 c 0
 192.659 127.423 190.81 132.252 190.81 132.717 c 0
 190.81 133.177 189.662 135.265 188.312 137.263 c 0
 186.962 139.261 185.814 142.015 185.814 143.257 c 0
 185.814 144.539 184.976 147.452 183.916 149.851 c 0
 182.856 152.248 181.573 155.911 181.011 158.142 c 0
 179.65 163.536 177.97 168.278 175.698 173.127 c 0
 174.669 175.324 173.826 177.842 173.826 178.722 c 0
 173.826 179.593 171.624 184.815 168.981 190.21 c 0
 166.338 195.604 163.613 202.234 162.987 204.795 c 0
 162.352 207.394 159.897 214.086 157.492 219.78 c 0
 155.088 225.475 152.879 232.346 152.548 235.165 c 0
 152.214 237.998 149.908 244.805 147.353 250.499 c 0
 144.842 256.094 142.485 262.167 142.158 263.886 c 0
 141.829 265.613 140.274 269.331 138.711 272.128 c 0
 137.148 274.925 135.864 278.079 135.864 279.121 c 0
 135.864 280.167 134.519 283.866 132.867 287.362 c 0
 131.215 290.859 129.175 296.128 128.321 299.101 c 0
 127.462 302.098 125.686 306.427 124.326 308.841 c 0
 122.955 311.274 121.461 315.385 120.929 318.182 c 0
 120.411 320.906 118.346 325.924 116.384 329.221 c 0
 113.86 333.461 112.505 337.263 111.842 341.958 c 0
 110.69 350.114 107.881 357.343 98.2881 376.823 c 0
 94.2051 385.115 90.9092 392.455 90.9092 393.257 c 0
 90.9092 394.049 89.3252 397.603 87.4121 401.099 c 0
 85.5 404.596 83.916 408.172 83.916 408.991 c 0
 83.916 409.82 82.1309 414.686 79.9199 419.88 c 0
 77.71 425.075 75.9238 430.029 75.9238 430.969 c 0x0780
 75.9238 431.89 74.5518 435.115 72.9268 438.012 c 0
 71.3027 440.909 69.9297 444.18 69.9297 445.155 c 0x0b
 69.9297 446.144 69.3203 447.853 68.5752 448.951 c 0
 67.0674 451.176 61.9385 467.232 61.9385 469.73 c 0x13
 61.9385 470.668 59.4785 476.124 56.4434 481.918 c 0
 53.4082 487.712 50.9492 493.704 50.9492 495.305 c 0x23
 50.9492 496.871 49.8018 499.9 48.4512 501.898 c 0
 47.1016 503.896 45.9541 506.559 45.9541 507.692 c 0
 45.9541 508.881 45.0879 511.089 43.9561 512.787 c 0
 42.8242 514.485 41.958 516.91 41.958 518.382 c 0x43
 41.958 520.606 39.417 526.474 35.2949 533.767 c 0
 34.6738 534.865 32.5029 541.159 30.4697 547.752 c 0
 28.4365 554.346 25.4697 561.809 23.876 564.336 c 0
 22.3018 566.833 20.9795 569.706 20.9795 570.629 c 0
 20.9795 571.544 20.0566 574.126 18.9814 576.224 c 0
 17.9053 578.321 16.9834 581.549 16.9834 583.217 c 0
 16.9834 584.938 16.4707 588.312 15.8311 590.81 c 0
 13.9248 598.249 14.3857 598.419 38.7617 599.271 c 0
 51.6484 599.721 60.3672 600.439 61.5381 601.148 c 0x83
EndSplineSet
EndChar

StartChar: uni0058
Encoding: 88 88 28
Width: 595
Flags: MW
HStem: 0 22<18 35 18 38> 1 44<36.5 87>
VStem: 65 79<537.5 572.5> 92 96 126 85<129.5 152> 284 6 387 95<131 143> 456 101<45 48>
LayerCount: 2
Fore
SplineSet
335 188.75 m 0x46
 333.633 190.52 332 195 329 199 c 0
 325 203 320 205 322 201 c 0
 323 200 323 200 321 201 c 0
 320 201 319 203 320 204 c 1
 320 206 317 210 313 215 c 0
 304 224 301 228 304 229 c 0
 305 229 304 231 301 234 c 0
 298 236 296 239 296 240 c 2
 296 240 295 241 294 241 c 0
 292 241 292.5 235 288.25 229.25 c 0
 286.148 226.407 281 217 280 217 c 0
 278 217 270 208 266 200 c 0
 264 196 257 187 251 180 c 0
 244 173 239 167 239 166 c 0
 239 164 228 149 219 141 c 1
 215 135 211 131 211 130 c 0x4e
 211 129 210 127 208 125 c 0
 207 124 205 122 205 120 c 0
 205 119 205 118 204 118 c 0
 203 118 202 117 202 116 c 0
 202 115 199 111 194 107 c 0
 188 101 187 99 188 98 c 0
 190 97 186 90 183 90 c 0
 181 90 175 84 173 80 c 0
 171 78 168 73 164 70 c 1
 161 66 157 62 156 59 c 0
 153 54 150 50 148 48 c 0
 147 46 145 43 143 41 c 0
 142 39 133 30 123 20 c 0
 103 0 107 1 67 1 c 0x54
 50 1 38 1 38 0 c 0
 37 -1 36 -1 35 0 c 0
 33 1 30 1 27 0 c 0
 13 -4 7 3 13 15 c 0
 15 18 17 21 18 22 c 1x94
 21 22 29 34 29 37 c 0
 29 39 35 45 38 45 c 0
 40 45 48 53 48 55 c 0
 48 56 50 58 52 59 c 0
 54 61 57 64 58 66 c 0
 60 72 63 76 79 92 c 0
 86 99 92 106 92 107 c 0x54
 92 108 107 128 117 139 c 0
 121 143 125 148 126 151 c 0x4c
 126 153 128 156 129 156 c 0
 131 156 133 158 134 160 c 0
 136 164 145 174 156 186 c 0
 159 190 163 195 164 197 c 0
 165 199 166 202 168 203 c 0
 169 204 170 205 170 206 c 0
 170 207 175 213 181 219 c 0
 187 225 191 231 191 232 c 0
 191 233 194 237 198 242 c 0
 201 246 206 253 208 256 c 0
 211 259 213 262 214 262 c 0
 215 262 216 264 217 267 c 0
 219 272 228 283 236 292 c 0
 238 295 240 297 240 298 c 0
 240 299 241 300 242 301 c 0
 250 310 250 313 242 322 c 0
 238 326 235 330 235 330 c 2
 235 331 233 333 231 334 c 0
 229 336 228 338 228 338 c 2
 228 339 226 340 225 342 c 0
 223 344 221 347 220 349 c 0
 216 357 194 378 191 378 c 1
 190 377 189 378 190 380 c 0
 190 382 173 400 170 401 c 1
 167 401 l 1
 165 402 l 2
 164 402 163 403 164 404 c 1
 164 408 159 417 153 420 c 0
 149 423 148 424 148 427 c 0
 148 430 146 433 143 435 c 1
 141 438 139 441 139 443 c 0
 139 445 136 449 133 453 c 0
 126 460 120 469 121 470 c 0
 121 471 118 474 114 478 c 0
 110 482 106 487 105 489 c 0
 104 491 102 493 102 493 c 1
 99 493 94 499 95 501 c 0
 96 503 94 506 77 524 c 0
 71 531 65 537 65 538 c 0
 65 540 59 547 52 555 c 0
 45 563 37 573 34 577 c 0
 31 582 27 588 24 590 c 1
 19 596 19 601 25 602 c 0
 48 603 96 604 108 603 c 0
 114 602 144 575 144 570 c 0
 144 569 145 568 147 566 c 0
 149 565 151 563 151 562 c 0
 151 558 169 538 174 538 c 0
 178 538 180 536 180 533 c 0
 180 531 182 528 184 526 c 0
 187 522 188 520 187 518 c 0
 187 516 192 511 201 502 c 0
 204 498 212 489 217 482 c 0
 222 475 227 467 229 464 c 0
 231 462 233 459 235 457 c 0
 239 454 244 446 245 444 c 2
 245 444 249 439 254 434 c 0
 259 429 265 421 267 417 c 0
 271 410 280 399 283 399 c 1
 283 399 284 401 284 404 c 0
 287 415 291 409 290 395 c 1
 290 377 291 377 302 391 c 0
 304 392 305 394 305 395 c 0
 305 396 307 399 309 401 c 0
 318 410 324 416 324 418 c 1
 325 419 329 424 333 428 c 0
 337 433 341 438 341 439 c 0
 341 441 346 449 349 451 c 0
 352 454 365 471 368 475 c 0
 372 481 379 491 386 498 c 1
 388 502 392 506 393 509 c 1
 395 511 396 513 397 514 c 0
 406 525 408 529 408 532 c 0
 407 536 410 540 414 538 c 0
 416 538 418 539 423 546 c 0
 426 550 430 555 432 556 c 0
 434 558 437 563 440 567 c 0
 443 571 448 578 453 582 c 1
 457 587 461 593 463 596 c 0
 465 599 468 604 471 606 c 0
 475 609 477 609 482 608 c 0
 485 608 498 607 511 607 c 0
 539 606 546 606 567 602 c 0
 576 601 577 597 570 594 c 0
 568 593 565 591 564 588 c 0
 563 586 561 583 559 582 c 0
 557 581 555 579 554 577 c 0
 552 575 547 569 541 563 c 0
 536 557 532 551 532 550 c 0
 531 548 520 533 510 523 c 0
 507 520 504 515 502 513 c 0
 499 507 490 495 481 486 c 0
 477 482 473 475 471 471 c 0
 469 467 462 458 455 451 c 0
 448 443 441 436 440 434 c 0
 439 431 436 427 433 424 c 0
 431 422 426 416 422 411 c 0
 418 406 414 400 413 398 c 0
 411 395 406 387 400 381 c 0
 395 375 388 366 386 361 c 0
 384 357 382 353 381 353 c 0
 380 353 377 349 374 345 c 0
 371 341 367 337 366 336 c 0
 365 335 363 333 363 332 c 0
 363 330 363 329 362 328 c 0
 361 328 358 324 354 319 c 0
 347 308 347 305 361 290 c 0
 365 286 370 280 372 276 c 0
 380 264 384 259 389 257 c 1
 391 255 393 254 393 253 c 0
 393 252 395 250 397 247 c 0
 399 244 402 240 404 237 c 1
 407 235 408 232 408 231 c 0
 408 230 411 226 415 222 c 0
 419 218 423 212 426 209 c 0
 435 195 439 191 446 183 c 0
 455 174 467 159 467 157 c 0
 467 155 479 144 481 144 c 0
 482 144 482 143 482 143 c 2x66
 482 142 484 139 487 136 c 0
 489 134 492 128 494 125 c 0
 497 119 511 105 513 105 c 0
 514 105 515 104 515 103 c 0
 515 102 517 99 520 96 c 0
 523 93 526 90 526 89 c 0
 526 87 537 73 547 60 c 1
 553 54 557 49 557 47 c 0
 557 46 563 38 572 29 c 0
 590 10 591 8 577 7 c 0
 572 6 564 5 560 5 c 0
 556 4 551 4 548 4 c 0
 545 3 542 3 542 3 c 2
 541 2 525 2 523 3 c 0
 522 4 520 4 519 3 c 0
 512 0 490 2 487 6 c 0
 485 9 482 13 479 15 c 1
 477 18 473 23 472 26 c 0
 471 29 466 34 463 38 c 1
 459 41 456 45 456 45 c 2x45
 456 46 449 57 447 60 c 2
 438 69 l 2
 430 78 424 85 419 93 c 0
 417 96 413 102 410 105 c 0
 403 112 391 126 389 128 c 0
 388 129 387 131 387 131 c 1
 387 133 377 145 368 153 c 0
 360 161 356 167 356 170 c 0
 356 172 355 174 353 176 c 0
 351 177 348 179 347 181 c 0
 346 182 339.25 183.25 335 188.75 c 0x46
EndSplineSet
EndChar

StartChar: uni0059
Encoding: 89 89 29
Width: 536
Flags: MW
VStem: 104 81<475 494> 238 85<49 217> 347 63<433.5 464.5> 398 75<513.5 528.5>
LayerCount: 2
Fore
SplineSet
427 566 m 1xd0
 424 563 421 560 421 559 c 0
 421 558 420 555 418 553 c 0
 415 551 411 546 408 542 c 0
 405 538 401 533 400 532 c 0
 399 531 398 529 398 528 c 0xd0
 398 526 386 512 376 502 c 0
 374 500 372 497 372 495 c 0
 372 494 371 492 370 492 c 0
 369 492 367 489 365 486 c 0
 363 483 358 477 354 473 c 0
 350 469 347 465 347 464 c 0
 347 463 344 459 340 456 c 0
 336 453 332 447 330 444 c 0
 329 441 325 435 321 431 c 0
 317 427 311 419 308 414 c 0
 303 405 299 401 286 387 c 0
 281 381 274 385 265 399 c 0
 263 402 261 405 260 405 c 2
 260 405 258 407 255 411 c 0
 253 414 245 423 238 430 c 0
 231 438 225 445 225 446 c 0
 225 447 224 449 222 450 c 1
 221 452 218 455 216 458 c 0
 213 461 206 470 198 478 c 0
 191 485 185 492 185 493 c 0
 185 495 177 505 167 515 c 0
 162 520 156 527 153 530 c 0
 150 533 144 541 138 548 c 0
 133 555 128 562 126 563 c 0
 124 565 121 569 119 573 c 0
 115 581 114 581 64 580 c 1
 8 580 9 582 46 543 c 0
 59 530 70 516 70 513 c 1
 87 496 l 2
 99 484 104 478 104 475 c 0
 105 472 112 464 127 448 c 0
 139 436 151 422 154 418 c 0
 157 414 164 405 169 399 c 0
 175 393 182 386 184 382 c 0
 186 378 188 375 189 375 c 2
 189 375 192 373 194 370 c 0
 195 367 205 357 215 347 c 0
 224 337 232 328 232 327 c 0
 232 326 233 325 235 323 c 0
 237 320 238 308 238 126 c 1
 239 21 239 1 241 0 c 1
 242 -2 247 -2 260 -2 c 0
 269 -2 286 -1 297 -1 c 0
 319 -1 325 2 322 9 c 0
 321 13 322 42 324 44 c 0
 324 45 324 47 323 49 c 0
 322 50 322 55 323 65 c 0
 324 74 324 79 323 81 c 0
 321 84 321 90 323 93 c 0
 324 95 324 103 323 104 c 1
 323 111 l 1
 323 120 l 1
 322 121 321 133 321 146 c 0
 321 159 320 177 320 185 c 0
 319 195 319 201 320 203 c 0
 322 205 322 207 320 210 c 0
 318 214 318 215 320 218 c 0
 322 221 322 222 321 225 c 0
 320 228 319 232 320 237 c 0
 321 245 321 246 320 256 c 0
 320 260 319 275 318 288 c 2
 317 311 l 1
 323 318 l 2
 326 322 329 327 330 329 c 0
 330 331 335 337 341 344 c 0
 352 356 357 363 357 365 c 0
 357 366 360 370 363 373 c 0
 376 388 384 398 384 400 c 0
 384 401 387 406 392 412 c 0
 404 424 410 432 410 435 c 0xe0
 410 436 414 441 419 447 c 0
 435 464 438 468 440 473 c 0
 441 475 446 481 450 486 c 0
 455 491 460 497 463 500 c 0
 465 503 468 507 470 509 c 0
 472 511 473 513 473 514 c 0
 473 515 477 521 482 526 c 0
 487 531 493 538 495 542 c 1
 500 548 502 551 514 562 c 0
 522 570 524 585 516 580 c 0
 513 578 448 580 443 582 c 1
 440 582 439 582 436 577 c 0
 434 575 429 570 427 566 c 1xd0
EndSplineSet
EndChar

StartChar: uni005A
Encoding: 90 90 30
Width: 584
Flags: MW
HStem: -1 40<40 62> 2 69<183.5 209 209 252> 508 70<186.5 187 187 215 215 275 275 303>
VStem: 212 58<213.5 255.5>
LayerCount: 2
Fore
SplineSet
45 580 m 0x70
 25 581 25 581 24 561 c 1
 22 547 22 537 24 520 c 2
 25 511 l 1
 32 509 l 2
 36 507 42 507 55 508 c 1
 74 508 l 1
 316 508 l 1
 347 508 l 1
 356 509 370 509 377 509 c 0
 390 509 402 508 403 506 c 0
 404 506 402 502 400 499 c 0
 398 495 395 491 395 489 c 0
 394 487 391 482 386 477 c 0
 382 472 376 465 374 461 c 0
 371 457 366 450 362 445 c 0
 359 441 354 435 352 433 c 0
 348 426 344 422 341 419 c 0
 339 418 338 416 338 415 c 0
 338 414 334 409 329 403 c 0
 324 398 320 393 320 392 c 2
 320 392 317 388 314 385 c 0
 310 381 307 377 307 376 c 0
 307 375 302 368 295 361 c 0
 288 354 282 347 280 342 c 0
 278 338 271 328 264 320 c 0
 257 313 250 304 249 300 c 1
 247 297 241 289 235 283 c 0
 230 278 224 271 223 269 c 0
 222 267 219 264 216 261 c 0
 214 259 212 256 212 255 c 0
 212 253 209 249 205 245 c 0
 201 241 197 236 196 234 c 0
 195 232 192 228 190 227 c 0
 187 225 185 222 183 219 c 0
 182 216 181 214 180 214 c 2
 174 208 l 1
 172 204 167 198 163 194 c 0
 159 190 156 185 156 184 c 0
 156 183 154 181 152 179 c 0
 150 177 147 173 146 170 c 0
 144 167 140 161 136 158 c 1
 133 154 130 150 130 149 c 0
 130 147 122 139 120 139 c 0
 119 139 118 137 118 136 c 0
 118 134 116 131 114 129 c 0
 112 127 108 123 106 120 c 0
 102 114 90 99 80 90 c 0
 76 86 74 82 74 81 c 0
 74 80 71 77 69 74 c 0
 66 71 63 67 61 65 c 0
 57 57 43 39 40 39 c 1
 39 38 37 36 36 34 c 0
 35 31 32 27 29 25 c 0
 22 19 20 16 20 9 c 0
 20 -1 21 -1 62 -1 c 1xb0
 82 0 98 -1 98 -2 c 0
 99 -3 109 -3 111 -2 c 1
 112 0 115 0 182 2 c 0
 204 3 236 3 252 2 c 0x70
 266 1 297 1 361 1 c 1
 399 2 425 1 428 -1 c 1xb0
 428 -1 437 -1 448 0 c 0
 472 2 498 2 526 1 c 0
 560 -1 562 0 560 9 c 0
 559 11 559 26 559 41 c 0
 559 56 559 69 558 69 c 0
 557 70 546 70 533 70 c 2
 458 70 l 1
 447 71 428 72 416 72 c 0
 403 72 391 73 389 73 c 1
 388 74 386 74 385 73 c 0
 384 72 359 71 340 71 c 2
 328 71 l 1
 283 71 l 1
 209 71 l 2
 158 71 156 73 180 95 c 0
 182 97 184 99 184 100 c 0
 184 103 190 112 193 115 c 0
 201 123 216 141 216 143 c 0
 216 144 218 146 219 147 c 0
 220 148 223 151 224 153 c 0
 225 156 228 159 230 161 c 0
 232 163 236 169 239 174 c 0
 242 180 248 187 251 190 c 0
 254 194 257 197 258 199 c 0
 258 200 261 204 264 207 c 0
 267 210 270 213 270 214 c 0
 270 215 273 220 277 225 c 0
 281 230 287 239 291 244 c 0
 294 249 302 259 309 267 c 0
 315 274 321 283 322 285 c 0
 323 287 327 293 331 297 c 0
 336 302 341 310 344 314 c 0
 347 319 353 327 357 331 c 0
 361 336 366 342 368 345 c 0
 371 351 375 355 386 369 c 0
 395 380 405 392 406 396 c 1
 408 399 419 412 429 422 c 0
 431 425 435 429 436 432 c 0
 438 435 440 439 442 441 c 0
 444 442 446 444 446 445 c 2
 446 445 448 448 450 450 c 0
 454 454 461 464 466 472 c 0
 468 475 475 483 485 494 c 1
 491 502 l 2
 491 503 493 506 496 509 c 0
 498 512 501 515 501 516 c 0
 501 517 504 521 508 526 c 0
 532 553 532 553 539 568 c 0
 542 575 541 579 537 579 c 0
 518 577 419 576 382 578 c 0
 355 579 355 579 337 579 c 1
 331 578 316 578 303 578 c 2
 275 578 l 1
 215 578 l 1
 187 578 l 2
 186 578 175 579 162 580 c 0
 138 582 64 582 62 581 c 0
 61 580 54 580 45 580 c 0x70
EndSplineSet
EndChar

StartChar: bracketleft
Encoding: 91 91 31
Width: 892
Flags: MW
VStem: -46 122 -21 74 25 80 32 84 77 80 90 84 102 84 111 81 164 90 184 54 192 34 200 5 230 83 238 79 238 87 246 87 277 70 300 93 324 95 347 77 404 17 431 66G 450 61G 455 77G 470 64G 488 59G 501 63G 516 63G 532 54G 557 43G 567 66G<180.562 223.133> 578 66G 582 67G 590 138G 605 117G 611 96G 630 65G 679 7 693 56G 704 65G 714 58G 736 45G 750 57G 763 57G
LayerCount: 2
Fore
SplineSet
17 583 m 0x000008
 17 579.347 21 575.14 21 570.99 c 0
 21 565.723 27 564.264 27 558.99 c 1x000004
 28.4092 556.172 34 540.255 34 535.991 c 1
 35.6895 532.613 42 523.688 42 518.992 c 0
 42 514.3 46 513.113 46 507.992 c 0x000002
 46 502.966 51 501.853 51 496.992 c 0x000001
 51 487.258 62 477.95 62 468.992 c 0
 62 466.532 66 458.132 66 455.992 c 0x00000080
 66 452.232 70 448.552 70 444.992 c 0
 70 441.715 76 435.989 76 431.993 c 0
 76 426.605 84 414.068 84 408.993 c 0x00000040
 84 405.719 91 397.534 91 392.993 c 0
 91 389.471 97 383.541 97 379.993 c 0x00000020
 97 377.687 112 353.708 112 340.993 c 0x00000010
 112 333.156 121 325.889 121 318.993 c 0
 121 313.361 126.488 308.042 128 301.994 c 1x00000008
 128 295.286 136 285.344 136 278.994 c 0
 136 274.314 142 270.827 142 264.994 c 1
 145.872 249.507 153 244.818 153 231.994 c 0x00000004
 153 228.149 158 222.364 158 218.994 c 0
 158.742 216.769 163 208.342 163 205.994 c 0x00000002
 165.48 193.59 174 185.826 174 177.994 c 0x00000001
 174 174.769 178 173.018 178 168.994 c 0x0000000080
 178 164.496 182 161.332 182 155.994 c 0
 182 150.137 186 149.653 186 142.994 c 0x0000001040
 186 138.188 191 135.899 191 132.994 c 0
 191 129.895 201 110.14 201 105.994 c 1x0000000020
 203.507 100.98 204.49 95.0137 207 89.9941 c 1x0000000010
 207 85.2939 214 73.2041 214 68.9941 c 0
 213.918 68.9121 226 39.3799 226 33.9941 c 0
 226 28.8721 233 23.7959 233 18.9941 c 1
 234 15.9941 235 12.9941 236 12.9941 c 0
 253.545 -4.55078 275 15.0791 275 50.9941 c 0x0000000008
 275 55.6279 279 56.3574 279 60.9941 c 0
 279 63.1133 291 89.1689 291 90.9941 c 0x0000000010
 291 92.1211 303 116.734 303 116.994 c 0x0000000020
 303 122.223 318 149.624 318 156.994 c 0x0000000040
 318 160.309 324 169.294 324 171.994 c 0x0000000080
 324 175.896 329 181.234 329 183.994 c 0
 329 185.144 340 210.76 340 212.994 c 0
 340 217.96 345 218.623 345 222.995 c 0x0000000004
 345 238.329 365 259.023 365 269.994 c 1x0000000002
 363.383 271.611 368 276.84 368 279.994 c 0x0000000001
 368 283.861 377 294.16 377 298.995 c 0x000000000080
 377 313.85 403 347.503 403 365.995 c 0x000000000040
 403 366.995 404 368.995 405 369.995 c 1
 407 369.995 408 372.995 408 375.995 c 1
 409.473 378.94 416 389.029 416 392.995 c 0x000000000020
 416 394.101 431.459 431.995 433 431.995 c 0
 434 431.995 434 433.995 434 434.995 c 0
 434 437.873 443 448.739 443 451.995 c 0
 443 459.995 452 456.995 453 448.995 c 0
 453 444.361 459 439.632 459 434.995 c 0x200000000010
 459 429.986 466 425.311 466 420.995 c 0x10
 466 411.839 475 404.123 475 395.995 c 0
 475 391.014 480 389.622 480 383.995 c 0
 480 380.123 487 372.167 487 367.996 c 0
 487 350.848 511 322.371 511 305.996 c 0x48
 511 301.969 518 295.617 518 290.996 c 0
 518 285.729 524 284.27 524 278.996 c 0x04
 524 274.362 532 265.633 532 260.996 c 0
 532 257.915 536 254.706 536 251.996 c 0x02
 536 250.88 545 233.781 545 231.997 c 0x01
 545 228.878 548.841 224.68 548 222.998 c 0
 548 219.229 553.66 212.008 555 209.998 c 1
 555 206.881 561 197.487 561 193.998 c 0
 561 190.194 567 184.725 567 181.998 c 0
 567 179.125 573 169.716 573 165.998 c 0
 573 163.998 573 161.998 574 161.998 c 0
 576 160.998 585 140.998 585 138.998 c 0
 585 136.971 594 124.619 594 121.998 c 0
 594 120.125 598 114.298 598 109.998 c 0x0080
 598 102.379 613 81.6338 613 72.999 c 0
 613 69.3516 618 67.0127 618 61.999 c 0x0040
 618 57.3652 626 48.6357 626 43.999 c 0x0020
 626 39.1963 632.135 31.7295 634 28 c 1
 634 23.8564 639 23.3242 639 17.999 c 0x0010
 639 3.58301 655.23 11.1152 660 29 c 1x0020
 660 35.6582 672 52.9639 672 57 c 0
 672 62.9805 677 71.5996 677 75 c 1
 679.738 80.4775 680 77.5967 680 84 c 0x0041
 680 88.3965 688 93.9961 688 97.001 c 0
 688 101.001 693 113.146 693 115.002 c 0
 693 116.002 694 119.002 694 120.002 c 0
 700.902 131.046 711 151.573 711 164.002 c 0x008080
 711 170.793 721 180.909 721 188.002 c 0
 721 191.449 734 211.512 734 217.003 c 0x000040
 734 221.055 737 224.263 737 228.003 c 1
 739 235.003 745 250.003 747 251.003 c 0x0008
 747 252.003 748 254.003 748 255.003 c 0
 748 258.731 751 264.823 751 270.003 c 0x0004
 751 272.57 759 282.184 759 287.003 c 0x0002
 759 290.763 762 291.064 762 295.003 c 1
 763.723 300.17 767 300.95 767 306.003 c 0x0001
 767 310.498 774 319.267 774 324.003 c 0
 774 326.525 781 333.852 781 338.003 c 0x000080
 781 347.872 798 368.399 798 380.003 c 0
 798 382.003 799 384.003 800 384.003 c 0
 801 385.003 812 406.003 811 408.003 c 1
 813.283 414.852 821.745 444.748 827 450.003 c 1x000040
 827 452.003 828 454.003 829 454.003 c 0
 830 454.003 831 456.003 831 459.003 c 0
 832.5 463.503 837 470.628 837 475.002 c 0
 837 481.002 853 509.002 853 515.002 c 0x000020
 853 517.29 858 523.902 858 527.002 c 0
 858 533.627 864.549 545.058 868 554.002 c 0
 884.84 597.641 884.074 597.002 857 597.002 c 0
 842.401 597.002 834.124 598.002 823 598.002 c 1
 821 597.002 814 596.002 809 596.002 c 0
 796 596.002 786 584.002 786 568.002 c 0
 786 565.446 781 561.914 781 558.002 c 0x000010
 781 555.521 774 541.569 774 540.002 c 0
 774 532.101 762.303 519.699 765 517.002 c 1
 764.653 515.616 758 502.592 758 502.001 c 0
 758 500.419 751 486.496 751 484.001 c 0x000420
 751 482.607 744 474.985 744 473.002 c 1
 746.991 470.011 734 450.873 734 445.002 c 0x000040
 734 441.002 728 427.002 727 427.002 c 0
 726 427.002 725 426.002 725 424.002 c 0
 725 421.254 718 405.307 718 404.002 c 0
 718 401.098 711 387.416 711 382.002 c 0
 711 367.421 694.791 344.165 692 333.002 c 1
 692 326.483 688 323.62 688 318.002 c 0x008080
 688 314.874 682 311.661 682 309.002 c 0
 682 308.002 681 306.002 680 306.002 c 1x0001
 680 305.002 679 301.002 678 297.002 c 1
 678 291.151 672 283.484 672 279.001 c 0x0002
 672 273.092 665.595 265.379 664 259.001 c 1
 664 252.355 658 246.168 658 241 c 1
 656 236 654 232 648 218 c 1
 642 207 l 1
 640.195 210.158 633 220.383 633 222 c 0
 633 224.267 626 233.276 626 237 c 0x0108
 626 240.277 620 246.003 620 249.999 c 0x02
 620 255.02 615.695 259.608 614 262.999 c 1
 614 267.651 608 272.84 608 278.999 c 0x04
 608 283.691 604 284.878 604 289.999 c 0
 604 299.438 591 309.678 591 317.999 c 0x08
 591 321.76 585 329.103 585 332 c 0
 585 335.256 580 344.054 580 347 c 0
 580 349.417 573 356.492 573 360 c 0
 573 362 572 364 572 365 c 0
 568.503 368.497 556 395.291 556 399.999 c 0
 556 404.011 550 409.697 550 412.999 c 0x10
 550 420.413 539 433.142 539 439.999 c 0x20
 539 442.628 534 448.961 534 451.999 c 1
 535.907 455.813 528 463.732 528 465.999 c 0
 528 469.53 524 473.259 524 476.999 c 0
 524 482.091 518 487.24 518 491.999 c 0
 518 496.047 511.478 505.043 510 507.999 c 1x84
 510 513.41 506 514.207 506 517.999 c 0
 506 530.742 487 546.21 487 560 c 0x40
 487 581.399 470.102 598 449 598 c 0
 421 598 416 596 416 588 c 0x000000000020
 416 586 415 584 415 583 c 1
 414 583 413 581 413 578 c 0x40
 413 573.122 409 570.386 409 566 c 0
 409 562.131 405 558.027 405 555.001 c 0
 405 549.128 388 520.147 388 511.002 c 0x80
 388 509.159 379.606 501.396 382 499.002 c 1
 382 496.287 375 484.349 375 483.002 c 0
 375 481.246 367 469.253 367 467.002 c 0
 367 459.596 359 449.479 359 442.002 c 0x000000000010
 359 439.138 350.392 419.002 348 419.002 c 1
 347 418.002 346 416.002 346 414.002 c 0x000000000020
 346 409.815 340.605 399.818 339 395.002 c 1
 339 388.708 332 379.22 332 374.002 c 0x000000000040
 332 360.902 314.642 334.928 310 321.002 c 1x000000000080
 310 316.133 304 312.948 304 308.002 c 0
 304 304.029 300 298.353 300 295.002 c 0x0000000001
 300 293.204 289 269.245 289 267.002 c 0x0000000002
 289 264.599 282 255.135 282 251.002 c 0
 282 249.002 281 247.002 280 247.002 c 0
 278.645 245.646 259.301 192.002 251 192.002 c 0
 249 192.002 245 197.002 245 200.002 c 0x0000000104
 245 203.969 240 207.558 240 211.002 c 0x00000002
 240 212.775 233.576 227.138 233 228.002 c 1
 234.105 229.107 229 236.644 229 239.001 c 1x00000004
 230.852 242.703 224 247.107 224 250.001 c 0
 224 273.826 196 306.21 196 326.002 c 0x00000008
 195.035 330.827 182 355.371 182 364.002 c 1x00000010
 180.223 369.335 175 372.646 175 378.001 c 0x00000020
 175 389.756 160 404.626 160 417.001 c 0x00000040
 160 418.76 153.17 428.171 155 430.001 c 1
 152.896 436.314 143 450.211 143 456.001 c 0x00000080
 143 461.952 139.716 465.139 138 472 c 1
 138 478.816 130 487.482 130 493 c 0x000001
 130 495 130 497 129 498 c 0
 128 498 128 500 128 502 c 0x000002
 128 502.983 121.745 516 123 516 c 1
 123 518.939 118 525.765 118 529 c 0
 118 532.531 114 536.26 114 540 c 0
 114 544.559 108.872 549.256 107 553 c 1x000004
 107 558.577 101 565.254 101 569 c 0
 101 575.173 93 581.363 93 591 c 0
 93 598.35 65.8604 606.86 60 601 c 0
 59 601 50 600 39 600 c 0
 5.59766 600 17 597.568 17 583 c 0x000008
EndSplineSet
EndChar

StartChar: backslash
Encoding: 92 92 32
Width: 538
Flags: MW
VStem: -68 76 -63 80 -48 79 -40 78 -31 74 50 24 83 69G 102 63G 156 30G 170 63G 176 77G 183 77G 195 72G 207 65G 232 59G 265 31G 283 43G 289 129G 306 100G 314 79G 330 54G 348.472 21.5283G 371 55G 371 80G 410 30G 420 71G 429 72G 437 73G 441 73G
LayerCount: 2
Fore
SplineSet
301.526 -4.70312 m 1x000108
 306.122 -3.05371 l 1
 309.34 -0.292969 320 13 320 15 c 0x000108
 320 17 320 19 322 21 c 0
 323 22 324 25 324 27 c 0
 324 29 325 32 326 34 c 0
 327 35 328 38 328 40 c 0
 328 41 329 45 331 48 c 0
 332 51 334 55 334 56 c 0x000010
 334 57 336 61 338 64 c 0
 341 67 343 71 343 72 c 0x000020
 343 76 346 83 348 89 c 0
 349 91 350 94 350 96 c 0
 350 97 352 99 353 101 c 0
 355 103 356 107 356 109 c 0x000040
 356 113 359 117 363 117 c 0
 366 117 366 117 364 122 c 0
 363 125 363 126 366 130 c 0
 368 133 368 136 368 139 c 1
 367 141 368 143 368 144 c 0
 369 145 370 146 370 147 c 0x00008040
 370 149 371 151 373 152 c 1
 374 154 376 157 376 160 c 2
 378 166 l 2
 379 166 380 166 380 167 c 0
 380 168 381 171 383 173 c 0
 386 177 387 179 385 181 c 0
 384 183 384 185 387 189 c 1x00000410
 388 192 390 197 390 199 c 0x000001
 390 201 391 205 392 207 c 0
 394 209 395 212 395 213 c 0
 395 215 396 218 398 220 c 0
 399 222 401 226 401 228 c 0
 401 231 403 233 407 235 c 0
 412 238 412 238 410 241 c 1x800002
 407 243 407 244 412 257 c 0
 414 264 417 274 419 278 c 0
 420 282 423 287 426 290 c 0
 430 295 431 297 433 307 c 0
 434 313 436 321 437 324 c 0
 439 327 440 333 441 337 c 0x00000080
 441 341 442 344 444 346 c 0
 445 347 446 350 446 352 c 0
 446 355 447 358 448 360 c 1
 450 361 451 364 451 366 c 0x00000040
 451 370 456 384 458 386 c 0
 459 387 460 389 460 391 c 0x00000020
 460 393 461 396 462 397 c 0
 463 399 464 401 464 403 c 0x00000010
 464 404 465 407 466 409 c 0
 469 415 478 440 478 443 c 0x00000008
 478 444 479 447 481 449 c 0
 482 451 483 454 483 456 c 0
 483 458 484 460 485 461 c 0
 486 461 486 463 486 466 c 0x80
 486 468 487 472 488 473 c 0
 489 475 490 477 490 479 c 0
 490 480 491 483 492 484 c 0
 493 486 495 489 495 491 c 0x40
 496 496 504 517 507 524 c 0
 509 527 509 530 509 531 c 0x20
 509 532 510 534 511 536 c 0
 514 539 514 541 516 553 c 0x10
 517 556 518 558 519 559 c 0
 520 560 521 563 521 565 c 0
 521 567 522 571 523 573 c 0
 530 587 530 596 521 597 c 0
 492 603 447 598 447 589 c 0
 447 588 446 585 444 583 c 1
 443 580 441 577 441 575 c 0x08000080
 441 574 441 572 440 571 c 0
 439 570 438 565 438 561 c 0x10
 437 556 436 551 434 547 c 0
 432 543 430 540 430 539 c 0x20
 430 537 429 535 428 533 c 0
 426 529 423 521 420 510 c 0
 419 507 418 502 417 499 c 0
 416 497 415 494 415 493 c 0x40
 415 492 413 490 412 487 c 0
 410 484 409 482 410 481 c 0x80
 410 480 409 477 408 475 c 0
 406 472 404 466 403 461 c 0
 402 456 400 450 399 448 c 0
 398 446 397 443 397 442 c 0
 397 441 395 438 394 435 c 0
 392 432 391 428 391 427 c 0x00000008
 391 426 390 424 389 423 c 0
 387 422 387 420 387 418 c 0x00000010
 388 416 387 413 385 411 c 0
 384 409 383 407 383 406 c 0
 383 405 381 400 379 395 c 0x00000020
 379 393 378 391 377 390 c 0
 375 388 370 374 370 370 c 0x00000040
 370 368 369 365 367 364 c 1
 366 362 365 359 365 356 c 0
 365 354 364 351 363 350 c 0
 361 348 360 345 360 341 c 0
 359 337 358 331 356 328 c 0x00004080
 355 325 350.5 316 349.5 310 c 0
 348.089 305.203 344 291 335 272 c 0
 334 268 332 263 331 260 c 0
 330 256 328 250 327 247 c 0
 326 244 325 238 325 236 c 0
 325 233 324 230 323 228 c 0
 322 227 321 224 321 222 c 0x000002
 321 220 320 217 318 214 c 0
 317 211 314 206 313 203 c 0
 311 193 307 183 304 177 c 0
 303 174 301 170 301 168 c 0
 301 166 301 164 300 164 c 0
 299 163 298.472 158.916 298.472 157.916 c 1
 298.471 158.912 298 162 296 166 c 0
 295 169 293 174 292 176 c 0
 289 182 280 202 278 207 c 1
 276 209 276 211 276 212 c 0x000104
 276 214 274 216 272 219 c 0
 270 221 266 229 262 237 c 0
 258 244 254 252 253 255 c 0
 249 262 246 269 246 273 c 0x0002
 246 274 245 277 243 279 c 0
 242 281 241 284 241 285 c 0x0004
 241 286 239 289 237 293 c 0
 236 294 235 297 234 298 c 1
 234 300 231 307 224 321 c 0
 223 323 222 326 222 327 c 0x0008
 222 329 221 332 220 334 c 0
 218 336 217 339 217 340 c 0x0010
 217 342 215 345 213 348 c 0
 211 351 210 354 210 355 c 0x0020
 210 357 208 360 206 363 c 0
 204 365 203 369 203 370 c 0x0040
 203 372 202 374 200 376 c 0
 198 378 192.5 384.5 192.5 385.5 c 0
 192.5 386.5 188 395 186 397 c 0
 184 399 183 402 183 403 c 0x0080
 183 404 182 408 180 412 c 0
 174 426 171 431 170 435 c 0
 169 437 167 440 165 443 c 0
 163 449 162 452 160 455 c 0
 154 465 136 505 136 506 c 0x01
 136 507 134 510 133 512 c 0
 131 514 130 516 130 517 c 2
 130 517 128 521 127 525 c 1
 121 536 116 547 115 550 c 0x0210
 115 552 114 554 112 555 c 0
 111 556 110 558 110 560 c 0
 110 562 108 566 106 569 c 0
 104 572 102 576 102 578 c 0
 102 580 101 582 100 583 c 0
 98 584 96 587 95 590 c 0
 94 593 93 594 90 594 c 0
 88 594 86 595 86 595 c 1
 83 599 19 600 15 596 c 0
 13 594 16 585 20 579 c 0
 22 576 24 573 24 572 c 0x0480
 24 571 26 567 28 563 c 0
 31 558 33 554 33 553 c 0x02
 33 551 35 549 36 547 c 0
 38 545 39 542 39 541 c 0
 39 539 41 536 42 533 c 0
 44 530 46 527 46 525 c 0
 46 524 47 522 49 520 c 0
 50 518 52 515 52 513 c 0x01
 52 511 53 508 55 506 c 0
 57 503 59 500 59 498 c 0
 59 497 60 494 61 492 c 0
 63 490 64 488 64 487 c 2
 64 487 66 483 67 480 c 0
 69 476 72 469 74 464 c 0
 76 459 79 453 81 450 c 0
 82 447 84 444 84 443 c 0
 84 442 86 439 88 435 c 0
 90 432 92 428 92 426 c 0
 92 424 94 421 96 419 c 0
 98 417 99 413 99 412 c 0
 99 410 101 406 103 404 c 0
 105 401 106 398 106 398 c 2x0080
 106 397 107 395 108 393 c 0
 109 391 112 385 115 380 c 0
 118 374 120 369 120 367 c 0x0240
 120 366 121 363 123 361 c 0
 125 359 126 357 126 355 c 0x0020
 126 354 127 350 129 348 c 0
 131 345 133 342 133 340 c 0x0010
 133 339 134 336 136 333 c 0
 138 330 140 327 140 325 c 0
 140 324 141 321 143 319 c 0
 144 317 145 314 145 312 c 0x0108
 145 311 146 308 147 306 c 0
 154 292 157 285 157 283 c 1x0004
 158 282 159 279 160 278 c 0
 161 277 163 273 165 269 c 0
 166 266 169 262 170 260 c 0
 171 258 173 254 173 252 c 0
 174 249 177 245 178 243 c 0
 180 241 182 239 182 238 c 0x0002
 182 235 188 221 192 216 c 0
 193 215 194 212 194 211 c 0
 194 210 196 206 199 202 c 0
 201 199 203 195 203 193 c 0x0040
 203 192 204 189 206 186 c 0
 208 183 210 180 210 178 c 0
 210 177 211 174 213 172 c 0
 214 170 215 168 215 167 c 0x0021
 215 165 218 159 221 152 c 0
 224 146 227 139 227 138 c 0
 227 136 228 134 229 132 c 0
 231 130 232 127 233 125 c 0x000080
 233 123 235 120 237 117 c 0
 238 115 239 112 239 110 c 0x000040
 239 109 240 106 242 104 c 0
 243 102 245 98 246 95 c 0
 247 92 249 88 250 87 c 0
 251 85 252 83 252 81 c 0
 252 79 253 77 254 76 c 0
 255 75 256 73 256 71 c 0x000220
 256 70 258 66 260 62 c 0
 262 59 264 55 264 53 c 0x000010
 264 51 265 49 266 48 c 0
 268 47 269 44 270 41 c 0
 271 39 274 33 276 30 c 0
 278 26 280 23 280 22 c 0
 280 17 296 -4.23535 301.526 -4.70312 c 1x000108
EndSplineSet
EndChar

StartChar: uni0061
Encoding: 97 97 33
Width: 396
Flags: MW
HStem: 6 56<162 208.5> 14 52<229 230.5> 193 35<151 174> 351 72<76 95> 359 80<109 109> 365 82<217 218>
VStem: 42 15<310.5 311.5> 42 75<124.5 148> 258 80 264 76<11.5 14.5 11.5 23 88 94 94 114 114 114>
LayerCount: 2
Fore
SplineSet
68.25 187.1 m 0x62
 72.5801 191.241 75 195 80 197 c 0
 81 197 85 199 87 201 c 0
 90 203 97 206 102 207 c 0
 108 209 113 212 115 213 c 0
 116 214 120 217 125 218 c 0
 130 219 134 221 136 222 c 1
 138 225 149 228 153 228 c 0
 155 228 159 230 162 232 c 1
 164 235 168 237 169 237 c 0
 171 237 173 237 175 238 c 0
 177 239 180 240 182 241 c 1
 185 241 190 243 194 245 c 0
 199 247 205 249 208 250 c 0
 211 251 215 252 216 253 c 0
 218 254 229 259 243 263 c 0
 260 269 259 268 258 287 c 0
 257 296 257 304 256 304 c 1
 256 305 253 319 251 330 c 0
 250 336 224 364 218 365 c 0x6680
 216 365 209 368 202 370 c 0
 180 377 133 373 120 362 c 0
 116 358 115 358 109 359 c 0x2a80
 102 360 102 359 100 356 c 0
 98 353 96 351 94 351 c 0
 91 350 89 349 89 348 c 0
 89 347 81 339 73 330 c 0
 64 321 57 312 57 311 c 0
 57 310 56 307 54 306 c 0
 53 305 51 302 50 299 c 0
 47 291 40 297 42 306 c 1
 42 318 l 1
 39 330 39 372 41 381 c 0
 44 393 72 423 80 423 c 0x3280
 81 423 83 424 84 425 c 0
 85 426 89 429 92 430 c 0
 96 432 100 434 102 436 c 0
 104 437 107 439 108 439 c 0x2a80
 110 439 113 440 116 441 c 0
 124 445 131 447 133 447 c 0
 135 447 137 447 139 448 c 0
 141 449 149 450 157 450 c 0
 165 451 171 451 172 452 c 0
 173 453 208 451 210 449 c 0
 211 448 215 447 218 447 c 0
 222 447 227 446 229 445 c 0
 231 445 236 443 241 442 c 0
 246 441 251 439 254 437 c 0
 257 434 260 433 262 433 c 0
 263 433 269 429 275 424 c 0
 280 420 286 416 287 416 c 0
 290 416 297 410 301 405 c 0
 310 393 320 376 321 373 c 0
 322 371 323 368 323 367 c 0
 327 362 333 349 333 344 c 0
 333 342 334 333 335 326 c 0
 336 318 337 299 338 282 c 0x2680
 339 231 340 194 340 181 c 2
 340 94 l 1
 340 70 l 1
 339 59 341 28 343 26 c 0
 344 24 344 23 342 20 c 0
 341 18 340 15 340 14 c 0
 340 9 335 5 324 3 c 0
 292 -4 268 -7 265 -4 c 1
 265 -4 264 4 264 13 c 0
 264 33 263 35 255 28 c 0
 252 26 247 24 245 23 c 0
 242 22 238 19 236 18 c 0
 234 16 231 14 230 14 c 0x6440
 228 14 224 12 219 10 c 0
 214 8 209 6 208 6 c 0xa040
 203 4 187 1 186 2 c 0
 185 3 183 2 180 1 c 0
 171 -4 145 -3 121 3 c 0
 107 6 104 7 101 9 c 0
 99 10 97 11 95 11 c 0
 94 11 92 12 90 14 c 0
 88 15 83 20 77 24 c 0
 68 31 57 43 57 45 c 0x6240
 57 46 55 49 53 52 c 0
 51 54 48 59 48 61 c 0
 47 63 45 67 44 70 c 0
 42 73 40 76 40 77 c 0
 40 79 39 81 37 82 c 1
 35 85 35 86 36 95 c 0
 37 103 37 106 36 107 c 0
 33 111 35 132 39 138 c 0
 40 141 42 144 42 146 c 0x61
 42 150 47 160 49 161 c 0
 50 161 50 162 50 163 c 0
 50 164 51 167 53 168 c 1
 54 170 56 173 57 175 c 0
 58 181 63.5938 182.646 68.25 187.1 c 0x62
148.5 179.6 m 0
 139.5 171.754 137 168 129 156 c 1
 125 152 123 147 123 146 c 0
 123 145 122 142 120 139 c 0
 118 136 117 132 117 127 c 0
 117 122 116 118 115 117 c 0
 112 115 113 109 116 106 c 0
 118 104 120 101 121 99 c 0
 123 89 152 64 162 62 c 0
 166 62 170 60 172 59 c 0
 177 57 204 58 206 60 c 0
 207 61 210 62 212 62 c 0xa140
 215 62 219 63 222 64 c 0
 225 65 228 66 230 66 c 0
 231 66 236 68 240 71 c 1
 243 75 248 78 250 78 c 0
 252 78 256 81 259 83 c 2
 264 88 l 1
 264 114 l 1x6140
 263 128 263 155 263 174 c 0
 263 194 262 212 262 215 c 0
 261 221 259 222 250 219 c 0
 246 218 241 217 239 216 c 0
 237 216 232 215 228 213 c 0
 219 209 213 207 206 206 c 0
 204 206 201 205 200 204 c 0
 197 201 191.5 202.6 185.75 199.85 c 0
 182.03 198.071 180.332 197.401 178.5 196.6 c 0
 174.5 194.85 175 193 173 193 c 0
 172 193 170 192 168 190 c 0
 163 185 154.997 185.264 148.5 179.6 c 0
EndSplineSet
EndChar

StartChar: uni0062
Encoding: 98 98 34
Width: 499
Flags: MW
HStem: 9 68 9 76<138 170> 30 68<313.5 352> 353 78<310.5 338.5> 370 63<203 227>
VStem: 65 80<582 582> 367 87<147.5 161> 377 88
LayerCount: 2
Fore
SplineSet
93 667 m 0x0d
 72 665 61 660 63 653 c 0
 63 652 64 635 64 617 c 0
 64 598 65 582 65 582 c 1
 67 578 69 348 67 343 c 0
 66 341 65 304 66 241 c 0
 66 182 66 142 65 139 c 0
 64 137 63 133 64 130 c 1
 64 116 65 91 66 76 c 0
 66 67 67 54 67 48 c 0
 67 32 71 27 83 26 c 0
 88 25 92 24 95 22 c 0
 98 20 102 18 103 18 c 0
 106 18 117 15 125 12 c 0
 128 11 134 10 138 9 c 1x8d
 143 9 149 8 152 7 c 0
 168 3 251 0 258 3 c 0
 260 4 266 6 271 6 c 0
 281 7 291 9 309 14 c 0
 314 15 320 16 322 17 c 0
 331 19 340 23 343 25 c 1
 344 27 348 29 351 30 c 0
 353 30 357 32 359 34 c 2
 367 38 l 2
 378 43 425 88 430 99 c 0
 432 103 435 109 437 112 c 0
 440 115 441 119 441 120 c 2
 441 120 444 127 448 134 c 0
 451 141 454 147 454 148 c 0x26
 454 151 457 159 459 164 c 0
 461 168 462 173 465 192 c 0
 466 196 466 203 466 209 c 0
 465 215 465 230 465 241 c 0
 464 262 462 278 460 283 c 0
 459 285 458 290 457 294 c 0
 457 298 456 303 455 305 c 0
 454 307 453 309 453 311 c 0
 453 313 451 316 450 317 c 0
 448 318 446 322 445 325 c 0
 442 334 434 348 426 357 c 0
 421 362 418 366 418 367 c 0
 418 370 399 391 392 396 c 0
 390 398 385 401 382 404 c 0
 370 413 358 421 355 422 c 0
 353 423 349 425 346 427 c 0
 343 429 339 431 338 431 c 0x35
 337 431 333 433 330 435 c 0
 327 437 323 438 322 438 c 0
 320 438 318 439 317 440 c 0
 316 441 314 442 312 442 c 0
 310 442 306 443 304 445 c 1
 299 447 247 447 242 445 c 0
 240 444 235 443 231 442 c 0
 226 441 219 439 215 437 c 0
 210 435 205 433 203 433 c 0
 200 432 196 430 192 428 c 0
 185 425 179 421 175 420 c 0
 174 419 171 418 168 417 c 1
 166 415 160 412 156 408 c 0
 144 398 144 396 145 450 c 0
 146 500 146 525 145 543 c 0
 144 566 144 621 145 628 c 0
 146 631 146 640 145 647 c 0
 144 657 144 663 145 665 c 0
 149 673 142 676 126 673 c 0
 103 668 97 667 93 667 c 0x0d
285 364 m 0
 286 363 288 363 290 363 c 0
 292 363 297 360 301 358 c 0
 306 355 310 353 311 353 c 0
 316 353 362 308 362 303 c 0
 362 302 363 298 366 295 c 0
 368 292 370 287 370 285 c 0
 371 283 372 278 373 275 c 0
 374 272 375 267 376 263 c 0
 378 255 379 203 377 196 c 0x15
 372 169 371 167 367 161 c 0
 367 160 365 157 365 155 c 0
 364 153 362 150 360 148 c 1
 359 145 357 142 356 140 c 0
 355 138 353 134 350 131 c 0
 348 129 344 125 343 123 c 0
 339 117 317 98 314 98 c 0x36
 313 98 309 96 305 93 c 0
 301 90 297 88 296 88 c 0
 295 88 292 87 289 86 c 0
 286 84 281 82 278 81 c 0
 274 80 270 79 268 78 c 0
 264 77 209 76 199 77 c 1x86
 190 79 175 82 174 84 c 0
 173 85 171 85 169 85 c 0x46
 156 85 142 106 147 116 c 0
 148 118 148 122 147 129 c 0
 146 137 144 223 144 241 c 0
 144 247 145 279 145 299 c 2
 145 321 l 1
 150 328 l 2
 153 332 157 337 160 339 c 0
 162 340 167 345 171 348 c 0
 176 351 181 354 182 354 c 0
 184 354 187 356 190 358 c 0
 193 361 197 363 199 363 c 0
 201 363 204 363 205 364 c 0
 207 366 212 367 217 368 c 0
 221 369 226 370 227 370 c 0
 230 372 266 369 275 367 c 0
 280 366 285 365 285 364 c 0
EndSplineSet
EndChar

StartChar: uni0063
Encoding: 99 99 35
Width: 416
Flags: W
LayerCount: 2
Fore
SplineSet
202 443 m 0
 199 443 196 442 196 441 c 0
 195 440 193 440 192 440 c 0
 190 440 187 438 184 437 c 0
 180 435 177 434 177 435 c 1
 176 435 174 434 173 433 c 0
 172 432 169 431 168 431 c 0
 167 431 163 429 159 426 c 0
 155 424 150 421 149 421 c 0
 148 421 143 419 139 416 c 0
 135 413 131 410 130 410 c 0
 125 410 84 370 75 357 c 0
 73 354 69 347 66 343 c 0
 63 338 60 334 60 333 c 0
 60 332 59 328 56 325 c 1
 54 321 52 318 52 317 c 0
 52 316 50 312 49 309 c 0
 47 305 45 301 45 300 c 0
 45 298 44 296 43 295 c 0
 42 293 41 289 40 285 c 0
 40 281 38 277 38 275 c 1
 28 258 31 192 42 160 c 0
 45 153 47 146 48 143 c 0
 48 140 50 137 51 136 c 0
 52 135 53 132 53 130 c 0
 53 128 54 125 56 124 c 0
 57 123 59 120 61 116 c 0
 62 113 66 107 69 104 c 0
 72 100 76 94 79 89 c 0
 88 76 120 45 126 45 c 0
 127 45 130 42 133 39 c 0
 143 31 183 12 196 10 c 0
 200 10 204 9 205 8 c 0
 219 1 289 -2 304 4 c 0
 306 5 311 6 316 7 c 0
 354 13 377 21 382 31 c 0
 385 37 385 42 385 99 c 1
 384 114 381 118 376 109 c 0
 374 105 359 94 355 94 c 0
 353 94 351 93 349 92 c 0
 348 91 345 90 344 90 c 0
 342 90 338 88 335 85 c 0
 331 82 328 81 323 81 c 0
 320 81 316 80 315 79 c 0
 313 78 310 77 309 77 c 0
 307 77 304 76 303 76 c 0
 298 73 257 72 253 75 c 0
 252 76 248 77 244 77 c 0
 227 77 192 90 177 102 c 0
 173 104 169 107 167 108 c 0
 162 110 144 128 139 136 c 0
 137 139 133 145 130 149 c 0
 127 153 125 157 125 158 c 0
 125 160 121 169 118 175 c 0
 117 177 116 179 116 181 c 0
 116 183 115 186 114 188 c 0
 113 190 112 194 112 198 c 0
 112 203 111 207 110 209 c 0
 108 213 108 243 111 248 c 0
 112 249 112 252 111 254 c 0
 111 255 112 258 113 260 c 0
 114 262 115 264 115 266 c 0
 115 267 116 270 117 272 c 0
 118 274 119 277 119 278 c 0
 119 279 120 282 122 284 c 0
 124 286 125 289 125 291 c 0
 125 292 127 296 129 299 c 0
 131 301 136 308 139 313 c 0
 146 324 158 336 166 340 c 0
 168 341 174 345 178 348 c 0
 182 351 187 354 189 354 c 0
 190 354 193 355 195 357 c 0
 201 361 212 365 220 366 c 0
 224 366 230 367 233 368 c 0
 254 374 279 373 303 366 c 0
 317 362 345 347 349 342 c 0
 352 339 354 337 357 337 c 0
 358 337 360 337 360 336 c 0
 360 333 364 330 368 331 c 0
 375 333 378 340 377 351 c 0
 376 355 375 365 375 372 c 2
 375 393 l 2
 375 397 375 401 376 403 c 0
 381 410 378 420 371 420 c 0
 370 420 367 422 364 424 c 2
 356 428 l 1
 353 428 350 430 348 432 c 0
 345 434 339 436 330 438 c 0
 328 438 325 439 324 440 c 0
 322 441 310 444 291 448 c 0
 278 450 238 451 236 450 c 0
 235 449 216 445 202 443 c 0
EndSplineSet
EndChar

StartChar: uni0064
Encoding: 100 100 36
Width: 463
Flags: W
LayerCount: 2
Fore
SplineSet
399 673 m 0
 396 672 391 672 388 671 c 0
 384 670 378 669 374 668 c 0
 350 666 343 663 344 657 c 0
 345 655 345 639 345 621 c 0
 346 600 346 588 347 586 c 0
 348 585 349 579 348 569 c 1
 348 496 l 2
 348 465 347 438 346 437 c 0
 345 435 338 435 328 440 c 1
 316 444 312 445 298 447 c 0
 291 447 284 448 283 449 c 0
 277 451 239 450 222 447 c 0
 214 445 205 443 203 443 c 0
 200 442 197 441 195 440 c 0
 194 439 192 438 191 439 c 0
 190 439 186 438 184 437 c 0
 181 435 177 434 176 434 c 0
 174 434 172 433 172 433 c 2
 172 432 164 428 156 424 c 0
 148 420 139 415 137 413 c 0
 135 411 129 407 125 404 c 0
 113 397 80 364 80 359 c 0
 80 358 77 354 73 349 c 0
 69 345 66 339 65 337 c 0
 65 335 63 331 60 328 c 0
 58 325 56 321 56 319 c 0
 56 318 56 316 55 315 c 0
 54 314 52 311 51 308 c 0
 50 305 48 301 47 299 c 0
 46 297 45 293 45 289 c 0
 44 285 43 280 42 278 c 0
 37 267 37 264 35 221 c 0
 35 214 37 192 39 184 c 0
 40 180 41 175 41 173 c 0
 41 171 42 169 42 169 c 2
 43 168 44 167 44 165 c 0
 44 164 45 160 47 157 c 0
 48 154 49 151 49 150 c 0
 49 149 49 147 51 145 c 0
 52 143 54 139 54 138 c 0
 54 136 55 134 56 132 c 1
 58 131 60 127 60 124 c 0
 61 121 63 117 64 116 c 0
 66 115 68 111 70 107 c 0
 72 103 76 96 80 92 c 0
 101 67 107 61 110 59 c 0
 113 58 118 54 122 50 c 0
 126 47 134 41 139 38 c 0
 144 35 150 31 153 29 c 0
 155 27 159 25 161 25 c 0
 162 25 166 23 169 21 c 0
 172 19 175 17 176 18 c 1
 182 16 l 2
 185 14 190 12 194 11 c 0
 198 10 204 9 206 8 c 0
 211 7 218 6 232 3 c 0
 236 2 248 2 261 2 c 0
 274 1 285 1 286 0 c 0
 289 -2 351 -1 363 0 c 0
 369 1 374 1 375 0 c 0
 376 0 386 -1 398 -1 c 0
 425 0 426 0 426 19 c 0
 426 32 427 55 428 56 c 1
 428 56 428 63 427 71 c 0
 425 98 422 452 424 506 c 0
 425 511 425 516 425 518 c 0
 424 536 426 632 427 637 c 0
 427 641 427 644 426 646 c 0
 424 649 424 652 425 656 c 0
 426 663 425 672 422 674 c 0
 419 676 420 676 410 675 c 0
 406 674 401 673 399 673 c 0
302 364 m 0
 305 363 309 363 312 363 c 0
 321 363 344 350 346 344 c 0
 347 341 349 256 350 116 c 0
 350 96 349 80 349 79 c 0
 346 76 268 76 256 78 c 0
 252 79 245 80 240 81 c 0
 235 81 230 82 228 83 c 0
 227 84 222 86 218 86 c 0
 211 87 203 91 181 103 c 0
 169 109 146 133 139 145 c 0
 136 151 132 156 131 157 c 0
 130 158 129 160 129 162 c 0
 129 163 128 166 126 168 c 0
 125 170 124 173 124 174 c 0
 124 176 122 182 119 190 c 0
 113 208 115 262 122 269 c 0
 123 270 124 272 124 273 c 0
 124 275 128 284 132 292 c 0
 140 308 144 313 158 327 c 0
 167 337 175 344 179 346 c 0
 183 348 188 351 191 353 c 0
 194 355 198 357 202 358 c 0
 205 359 208 360 208 361 c 0
 209 362 210 363 212 363 c 0
 214 363 216 363 218 364 c 0
 229 370 233 371 260 370 c 0
 276 370 289 369 292 368 c 0
 294 367 299 366 302 364 c 0
EndSplineSet
EndChar

StartChar: uni0065
Encoding: 101 101 37
Width: 443
Flags: W
LayerCount: 2
Fore
SplineSet
203 448 m 0
 194 447 185 446 183 445 c 0
 180 444 175 443 173 442 c 0
 170 441 164 439 159 437 c 0
 155 436 150 434 148 433 c 0
 147 432 144 431 142 431 c 0
 140 430 136 428 134 426 c 0
 131 424 123 418 117 414 c 0
 102 404 78 379 78 373 c 0
 78 372 76 369 74 367 c 0
 71 364 68 359 66 355 c 0
 64 352 61 346 59 343 c 0
 57 340 55 335 54 331 c 0
 53 327 51 322 49 318 c 0
 47 313 41 294 41 290 c 0
 41 289 40 286 40 283 c 0
 35 267 31 206 35 201 c 0
 36 200 37 196 38 192 c 1
 38 187 40 180 41 176 c 0
 43 172 45 166 45 164 c 0
 46 161 47 156 48 153 c 0
 49 150 50 146 51 143 c 0
 51 141 53 137 55 134 c 0
 56 132 58 129 58 128 c 0
 58 127 59 124 61 122 c 0
 62 120 65 115 67 111 c 0
 69 107 75 99 79 94 c 0
 84 88 87 83 87 82 c 0
 87 80 111 58 117 53 c 0
 120 51 127 47 132 43 c 0
 137 39 143 35 146 34 c 0
 149 33 153 31 155 29 c 0
 157 28 159 27 160 27 c 0
 161 27 165 25 168 23 c 0
 173 19 179 17 188 16 c 0
 190 15 193 14 194 13 c 0
 195 12 197 11 200 11 c 0
 202 11 206 10 207 9 c 0
 209 8 213 7 217 7 c 0
 221 7 225 6 227 5 c 0
 231 2 284 3 295 6 c 0
 299 7 306 9 311 10 c 0
 315 11 320 12 321 13 c 0
 322 13 325 14 328 15 c 0
 330 15 333 16 333 17 c 0
 334 18 335 18 337 18 c 0
 339 18 342 19 345 21 c 0
 347 23 350 24 352 24 c 0
 353 24 361 27 368 31 c 0
 376 35 383 38 384 38 c 0
 385 38 390 41 395 46 c 0
 399 50 405 55 406 56 c 0
 409 58 409 59 410 96 c 1
 410 140 410 140 400 131 c 0
 394 125 362 108 358 108 c 0
 357 108 356 107 355 106 c 0
 351 101 335 95 324 94 c 0
 319 94 312 93 310 92 c 0
 308 91 305 90 303 90 c 0
 302 90 300 89 299 88 c 0
 292 80 237 81 215 90 c 1
 185 100 144 130 140 143 c 0
 139 145 137 150 134 154 c 0
 131 158 129 162 129 163 c 0
 129 164 129 165 128 166 c 0
 122 169 115 206 115 231 c 0
 115 249 115 248 122 248 c 1
 125 249 129 249 131 250 c 0
 143 252 162 252 226 253 c 0
 266 253 299 254 301 254 c 2
 325 254 l 1
 382 253 399 254 404 254 c 2
 409 255 l 1
 409 269 l 2
 409 276 409 286 408 291 c 0
 407 295 406 302 405 307 c 0
 405 311 403 318 401 322 c 0
 399 326 397 332 397 334 c 0
 396 337 395 340 393 341 c 1
 391 345 l 1
 391 359 344 412 322 423 c 0
 319 425 313 428 310 431 c 0
 306 434 302 436 301 436 c 2
 301 436 299 436 297 437 c 0
 295 439 292 440 290 440 c 0
 288 440 285 441 283 442 c 0
 279 445 270 447 255 447 c 1
 247 448 239 448 237 449 c 0
 232 451 223 451 220 450 c 0
 219 449 211 448 203 448 c 0
271 368 m 0
 273 368 283 361 290 354 c 0
 292 352 296 349 299 347 c 0
 305 342 320 323 320 320 c 0
 320 319 321 317 322 316 c 0
 325 313 325 303 321 302 c 0
 316 301 183 299 148 299 c 1
 128 300 127 300 133 313 c 0
 137 324 167 362 173 363 c 0
 175 364 178 366 182 368 c 0
 185 370 189 372 192 373 c 0
 194 373 200 375 206 376 c 0
 212 377 217 378 217 379 c 0
 220 382 248 378 258 373 c 0
 264 370 270 368 271 368 c 0
EndSplineSet
EndChar

StartChar: uni0066
Encoding: 102 102 38
Width: 325
Flags: W
LayerCount: 2
Fore
SplineSet
243 683 m 0
 231 682 219 679 207 674 c 0
 204 672 200 671 199 671 c 0
 198 671 196 670 196 669 c 0
 195 668 191 666 186 664 c 0
 181 662 176 658 173 655 c 0
 171 653 168 651 167 651 c 0
 161 651 126 610 122 597 c 0
 121 595 119 591 118 590 c 0
 116 589 115 587 116 585 c 0
 116 583 115 580 114 577 c 0
 112 574 111 571 111 569 c 0
 111 567 110 565 109 565 c 1
 109 564 108 563 108 561 c 0
 108 559 107 555 106 552 c 0
 105 549 103 541 103 534 c 0
 103 527 102 520 101 518 c 0
 100 517 100 514 100 513 c 0
 100 512 99 507 99 503 c 0
 98 498 97 486 97 476 c 0
 96 446 97 449 90 448 c 0
 87 448 82 448 80 449 c 0
 77 450 75 450 73 449 c 0
 71 448 62 448 51 447 c 0
 40 447 31 447 30 446 c 0
 27 444 30 374 33 371 c 0
 35 370 43 370 71 370 c 0
 87 370 92 369 94 365 c 0
 96 362 96 361 98 279 c 0
 98 249 99 222 100 221 c 0
 101 218 101 206 100 205 c 0
 98 204 99 161 101 153 c 0
 101 149 102 133 102 116 c 1
 101 100 101 84 101 82 c 2
 101 19 l 1
 100 -1 98 1 136 0 c 1
 182 0 181 -1 180 27 c 0
 179 43 179 92 178 152 c 0
 178 161 178 170 179 171 c 0
 182 174 182 184 180 187 c 0
 179 189 177 217 178 230 c 1
 178 312 l 1
 177 374 175 369 195 369 c 0
 202 369 215 370 224 370 c 1
 232 371 242 371 245 371 c 0
 249 371 257 371 263 370 c 2
 275 369 l 1
 277 375 l 2
 279 380 280 398 278 416 c 0
 278 419 277 428 277 435 c 0
 277 451 278 450 257 450 c 0
 248 450 233 451 224 451 c 0
 214 451 201 451 193 450 c 0
 186 450 179 450 178 451 c 0
 175 452 176 491 179 506 c 0
 180 512 181 518 180 519 c 0
 180 520 181 522 182 524 c 0
 183 526 184 530 184 533 c 0
 184 542 186 550 191 556 c 0
 193 559 196 564 197 567 c 0
 203 580 225 596 240 599 c 0
 262 602 275 602 276 601 c 0
 277 600 282 600 286 599 c 1
 294 599 300 598 308 594 c 0
 319 589 323 588 324 588 c 0
 326 588 328 587 331 585 c 0
 339 579 339 581 339 623 c 0
 339 663 338 666 330 666 c 0
 328 666 326 667 324 668 c 0
 322 670 319 671 317 671 c 0
 316 671 313 672 311 673 c 0
 309 675 306 676 303 677 c 0
 301 677 297 678 294 679 c 0
 280 682 275 683 266 684 c 1
 256 684 l 1
 256 684 250 683 243 683 c 0
EndSplineSet
EndChar

StartChar: uni0067
Encoding: 103 103 39
Width: 473
Flags: MW
HStem: -339 88<162.5 190> -323 71<304.5 332> -101 72<278 284> -97 100<193 206> -95 76 116 88<181 221> 371 58<140 197> 371 80<195 292 252.5 368.5>
VStem: 31 87<-228 -206.5> 43 87<-135 -133.5> 47 71<-256.5 -206.5> 58 83<-124.5 -107> 70 69 356 84
LayerCount: 2
Fore
SplineSet
292 451 m 1x0514
 213 451 204 450 194 448 c 0
 180 445 163 439 160 437 c 0
 158 436 156 435 154 435 c 0
 152 435 149 434 148 433 c 0
 146 431 143 430 141 429 c 0
 139 429 133 425 128 421 c 0
 123 416 118 413 117 413 c 0
 110 413 68 357 68 347 c 0
 68 346 67 344 66 343 c 0
 65 342 64 340 64 338 c 0
 64 336 63 333 62 330 c 1
 60 328 60 326 60 325 c 0
 61 324 60 320 59 317 c 0
 56 309 55 261 58 257 c 0x0614
 59 255 60 250 60 246 c 0
 61 242 62 237 63 236 c 0
 64 234 65 231 65 229 c 0
 65 227 66 225 67 224 c 0
 68 223 69 221 70 219 c 0x060c
 70 217 72 213 74 210 c 0
 75 207 78 202 80 198 c 0
 84 190 126 148 134 144 c 0
 145 139 147 132 137 132 c 0
 136 132 127 125 109 110 c 0
 106 108 102 103 100 100 c 0
 98 97 93 91 89 87 c 0
 77 73 73 64 73 41 c 0
 73 27 73 21 75 19 c 0
 76 18 76 16 76 14 c 0
 76 12 77 9 78 7 c 0
 79 5 80 2 80 0 c 0
 80 -2 82 -5 85 -8 c 0
 88 -11 90 -15 91 -17 c 0
 92 -23 116 -47 125 -51 c 0
 133 -55 131 -63 121 -63 c 0
 117 -63 95 -75 89 -80 c 1
 86 -84 81 -88 78 -89 c 0
 72 -93 58 -106 58 -108 c 0x0614
 58 -109 57 -111 55 -113 c 0
 54 -114 52 -117 51 -119 c 0
 50 -122 48 -126 46 -128 c 0
 44 -131 43 -133 43 -134 c 2x0644
 43 -134 42 -136 41 -137 c 0
 39 -140 34 -152 31 -163 c 0
 30 -167 28 -172 28 -174 c 0
 26 -179 27 -210 29 -217 c 0
 30 -220 31 -225 31 -227 c 0x0684
 31 -229 32 -231 33 -232 c 0
 34 -232 36 -236 38 -241 c 0
 40 -246 43 -251 45 -252 c 0
 46 -253 47 -255 47 -256 c 0x4624
 47 -257 49 -260 52 -263 c 0
 56 -266 58 -270 58 -270 c 1
 58 -273 81 -295 87 -298 c 0
 90 -299 95 -302 97 -304 c 0
 100 -306 106 -309 110 -311 c 2
 132 -322 l 2
 140 -326 150 -329 153 -330 c 0
 156 -331 164 -333 171 -335 c 0
 179 -337 187 -339 190 -339 c 0x8414
 193 -340 197 -340 199 -341 c 0
 206 -345 275 -342 284 -337 c 0
 286 -335 288 -335 289 -335 c 0
 290 -336 292 -335 294 -334 c 0
 296 -333 301 -332 304 -332 c 0
 311 -331 325 -327 327 -325 c 0
 328 -324 330 -323 331 -323 c 0
 333 -323 340 -321 347 -317 c 0
 354 -314 361 -311 362 -311 c 0
 366 -311 400 -282 406 -273 c 0
 408 -270 412 -264 415 -261 c 0
 423 -251 437 -224 440 -213 c 0
 442 -208 444 -178 443 -176 c 0
 443 -175 442 -169 442 -162 c 0
 442 -154 441 -148 440 -147 c 0
 439 -146 437 -141 437 -136 c 0
 436 -130 435 -127 433 -125 c 0
 432 -124 429 -120 427 -116 c 0
 423 -108 394 -77 388 -76 c 0
 385 -75 380 -72 376 -69 c 0
 372 -66 367 -63 365 -62 c 0
 363 -62 358 -59 355 -57 c 0
 352 -54 348 -52 346 -52 c 0
 344 -52 342 -51 340 -50 c 0
 339 -49 336 -48 335 -48 c 0
 334 -48 330 -46 326 -44 c 0
 322 -42 318 -41 317 -41 c 0
 316 -41 314 -40 312 -38 c 0
 311 -37 308 -36 306 -36 c 0
 304 -36 301 -36 301 -35 c 0
 301 -34 298 -34 296 -34 c 0
 294 -34 291 -33 290 -31 c 1
 288 -30 285 -29 283 -29 c 0x6414
 280 -29 278 -29 277 -28 c 0
 276 -27 272 -26 268 -26 c 0
 264 -25 259 -24 258 -23 c 0
 256 -22 253 -21 250 -21 c 1
 248 -20 244 -19 241 -19 c 1x0c14
 239 -18 234 -16 231 -14 c 0
 228 -12 225 -10 224 -10 c 0
 222 -10 216 -7 204 -1 c 0
 200 1 196 3 193 3 c 0
 189 4 167 25 164 30 c 0
 160 38 157 62 160 67 c 0
 161 69 162 71 162 73 c 0
 162 77 181 97 189 100 c 0
 192 102 196 104 199 106 c 0
 201 108 204 109 206 109 c 0
 207 109 211 111 213 113 c 0
 216 115 219 116 220 116 c 0
 222 116 224 117 226 118 c 0
 230 120 237 121 249 122 c 0
 251 123 255 124 258 124 c 1
 260 125 265 127 267 128 c 1
 270 128 273 129 274 129 c 0
 278 130 290 135 294 138 c 2
 302 142 l 1
 305 142 310 145 313 148 c 0
 316 151 321 154 324 156 c 0
 331 159 347 176 353 186 c 0
 356 190 360 196 362 198 c 0
 364 201 366 205 367 207 c 0
 367 209 370 213 372 216 c 0
 374 220 376 224 376 225 c 0
 376 227 376 229 377 231 c 0
 380 236 382 243 383 251 c 0
 384 256 385 261 386 262 c 0
 390 269 387 312 381 327 c 0
 380 329 380 332 379 334 c 1
 379 338 376 346 373 351 c 0
 372 354 371 357 371 358 c 0
 371 359 369 362 368 364 c 0
 364 369 364 371 367 371 c 0x1614
 370 371 387 372 413 372 c 1
 434 373 437 377 432 401 c 0
 431 405 431 417 431 427 c 0
 430 451 430 451 416 451 c 0
 413 451 407 452 403 452 c 0
 392 454 361 455 359 453 c 0
 358 452 337 452 292 451 c 1x0514
297 333 m 0
 297 331 299 327 301 325 c 0
 303 323 304 320 304 318 c 0
 304 316 307 309 310 301 c 0
 314 289 308 252 298 241 c 0
 297 239 293 234 291 230 c 0
 283 220 267 207 253 201 c 0
 237 194 197 195 189 202 c 0
 187 203 185 204 183 204 c 0
 179 204 160 220 150 231 c 0
 143 240 139 246 137 257 c 0
 136 259 135 263 134 265 c 0
 129 272 133 313 138 318 c 0
 139 319 139 321 139 322 c 0
 139 331 167 359 181 366 c 0
 191 370 194 371 196 371 c 0x050c
 198 371 200 372 202 373 c 0
 206 375 230 375 239 373 c 0
 265 366 294 346 297 333 c 0
272 -99 m 0
 274 -100 277 -101 279 -101 c 0
 282 -101 294 -106 300 -109 c 0
 301 -110 306 -112 311 -115 c 0
 322 -120 346 -144 349 -152 c 0
 350 -155 352 -162 354 -168 c 0
 357 -175 357 -179 356 -181 c 0
 356 -182 355 -186 355 -190 c 0
 355 -193 354 -198 353 -200 c 0
 352 -202 350 -207 349 -212 c 0
 347 -223 332 -240 320 -245 c 0
 317 -246 313 -248 311 -249 c 0
 309 -251 307 -252 305 -252 c 0
 304 -252 301 -253 298 -255 c 0
 293 -257 281 -261 270 -263 c 0
 248 -268 247 -268 240 -266 c 0
 236 -265 229 -264 225 -264 c 0
 209 -264 189 -260 170 -252 c 0x6414
 168 -251 165 -251 163 -251 c 0
 162 -251 159 -249 157 -248 c 0
 155 -246 151 -244 148 -243 c 0
 143 -242 132 -231 129 -225 c 0
 128 -222 125 -218 123 -215 c 0
 120 -212 118 -208 118 -207 c 0x8484
 118 -206 117 -201 116 -196 c 0
 114 -187 114 -175 116 -168 c 0
 117 -165 119 -160 120 -155 c 0
 121 -151 123 -145 125 -143 c 0
 128 -140 130 -136 130 -134 c 0x8444
 131 -131 133 -129 136 -128 c 0
 139 -126 141 -125 141 -124 c 0
 141 -121 171 -105 177 -105 c 0
 178 -105 180 -104 182 -103 c 0
 184 -102 186 -101 187 -101 c 0xa414
 188 -102 191 -101 192 -100 c 0
 194 -99 199 -98 204 -97 c 0x1414
 208 -97 213 -96 214 -95 c 0x0c14
 218 -94 251 -94 261 -96 c 0
 266 -97 270 -98 272 -99 c 0
EndSplineSet
EndChar

StartChar: uni0068
Encoding: 104 104 40
Width: 446
Flags: MW
HStem: 377 43<173.5 212> 377 68<257 294>
VStem: 50 85<428 615 542.5 559 559 592 592 615 542.5 617> 327 83<4 123 184 184.5 9 197 184 184>
LayerCount: 2
Fore
SplineSet
110 677 m 0xb0
 106 677 101 676 99 676 c 0
 97 675 89 674 81 673 c 0
 67 672 61 672 53 670 c 0
 48 669 45 626 50 617 c 0
 51 615 51 609 50 592 c 0
 48 575 48 568 50 559 c 0
 51 553 51 546 50 542 c 0
 49 537 49 481 50 428 c 1
 50 399 l 1
 50 379 l 1
 50 348 l 2
 50 326 51 263 51 244 c 0
 51 239 52 185 51 182 c 1
 51 166 51 24 52 17 c 0
 53 4 55 3 71 2 c 0
 78 2 84 1 85 0 c 0
 87 -1 121 0 124 1 c 0
 125 2 128 3 130 3 c 0
 137 3 141 16 137 24 c 0
 136 25 135 78 134 163 c 0
 134 239 133 304 133 308 c 0
 133 313 133 315 135 317 c 0
 137 319 141 323 143 327 c 0
 146 331 149 335 150 335 c 0
 151 336 153 339 156 342 c 0
 158 344 163 349 167 351 c 1
 170 354 176 359 179 361 c 0
 182 364 188 368 192 370 c 0
 196 372 200 374 201 375 c 0
 203 376 207 377 212 377 c 1x70
 216 378 223 378 226 379 c 0
 233 381 251 380 253 378 c 0
 254 377 256 377 258 377 c 0xb0
 268 377 297 354 302 342 c 0
 303 339 305 335 307 333 c 0
 308 331 310 327 311 324 c 0
 312 321 314 317 315 316 c 0
 316 315 317 313 317 312 c 0
 317 309 321 293 323 286 c 0
 324 284 325 276 325 269 c 0
 325 261 326 252 326 248 c 0
 328 223 329 204 327 197 c 1
 327 184 l 1
 328 181 328 163 328 145 c 0
 329 66 329 68 328 28 c 2
 327 4 l 1
 331 2 l 2
 334 0 338 0 358 3 c 1
 373 3 l 1
 385 0 401 2 406 6 c 2
 410 9 l 1
 410 123 l 2
 410 246 409 293 407 304 c 0
 406 308 405 315 404 318 c 1
 404 322 403 327 402 330 c 0
 400 334 399 339 398 346 c 0
 397 353 394 360 393 362 c 0
 392 363 391 366 390 369 c 0
 389 372 385 378 381 382 c 0
 378 386 375 390 375 391 c 0
 375 394 355 417 352 417 c 0
 351 417 341 424 330 431 c 0
 324 436 314 440 310 440 c 0
 308 440 306 441 305 442 c 0
 304 443 301 444 299 444 c 0
 298 444 295 445 293 445 c 0x70
 286 449 244 450 237 446 c 0
 234 445 229 443 224 442 c 0
 219 441 212 439 207 437 c 0
 202 434 197 433 195 433 c 0
 194 433 189 430 185 426 c 0
 181 423 176 420 175 420 c 0
 172 420 157 407 147 397 c 0
 138 387 136 386 135 390 c 0
 133 394 133 494 134 503 c 0
 135 507 135 530 135 555 c 0
 135 675 135 675 133 676 c 0
 131 678 119 679 118 678 c 0
 117 677 114 677 110 677 c 0xb0
EndSplineSet
EndChar

StartChar: uni0069
Encoding: 105 105 41
Width: 187
Flags: MW
VStem: 50 87<28 118>
LayerCount: 2
Fore
SplineSet
53 584 m 0
 52 582 52 577 51 574 c 0
 48 560 56 543 69 537 c 0
 72 535 76 533 77 531 c 0
 80 528 88 526 91 528 c 0
 93 529 97 529 101 530 c 0
 118 531 124 535 133 547 c 0
 137 553 141 571 140 577 c 0
 139 579 139 584 139 586 c 0
 139 591 134 599 129 603 c 0
 124 607 116 612 115 611 c 0
 114 611 110 611 106 612 c 0
 102 614 92 614 85 614 c 2
 71 614 l 1
 66 609 l 2
 60 603 54 590 53 584 c 0
50 377 m 0
 51 253 51 228 51 207 c 2
 51 160 l 2
 51 145 51 126 50 118 c 0
 50 111 50 100 51 95 c 0
 52 89 52 68 53 48 c 1
 53 9 54 6 60 5 c 1
 64 3 102 4 112 5 c 0
 138 8 137 6 137 50 c 1
 136 86 136 152 136 170 c 0
 136 187 135 327 134 392 c 0
 134 414 134 435 135 439 c 0
 136 452 131 457 116 456 c 0
 112 455 107 455 106 455 c 0
 72 456 57 456 55 455 c 0
 50 453 50 450 50 377 c 0
EndSplineSet
EndChar

StartChar: uni006A
Encoding: 106 106 42
Width: 186
Flags: MW
HStem: 454 21G<85 113 85 85> 538 77<78 78>
VStem: 55 80<365 412 365 455> 57 81<-70.5 125 -62 125>
LayerCount: 2
Fore
SplineSet
56 558 m 0xc0
 57 551 66 540 72 540 c 0
 73 540 76 539 78 538 c 0
 92 528 126 544 130 563 c 0
 131 566 132 572 133 576 c 0
 137 595 127 611 109 615 c 0
 105 616 100 617 98 618 c 0
 92 620 86 619 79 615 c 0
 59 602 52 585 56 558 c 0xc0
55 412 m 1xe0
 57 317 58 62 57 -7 c 1
 57 -62 l 2
 57 -79 57 -91 56 -94 c 0
 55 -96 54 -106 54 -116 c 0
 54 -133 53 -141 49 -152 c 0
 47 -158 47 -158 40 -171 c 0
 35 -179 25 -191 20 -193 c 0
 19 -193 15 -195 12 -197 c 0
 4 -203 -5 -206 -14 -206 c 0
 -30 -206 -33 -211 -23 -222 c 0
 -19 -226 -16 -230 -16 -231 c 0
 -15 -233 2 -252 18 -269 c 0
 34 -286 38 -288 47 -282 c 0
 49 -280 54 -278 57 -276 c 0
 61 -274 67 -271 71 -268 c 0
 74 -265 79 -262 81 -260 c 1
 88 -257 97 -248 100 -241 c 0
 102 -238 105 -233 107 -231 c 0
 116 -220 130 -188 130 -176 c 0
 130 -172 130 -168 131 -166 c 0
 133 -164 134 -143 136 -109 c 0
 137 -102 137 -47 138 13 c 1
 138 125 l 1
 138 161 l 1xd0
 137 189 136 295 135 365 c 0
 135 376 136 392 136 400 c 0
 139 449 138 460 131 455 c 0
 129 454 124 453 113 454 c 1
 85 454 l 1
 78 455 68 455 64 456 c 1
 58 456 56 456 55 455 c 1
 55 412 l 1xe0
EndSplineSet
EndChar

StartChar: uni006B
Encoding: 107 107 43
Width: 488
Flags: MW
HStem: 2 11
VStem: 55 81<320 404.5>
LayerCount: 2
Fore
SplineSet
83 676 m 0
 81 676 79 676 78 675 c 0
 78 674 75 673 73 673 c 0
 50 669 49 668 50 655 c 0
 51 643 51 637 50 614 c 0
 50 602 50 593 51 592 c 0
 52 590 53 572 53 550 c 0
 54 500 55 414 55 395 c 0
 55 185 55 24 54 13 c 1
 54 -3 54 -4 63 -2 c 0
 69 0 79 0 95 0 c 0
 125 -1 144 5 138 14 c 0
 137 16 136 19 137 25 c 0
 138 35 138 34 137 122 c 0
 136 164 136 253 136 320 c 2
 136 450 l 1
 136 475 l 2
 136 485 136 520 137 554 c 1
 137 599 138 617 139 620 c 0
 141 625 140 626 137 632 c 0
 133 638 133 639 135 650 c 1
 135 656 136 662 135 662 c 1
 135 663 136 666 137 669 c 0
 141 677 137 680 124 678 c 0
 113 677 109 677 98 678 c 0
 94 679 90 679 89 678 c 0
 87 677 85 676 83 676 c 0
397 451 m 0
 396 452 392 452 388 452 c 0
 382 451 354 450 334 449 c 0
 331 449 328 448 325 445 c 0
 276 395 255 372 255 368 c 1
 255 368 250 361 244 354 c 0
 229 337 225 331 222 326 c 0
 219 322 202 301 194 293 c 0
 191 290 187 285 185 282 c 0
 183 279 173 267 162 256 c 0
 134 228 133 225 154 212 c 0
 161 207 186 183 198 169 c 0
 216 148 225 138 271 92 c 0
 343 21 355 9 358 8 c 0
 360 7 362 5 364 3 c 1
 366 -2 366 -2 373 -1 c 0
 383 1 418 2 441 2 c 0
 460 2 461 2 464 5 c 0
 466 8 466 13 464 13 c 0
 462 13 447 28 437 39 c 0
 433 44 395 83 352 125 c 0
 306 171 273 206 270 211 c 0
 267 215 261 223 257 227 c 0
 252 232 250 236 250 238 c 0
 250 242 250 243 278 273 c 0
 287 282 296 293 299 297 c 0
 310 311 316 318 342 345 c 0
 371 375 400 405 413 419 c 0
 417 424 424 431 428 434 c 0
 436 441 440 449 435 449 c 0
 434 449 431 450 429 451 c 0
 425 454 423 454 421 453 c 1
 420 451 399 450 397 451 c 0
EndSplineSet
EndChar

StartChar: uni006C
Encoding: 108 108 44
Width: 182
Flags: MW
VStem: 51 80
LayerCount: 2
Fore
SplineSet
107 673 m 0
 104 673 100 673 98 672 c 0
 97 671 90 670 84 670 c 0
 77 670 72 669 70 667 c 0
 68 666 63 665 59 665 c 2
 51 664 l 1
 51 659 l 1
 50 655 50 588 51 546 c 0
 51 545 51 535 50 524 c 0
 48 492 48 448 50 444 c 0
 51 440 53 334 52 274 c 1
 52 161 l 2
 52 146 52 137 51 136 c 0
 49 133 50 19 52 7 c 0
 53 0 53 -1 56 0 c 1
 69 0 l 1
 121 -1 131 0 133 7 c 0
 136 19 136 22 134 28 c 0
 133 34 133 51 131 349 c 0
 131 424 130 519 130 559 c 0
 128 666 128 664 136 671 c 0
 142 676 132 679 120 675 c 0
 116 674 110 673 107 673 c 0
EndSplineSet
EndChar

StartChar: uni006D
Encoding: 109 109 45
Width: 736
Flags: W
LayerCount: 2
Fore
SplineSet
90 447 m 0
 84 446 76 444 72 443 c 0
 68 442 63 441 61 441 c 0
 53 441 53 440 52 401 c 1
 52 362 l 2
 52 353 53 220 54 190 c 0
 54 171 55 154 55 153 c 2
 55 128 l 1
 54 24 54 4 57 1 c 0
 59 -1 64 -2 65 0 c 0
 67 3 81 5 89 3 c 0
 97 2 103 2 111 4 c 0
 115 4 117 3 120 1 c 0
 125 -3 128 -3 132 2 c 0
 134 4 133 44 131 55 c 0
 129 61 128 167 129 217 c 1
 129 225 l 1
 129 269 l 1
 129 309 l 1
 133 317 l 2
 141 332 170 362 180 365 c 0
 183 366 187 368 188 369 c 0
 191 372 198 375 204 375 c 0
 207 375 210 376 212 377 c 0
 216 379 248 380 251 377 c 0
 253 376 257 375 260 375 c 0
 273 373 292 360 301 347 c 0
 303 344 306 340 307 338 c 0
 310 334 315 322 316 312 c 0
 317 308 318 302 319 298 c 0
 320 295 321 282 321 270 c 0
 321 258 322 245 322 241 c 1
 324 235 324 212 323 153 c 0
 323 135 325 21 326 19 c 0
 326 18 326 15 324 12 c 0
 321 5 326 1 337 3 c 0
 344 4 364 5 384 4 c 0
 392 3 397 4 399 5 c 0
 400 6 403 7 404 6 c 0
 409 4 412 27 408 38 c 0
 406 42 406 47 407 59 c 0
 408 70 408 77 407 79 c 1
 407 82 407 86 408 91 c 0
 409 97 409 100 408 102 c 0
 406 104 406 106 407 110 c 0
 408 113 409 116 408 119 c 0
 407 122 407 125 407 126 c 0
 408 127 408 131 408 134 c 0
 407 146 407 158 408 159 c 1
 408 186 l 2
 408 208 408 214 410 218 c 0
 412 222 412 223 410 225 c 0
 408 227 408 229 409 234 c 0
 409 237 408 244 407 248 c 0
 405 257 405 264 407 301 c 0
 407 316 407 318 411 322 c 0
 413 325 415 329 416 332 c 0
 419 338 440 359 446 362 c 0
 449 363 454 366 458 369 c 0
 462 372 469 375 476 377 c 0
 482 378 489 380 492 381 c 0
 520 389 543 383 564 362 c 0
 573 353 576 349 576 346 c 0
 576 344 577 341 578 340 c 0
 581 336 590 313 589 310 c 0
 588 309 589 307 590 305 c 0
 591 303 592 296 592 284 c 0
 592 274 593 263 594 261 c 0
 594 259 595 256 595 255 c 0
 595 254 595 235 596 214 c 0
 596 193 597 139 597 93 c 2
 598 11 l 1
 601 8 l 2
 606 4 677 6 682 10 c 0
 685 13 686 20 683 27 c 1
 682 33 681 116 682 127 c 0
 683 131 683 139 683 143 c 0
 683 165 682 211 681 234 c 0
 681 248 680 272 680 286 c 0
 679 316 679 321 677 323 c 0
 676 325 675 333 675 338 c 0
 675 340 674 343 673 345 c 0
 671 347 671 349 671 350 c 1
 672 350 671 352 671 353 c 0
 670 355 668 358 668 360 c 0
 666 370 662 377 658 382 c 2
 654 388 l 1
 654 394 628 420 623 420 c 0
 622 420 619 422 615 425 c 0
 607 432 587 442 578 444 c 0
 554 449 547 450 541 449 c 0
 539 448 535 448 534 449 c 0
 532 450 530 450 528 449 c 0
 527 449 520 448 513 447 c 0
 501 446 488 444 482 440 c 0
 480 439 476 438 473 437 c 0
 470 436 465 433 462 431 c 0
 459 429 454 426 451 424 c 0
 443 421 418 397 404 381 c 0
 392 367 390 367 385 379 c 1
 385 382 382 386 380 388 c 0
 378 390 375 395 373 399 c 0
 369 407 357 419 346 427 c 0
 341 430 334 434 330 437 c 0
 325 441 321 442 316 443 c 0
 309 444 304 445 294 449 c 0
 280 454 271 454 243 450 c 0
 212 446 188 435 167 415 c 0
 161 410 154 404 152 403 c 0
 149 401 147 399 147 398 c 0
 147 395 136 386 134 387 c 0
 130 389 130 437 133 443 c 0
 138 452 128 456 109 451 c 0
 104 450 96 448 90 447 c 0
EndSplineSet
EndChar

StartChar: uni006E
Encoding: 110 110 46
Width: 457
Flags: MW
HStem: 374 49<184.377 202.877> 374 76<270.877 292.377>
VStem: 54.377 83 323.377 80 327.377 80
LayerCount: 2
Fore
SplineSet
247.377 449 m 0x70
 235.377 448 229.377 446 224.377 443 c 0
 221.377 442 218.377 441 217.377 441 c 0
 213.377 441 199.377 433 192.377 427 c 0
 189.377 425 186.377 423 185.377 423 c 0xb0
 183.377 423 172.377 414 161.377 404 c 1
 156.377 401 151.377 396 148.377 395 c 0
 145.377 393 142.377 391 140.377 389 c 0
 137.377 386 134.377 386 134.377 390 c 0
 133.377 401 133.377 420 134.377 422 c 0
 136.377 425 136.377 448 134.377 450 c 0
 132.377 451 113.377 450 92.377 446 c 0
 85.377 445 79.377 444 79.377 445 c 1
 78.377 445 76.377 445 75.377 443 c 1
 73.377 442 68.377 441 63.377 440 c 0
 49.377 439 49.377 441 50.377 402 c 0
 50.377 384 50.377 367 51.377 366 c 0
 52.377 364 52.377 360 52.377 356 c 0
 50.377 341 50.377 296 52.377 293 c 0
 52.377 292 53.377 284 54.377 275 c 1
 54.377 179 l 2
 54.377 171 54.377 138 55.377 106 c 1
 55.377 73 56.377 38 56.377 26 c 0
 56.377 1 54.377 3 80.377 2 c 0
 143.377 -1 143.377 -1 140.377 26 c 0
 139.377 39 136.377 114 137.377 138 c 1
 137.377 239 l 1
 136.377 261 136.377 289 136.377 300 c 2
 137.377 320 l 1
 141.377 326 l 2
 149.377 337 162.377 350 169.377 355 c 0
 172.377 357 177.377 361 180.377 363 c 0
 182.377 365 186.377 367 187.377 367 c 0
 189.377 367 192.377 368 194.377 370 c 0
 197.377 372 200.377 374 202.377 374 c 0
 203.377 374 206.377 375 208.377 376 c 0
 216.377 381 245.377 384 253.377 380 c 0
 255.377 379 258.377 378 260.377 378 c 0
 262.377 378 265.377 377 266.377 376 c 0
 268.377 375 270.377 374 271.377 374 c 0
 275.377 374 287.377 365 291.377 360 c 0
 293.377 358 297.377 353 301.377 349 c 0
 310.377 338 317.377 322 318.377 308 c 0
 318.377 305 318.377 300 319.377 299 c 0
 320.377 297 321.377 287 322.377 276 c 0
 323.377 253 323.377 253 322.377 234 c 0
 322.377 223 322.377 219 323.377 217 c 0x70
 325.377 214 325.377 208 326.377 194 c 0
 326.377 183 326.377 163 327.377 150 c 1
 327.377 102 l 2
 327.377 98 327.377 89 328.377 81 c 0
 328.377 74 329.377 65 329.377 61 c 0
 329.377 51 327.377 30 327.377 23 c 1
 325.377 11 333.377 8 363.377 10 c 1
 388.377 10 l 1
 408.377 10 l 1
 409.377 14 l 2
 410.377 16 410.377 18 410.377 19 c 0
 411.377 20 410.377 24 409.377 28 c 0
 407.377 39 406.377 62 408.377 66 c 0
 409.377 67 409.377 72 408.377 78 c 0
 407.377 84 407.377 89 408.377 90 c 0
 409.377 92 409.377 115 407.377 146 c 1
 407.377 166 l 1
 407.377 189 l 1
 406.377 200 407.377 215 407.377 221 c 0x68
 408.377 239 407.377 287 406.377 293 c 0
 406.377 295 405.377 304 405.377 312 c 0
 405.377 320 404.377 329 403.377 331 c 0
 402.377 333 401.377 339 401.377 343 c 0
 401.377 348 400.377 354 399.377 357 c 0
 398.377 359 397.377 363 397.377 364 c 0
 397.377 365 395.377 368 394.377 371 c 0
 392.377 374 390.377 377 390.377 379 c 0
 390.377 381 388.377 385 385.377 388 c 0
 382.377 391 378.377 397 376.377 400 c 0
 372.377 409 364.377 416 355.377 422 c 0
 351.377 424 345.377 428 342.377 430 c 0
 336.377 435 324.377 440 312.377 444 c 0
 307.377 445 301.377 447 300.377 448 c 0
 298.377 449 294.377 450 290.377 450 c 0
 286.377 450 282.377 450 280.377 451 c 0
 277.377 453 267.377 453 261.377 452 c 0
 257.377 451 252.377 450 247.377 449 c 0x70
EndSplineSet
EndChar

StartChar: uni006F
Encoding: 111 111 47
Width: 516
Flags: MW
HStem: 13 78<188 201.5> 351 89<188.5 196> 365 83<231 292>
VStem: 39 82 55 68 391 75<132 166.5>
LayerCount: 2
Fore
SplineSet
202 442 m 0xac
 200 441 197 440 195 440 c 0
 194 440 190 439 188 438 c 0
 171 432 161 428 160 427 c 0
 160 426 158 426 157 426 c 0
 156 426 152 423 148 421 c 0
 144 418 141 416 140 416 c 0
 139 416 133 412 127 408 c 0
 122 404 114 399 112 397 c 0
 105 392 86 372 81 364 c 0
 78 360 74 355 71 351 c 0
 68 348 64 342 62 338 c 2
 57 328 l 2
 55 324 50 315 45 302 c 0
 43 298 42 294 42 292 c 0
 42 290 41 288 41 288 c 2
 40 287 39 283 39 279 c 0xd4
 38 275 37 270 36 269 c 0
 35 265 32 240 32 224 c 0
 32 212 33 205 36 187 c 0
 37 178 40 164 42 162 c 1
 44 157 47 148 49 142 c 0
 50 139 51 135 53 134 c 0
 54 133 55 131 55 130 c 0
 55 128 56 124 58 122 c 0
 60 119 63 114 64 111 c 0
 66 108 69 103 72 100 c 0
 74 97 81 89 86 82 c 0
 96 69 115 50 123 46 c 0
 126 45 131 41 136 37 c 0
 140 34 144 31 146 31 c 0
 148 31 152 29 155 27 c 0
 158 24 161 22 162 22 c 0
 163 22 167 21 171 19 c 0
 178 15 186 13 190 13 c 0
 192 13 194 12 195 10 c 0
 196 9 198 8 200 8 c 0
 203 8 206 7 209 6 c 0
 211 5 213 4 214 5 c 1
 226 3 l 2
 240 0 284 0 291 2 c 0
 293 3 298 4 302 5 c 0
 306 5 311 6 313 7 c 0
 315 8 320 9 324 10 c 0
 333 13 340 15 346 18 c 0
 348 19 351 20 353 20 c 0
 354 20 358 21 361 24 c 0
 363 26 367 28 368 28 c 0
 370 28 374 30 377 33 c 0
 380 35 387 39 391 42 c 0
 402 48 435 82 445 97 c 0
 450 104 454 110 455 112 c 0
 456 113 458 116 459 119 c 0
 460 122 462 125 463 127 c 1
 465 128 466 131 466 133 c 0
 466 135 467 137 467 138 c 0
 469 139 477 160 478 167 c 0
 479 170 480 174 480 175 c 0
 481 176 482 180 482 184 c 0
 482 188 483 193 484 194 c 0
 487 200 485 247 482 264 c 0
 477 288 477 289 475 292 c 0
 474 294 473 296 474 296 c 1
 474 297 474 299 473 300 c 0
 472 302 470 305 470 307 c 0
 469 309 467 313 465 316 c 0
 464 319 462 322 462 324 c 0
 462 325 461 328 459 330 c 0
 457 332 454 336 453 339 c 0
 452 342 448 348 444 353 c 0
 440 358 437 362 437 363 c 0
 437 366 412 391 402 398 c 0
 396 402 389 407 385 410 c 0
 382 413 378 416 376 416 c 0
 373 417 369 419 366 422 c 0
 363 424 360 426 358 426 c 0
 357 426 349 429 337 435 c 0
 335 436 332 437 330 437 c 0
 328 437 326 438 324 439 c 0
 323 440 320 441 318 441 c 0
 316 441 313 442 313 442 c 2
 313 443 308 444 302 444 c 1
 297 445 292 446 292 447 c 1
 291 447 289 448 287 448 c 2
 262 448 l 1
 250 449 236 448 231 448 c 0
 219 447 206 444 202 442 c 0xac
292 365 m 0xac
 297 364 301 363 302 363 c 1
 302 362 305 361 308 360 c 0
 312 359 315 357 316 356 c 0
 318 355 320 354 323 354 c 1
 325 353 331 349 337 345 c 0
 342 341 348 337 350 336 c 0
 355 333 367 322 370 316 c 0
 371 314 375 308 379 303 c 0
 383 299 386 294 386 293 c 0
 386 291 388 288 390 285 c 0
 392 282 393 278 393 276 c 0
 393 275 394 272 395 271 c 0
 397 269 398 266 398 265 c 0
 398 263 398 260 399 260 c 0
 407 252 401 182 392 171 c 0
 391 169 391 167 391 166 c 0
 391 164 389 160 386 157 c 1
 384 153 380 148 379 144 c 1
 374 135 347 108 336 103 c 1
 325 96 310 89 303 87 c 0
 301 86 298 85 297 84 c 0
 297 83 295 83 292 83 c 0
 290 83 283 82 277 81 c 0
 259 78 230 80 219 85 c 0
 217 86 214 87 212 87 c 0
 211 87 208 88 206 89 c 0
 205 90 202 91 201 91 c 0
 199 91 196 92 193 94 c 0
 190 96 186 98 184 99 c 0
 173 103 142 134 133 150 c 0
 125 166 123 170 120 181 c 0
 119 185 118 191 117 193 c 0
 111 206 114 257 121 271 c 0xb4
 122 273 123 276 123 277 c 0
 123 278 124 281 126 283 c 1
 127 286 129 289 129 291 c 0
 130 294 142 311 147 317 c 0
 149 319 150 320 150 321 c 0
 150 323 155 327 175 342 c 0
 182 347 188 351 189 351 c 0xcc
 190 351 193 353 196 355 c 0
 203 359 213 362 225 365 c 0
 230 366 237 367 239 368 c 0
 246 370 277 369 281 367 c 0
 282 366 287 365 292 365 c 0xac
EndSplineSet
EndChar

StartChar: uni0070
Encoding: 112 112 48
Width: 462
Flags: MW
HStem: 22 69<261.5 301> 371 80
VStem: 44 82<-334 5.5> 331 91<148 162> 340 86<166.5 173> 347 81
LayerCount: 2
Fore
SplineSet
69 449 m 0xe8
 53 449 49 449 46 448 c 2
 42 446 l 1
 42 381 l 2
 42 346 42 307 41 294 c 0
 40 267 39 219 40 218 c 0
 42 214 44 118 44 -18 c 0
 45 -233 45 -330 44 -334 c 0
 41 -343 51 -346 62 -341 c 0
 65 -339 83 -338 83 -339 c 0
 83 -341 89 -340 91 -338 c 0
 92 -336 92 -335 90 -334 c 0
 88 -332 88 -332 89 -331 c 0
 94 -330 110 -326 112 -326 c 0
 114 -326 118 -324 121 -322 c 2
 128 -318 l 1
 127 -232 l 1
 127 -68 l 2
 127 -42 127 -14 126 -4 c 1
 126 15 126 16 136 12 c 0
 168 1 218 -2 251 6 c 0
 256 8 261 8 261 8 c 1
 262 7 264 8 266 9 c 0
 268 10 271 11 273 11 c 0
 275 11 277 12 279 13 c 0
 280 14 283 15 285 15 c 0
 287 15 290 17 293 19 c 0
 296 21 299 22 300 22 c 0
 302 22 308 25 314 29 c 0
 320 32 329 37 333 39 c 0
 343 44 380 81 389 94 c 0
 392 98 396 104 398 106 c 0
 400 109 402 114 404 116 c 1
 405 119 407 123 408 125 c 0
 409 127 411 130 412 133 c 0
 413 136 415 140 417 143 c 0
 418 146 419 148 419 149 c 1
 418 149 419 151 420 153 c 0
 421 155 422 159 422 161 c 0xf0
 422 163 423 166 424 167 c 0
 425 167 426 170 426 172 c 0xe8
 426 174 427 179 428 182 c 0
 429 185 430 191 430 194 c 0
 430 197 431 205 432 211 c 0
 434 225 431 267 428 273 c 0xe4
 427 274 426 277 426 279 c 0
 426 281 426 283 425 283 c 0
 424 284 424 286 424 287 c 0
 424 291 418 306 416 310 c 0
 415 312 414 314 414 315 c 0
 415 316 414 318 412 320 c 0
 410 322 408 326 408 329 c 1
 407 331 405 336 402 339 c 0
 400 341 397 346 396 349 c 0
 395 351 389 359 383 365 c 0
 376 372 370 379 369 382 c 1
 365 386 l 2
 364 386 356 393 346 401 c 0
 337 409 328 416 327 416 c 0
 326 416 321 419 316 422 c 0
 311 426 306 428 305 428 c 0
 304 428 301 430 298 432 c 0
 295 434 292 435 291 435 c 0
 289 435 287 436 286 437 c 0
 284 439 282 440 280 440 c 0
 278 440 275 440 273 441 c 0
 269 444 254 446 238 447 c 0
 231 448 223 449 219 449 c 1
 216 450 194 451 171 451 c 2
 127 451 l 1
 126 452 119 453 118 452 c 0
 118 451 79 449 69 449 c 0xe8
243 367 m 0
 269 361 306 338 318 319 c 0
 321 314 326 307 329 304 c 0
 332 301 334 297 335 295 c 0
 335 293 337 290 339 287 c 0
 341 284 342 280 342 278 c 0
 342 276 343 274 344 274 c 0
 345 273 345 271 345 269 c 0
 345 267 346 264 347 262 c 0
 351 257 353 205 350 196 c 0
 349 194 348 190 347 186 c 0xe4
 346 183 344 177 342 174 c 0
 341 171 340 168 340 167 c 0xe8
 340 166 338 163 335 159 c 0
 333 156 331 152 331 151 c 0
 331 145 287 100 279 99 c 0
 277 98 272 96 270 94 c 0
 267 92 264 91 262 91 c 0
 261 91 258 90 256 89 c 0
 235 77 174 79 146 91 c 1
 128 100 126 103 125 124 c 0
 125 129 124 138 123 146 c 0
 123 153 123 167 124 178 c 0
 126 205 127 227 125 230 c 0
 123 234 123 256 125 258 c 0
 126 259 126 262 126 266 c 0
 125 272 125 291 126 350 c 0
 126 368 128 370 143 371 c 0
 158 372 225 372 231 370 c 0
 233 369 239 368 243 367 c 0
EndSplineSet
EndChar

StartChar: uni0071
Encoding: 113 113 49
Width: 488
Flags: W
LayerCount: 2
Fore
SplineSet
301 450 m 0
 281 450 259 449 253 448 c 0
 246 447 232 446 222 445 c 0
 201 443 194 441 189 438 c 0
 187 436 185 435 183 435 c 0
 182 435 180 435 179 434 c 1
 177 434 170 430 162 426 c 0
 155 423 146 418 143 416 c 1
 141 413 138 412 136 412 c 0
 131 412 79 360 75 351 c 0
 74 348 71 344 69 340 c 1
 66 337 63 332 62 329 c 0
 61 326 59 323 58 321 c 0
 56 319 55 316 55 314 c 0
 55 313 54 309 52 307 c 0
 51 305 49 302 48 299 c 0
 48 297 46 290 44 283 c 0
 35 249 34 210 42 183 c 0
 43 179 44 174 44 172 c 0
 44 170 45 168 46 167 c 0
 47 166 48 163 48 160 c 0
 48 158 49 155 50 154 c 0
 52 153 52 151 52 149 c 0
 52 148 53 145 54 143 c 0
 55 142 57 138 58 135 c 0
 59 132 61 128 62 126 c 0
 64 124 65 121 65 120 c 0
 65 119 67 115 70 111 c 0
 73 107 76 102 77 99 c 0
 81 92 130 43 138 39 c 0
 142 38 148 34 150 32 c 0
 153 30 157 28 159 28 c 0
 161 28 163 27 164 26 c 0
 165 25 168 23 170 22 c 0
 173 21 177 20 181 18 c 0
 187 16 194 13 198 12 c 0
 200 12 202 11 202 10 c 0
 204 9 224 6 237 5 c 0
 252 3 300 4 304 6 c 0
 305 6 309 7 314 8 c 0
 331 11 342 15 350 19 c 0
 356 23 358 20 358 3 c 2
 358 -68 l 1
 358 -153 l 2
 358 -168 357 -191 357 -204 c 0
 357 -282 358 -323 360 -325 c 0
 361 -326 362 -329 362 -332 c 0
 363 -337 372 -338 378 -333 c 0
 381 -331 394 -325 407 -321 c 0
 436 -311 440 -308 440 -283 c 0
 440 -271 442 -267 446 -267 c 0
 451 -267 454 -264 451 -262 c 0
 450 -262 448 -261 446 -262 c 0
 439 -263 434 -245 439 -230 c 0
 440 -224 440 -221 439 -216 c 0
 438 -212 437 -203 437 -195 c 0
 437 -187 438 -164 438 -143 c 0
 438 -123 439 -105 439 -103 c 2
 439 -94 l 1
 439 -64 l 2
 439 -49 439 -37 438 -36 c 0
 437 -33 436 24 436 64 c 2
 436 120 l 1
 436 397 l 1
 436 423 l 1
 435 433 436 440 436 442 c 0
 439 448 435 450 426 449 c 0
 415 447 412 448 392 450 c 0
 382 451 340 452 339 451 c 0
 338 451 321 450 301 450 c 0
352 364 m 0
 355 354 355 350 356 290 c 0
 356 258 357 217 357 199 c 1
 358 182 358 166 358 164 c 0
 357 144 357 131 358 124 c 0
 359 110 358 107 349 100 c 0
 338 92 311 84 307 86 c 0
 306 87 303 86 301 84 c 0
 294 80 255 79 238 83 c 0
 222 87 217 88 216 89 c 0
 215 90 213 91 211 91 c 0
 201 91 150 126 150 134 c 0
 150 135 149 137 147 139 c 0
 145 140 143 143 143 143 c 2
 143 144 142 147 139 149 c 0
 137 151 135 154 135 155 c 0
 135 157 133 160 132 163 c 0
 130 166 128 170 128 172 c 0
 128 173 127 176 125 178 c 0
 124 180 123 183 123 184 c 0
 124 185 123 187 122 189 c 0
 121 191 119 196 119 200 c 0
 119 205 118 209 118 210 c 0
 115 214 116 237 118 249 c 0
 120 256 122 263 122 265 c 2
 125 274 l 1
 127 276 128 279 128 281 c 0
 128 282 130 286 132 289 c 0
 133 292 135 295 135 296 c 0
 135 297 137 301 140 304 c 0
 143 308 147 314 150 317 c 0
 152 320 158 326 163 330 c 0
 168 334 175 340 179 343 c 0
 182 346 186 349 187 349 c 0
 188 349 195 351 202 354 c 0
 208 357 215 360 217 360 c 0
 219 360 221 361 222 361 c 0
 223 363 248 368 260 369 c 0
 265 369 269 370 271 371 c 0
 272 372 276 372 280 371 c 1
 313 371 l 2
 349 371 350 371 352 364 c 0
EndSplineSet
EndChar

StartChar: uni0072
Encoding: 114 114 50
Width: 362
Flags: MW
VStem: 50 86<244 417.5> 50 94<283 284 283 347> 50 103<302.5 303.5 302.5 347> 115 24
LayerCount: 2
Fore
SplineSet
239 454 m 0x20
 237 455 223 450 220 447 c 0
 218 445 214 443 210 441 c 0
 200 437 166 402 151 380 c 0
 135 358 135 358 136 402 c 0x80
 136 433 136 438 139 442 c 0
 143 450 138 454 126 454 c 0
 120 454 115 453 115 452 c 0x10
 114 451 112 451 110 451 c 0
 107 451 104 450 101 449 c 0
 98 448 94 447 91 447 c 0
 89 447 83 446 79 444 c 0
 75 443 67 441 62 440 c 0
 57 439 52 438 51 437 c 0
 50 435 50 409 50 285 c 0x20
 50 203 49 128 49 120 c 0
 47 92 47 47 48 44 c 0
 49 43 50 36 50 30 c 0
 50 23 51 14 51 10 c 0
 51 -3 53 -3 110 -3 c 2
 121 -3 l 2
 134 -3 133 -5 133 42 c 0
 133 168 133 209 135 225 c 0
 136 230 137 235 137 237 c 0
 138 252 141 273 142 276 c 0
 143 279 144 282 144 284 c 0x40
 145 286 147 291 149 294 c 0
 151 298 153 302 153 303 c 0
 153 304 155 307 157 309 c 1
 158 312 161 317 163 320 c 0
 166 327 187 347 194 351 c 0
 219 365 230 367 247 363 c 0
 257 361 271 354 283 344 c 0
 297 333 300 332 307 339 c 0
 312 345 321 358 321 360 c 0
 321 361 324 364 327 368 c 0
 330 372 334 377 335 379 c 0
 340 386 341 388 347 396 c 0
 356 407 355 410 340 424 c 0
 329 434 324 438 321 438 c 0
 319 438 316 440 313 442 c 0
 310 445 307 447 306 447 c 0
 304 447 300 448 295 450 c 0
 291 452 286 454 284 454 c 0
 283 454 280 454 278 455 c 0
 273 458 252 458 246 455 c 0
 243 454 240 454 239 454 c 0x20
EndSplineSet
EndChar

StartChar: uni0073
Encoding: 115 115 51
Width: 336
Flags: W
LayerCount: 2
Fore
SplineSet
136 468 m 0
 135 467 130 466 126 465 c 1
 121 465 116 464 115 463 c 0
 113 461 111 461 109 461 c 0
 108 461 104 459 101 457 c 0
 98 455 95 454 95 454 c 1
 91 454 68 436 66 432 c 0
 64 430 59 423 54 418 c 0
 47 411 44 406 43 402 c 0
 42 399 40 396 39 394 c 0
 38 393 37 390 37 388 c 0
 37 386 36 384 35 382 c 0
 34 380 33 374 32 368 c 0
 32 362 31 356 30 354 c 0
 27 349 30 323 35 318 c 0
 36 317 37 314 36 313 c 0
 35 311 39 299 42 295 c 0
 43 293 44 291 44 289 c 0
 44 287 46 283 50 279 c 0
 53 276 55 272 55 271 c 0
 55 269 70 249 72 249 c 0
 73 249 76 247 80 244 c 1
 83 240 89 237 91 235 c 1
 94 234 98 231 99 230 c 0
 102 227 106 224 117 219 c 0
 119 218 122 215 123 214 c 0
 125 213 129 210 133 208 c 0
 137 207 142 203 145 201 c 0
 164 186 180 181 183 189 c 0
 185 192 186 195 187 195 c 0
 189 195 187 187 185 185 c 0
 181 181 182 178 191 172 c 0
 206 161 219 145 219 139 c 0
 219 137 220 135 222 133 c 0
 225 128 226 109 223 100 c 0
 220 90 217 85 215 85 c 0
 213 84 212 82 211 81 c 0
 208 76 192 63 186 62 c 0
 179 60 139 61 131 63 c 0
 113 68 103 71 99 75 c 0
 97 76 94 77 93 77 c 0
 92 77 87 79 84 82 c 0
 80 85 75 89 72 90 c 0
 65 94 53 104 43 115 c 0
 32 126 29 127 28 118 c 1
 28 107 l 1
 27 104 27 87 27 68 c 0
 26 27 25 29 59 13 c 0
 64 10 70 7 71 6 c 0
 72 5 74 4 74 5 c 1
 75 5 81 3 86 0 c 0
 92 -3 99 -6 102 -6 c 0
 104 -6 110 -8 114 -9 c 0
 131 -14 144 -16 171 -17 c 0
 189 -17 218 -13 227 -9 c 0
 230 -7 234 -5 234 -6 c 2
 234 -6 236 -6 238 -5 c 0
 240 -4 244 -3 246 -2 c 0
 250 -1 290 38 293 43 c 0
 300 58 308 84 309 95 c 0
 311 108 310 133 308 137 c 0
 307 140 306 142 306 142 c 2
 306 143 305 147 303 152 c 0
 301 157 300 163 299 166 c 0
 299 168 296 172 294 175 c 0
 291 178 289 180 289 181 c 0
 289 186 260 218 255 218 c 0
 254 218 252 220 249 222 c 0
 239 231 230 236 224 239 c 0
 221 241 213 246 206 250 c 0
 199 254 191 259 188 260 c 0
 167 270 128 303 126 313 c 0
 125 315 124 319 122 322 c 0
 121 324 119 329 119 333 c 0
 119 336 118 340 118 341 c 0
 116 343 117 347 119 358 c 0
 122 370 127 377 135 381 c 0
 137 382 141 384 143 386 c 0
 146 389 150 391 152 391 c 0
 155 391 163 393 170 395 c 0
 184 397 200 396 216 392 c 0
 219 391 224 390 228 389 c 0
 232 388 237 386 239 385 c 0
 241 383 243 382 244 382 c 0
 247 382 269 371 271 369 c 0
 273 367 287 362 289 363 c 0
 289 364 289 381 290 401 c 1
 290 439 l 1
 286 443 l 2
 284 445 281 447 280 447 c 0
 279 447 275 448 271 450 c 0
 262 455 248 459 239 461 c 1
 234 461 229 463 226 464 c 0
 213 469 209 469 183 470 c 0
 168 470 151 470 146 469 c 0
 141 469 137 468 136 468 c 0
EndSplineSet
EndChar

StartChar: uni0074
Encoding: 116 116 52
Width: 356
Flags: MW
HStem: 1 82<200.5 252 250 277.5> 377 75
VStem: 90 84<167 282>
LayerCount: 2
Fore
SplineSet
107 478 m 0
 104 474 95 464 87 456 c 0
 47 414 23 387 22 384 c 0
 21 378 22 377 55 377 c 0
 77 377 88 377 89 376 c 0
 90 374 90 361 90 203 c 0
 90 165 90 138 91 136 c 0
 92 134 94 106 94 98 c 0
 94 95 95 92 96 90 c 0
 97 88 98 86 97 85 c 0
 97 84 98 81 101 78 c 0
 103 75 105 71 105 70 c 0
 105 68 109 63 115 56 c 0
 120 50 125 44 126 42 c 0
 127 40 131 36 135 33 c 0
 138 30 145 25 149 22 c 0
 152 19 156 17 157 17 c 2
 157 17 162 15 166 13 c 0
 174 9 179 7 191 3 c 0
 193 2 199 1 202 1 c 0
 206 0 211 -1 212 -2 c 0
 217 -4 260 -4 265 -1 c 0
 267 0 271 1 274 1 c 0
 281 1 301 9 305 13 c 0
 307 15 311 17 312 17 c 0
 318 17 333 33 334 40 c 0
 335 52 334 119 332 120 c 0
 331 120 326 117 321 111 c 0
 316 106 309 101 306 100 c 0
 303 99 299 96 296 94 c 0
 294 93 291 91 289 91 c 0
 286 91 274 87 272 85 c 0
 272 84 268 84 265 84 c 0
 261 84 254 83 250 83 c 0
 240 81 230 82 213 86 c 0
 204 88 183 107 181 115 c 0
 181 117 180 120 179 123 c 0
 178 125 176 135 176 146 c 1
 175 156 175 165 174 167 c 0
 174 168 174 173 175 179 c 0
 176 184 176 189 175 190 c 0
 173 193 172 254 173 311 c 0
 174 327 174 342 174 344 c 0
 172 378 168 376 245 377 c 0
 297 378 304 378 307 380 c 2
 311 382 l 1
 311 417 l 1
 310 451 l 1
 298 452 l 1
 229 452 l 1
 174 452 l 1
 174 461 l 1
 173 546 173 546 160 534 c 0
 147 522 141 515 107 478 c 0
EndSplineSet
EndChar

StartChar: uni0075
Encoding: 117 117 53
Width: 488
Flags: MW
HStem: 25 44<269 301>
VStem: 53 84<177 179.5 177 182> 69 79<102.5 136> 355 80<283 374 350 374> 355 86<5 77 5 77>
LayerCount: 2
Fore
SplineSet
109 447 m 0xc0
 104 444 97 445 94 448 c 0
 91 450 91 450 89 447 c 0
 87 444 80 441 76 441 c 0
 75 441 71 440 68 440 c 0
 65 439 61 438 59 438 c 0
 56 437 53 436 51 434 c 2
 48 431 l 1
 49 358 l 2
 49 318 50 273 50 258 c 0
 50 243 50 227 51 223 c 0
 52 218 52 214 51 211 c 0
 50 208 50 203 51 200 c 0
 52 196 53 186 53 178 c 0xc0
 53 170 54 161 55 157 c 0
 56 154 57 148 58 144 c 0
 59 140 60 133 62 128 c 0
 63 123 63 118 63 117 c 0
 62 116 64 113 66 111 c 0
 68 108 69 105 69 103 c 0
 69 102 70 98 72 95 c 0
 74 92 74 90 74 90 c 2
 73 90 77 82 82 76 c 1
 85 74 87 70 87 70 c 1
 87 66 113 39 117 39 c 0
 118 39 122 37 125 34 c 0
 128 32 132 28 135 25 c 0
 141 20 154 13 164 11 c 0
 168 10 173 8 176 7 c 0
 187 2 192 2 219 2 c 0
 247 2 252 2 261 7 c 0
 264 9 268 10 270 10 c 0
 272 10 274 11 275 12 c 0
 276 13 279 14 281 14 c 0
 284 14 287 16 291 20 c 0
 295 23 299 25 300 25 c 0
 302 25 305 27 308 30 c 0
 311 32 316 37 320 39 c 0
 323 41 328 46 330 50 c 0
 338 61 352 74 353 71 c 1
 355 69 355 57 355 24 c 2xa8
 355 5 l 1x90
 358 0 l 1
 362 -4 l 1
 372 -2 l 2
 378 -1 387 1 393 3 c 0
 399 4 406 6 409 7 c 0
 411 8 414 9 416 9 c 0
 423 12 430 14 433 14 c 0
 440 14 442 19 442 39 c 1
 441 50 441 60 441 62 c 2
 441 77 l 1
 441 99 l 2x88
 441 106 440 112 440 113 c 0
 438 115 437 173 437 274 c 1
 436 323 435 368 435 374 c 1x90
 434 379 434 388 434 392 c 0
 439 450 438 450 396 442 c 0
 356 435 354 435 353 430 c 0
 351 423 353 362 355 358 c 0
 356 355 356 353 355 350 c 0
 354 348 354 342 354 337 c 0
 355 323 355 320 355 316 c 2
 355 283 l 1x88
 356 249 356 256 355 219 c 0
 355 203 355 180 354 167 c 1
 354 145 l 1
 349 136 l 2
 335 112 311 86 293 77 c 0
 290 76 286 74 285 73 c 0
 281 71 273 69 270 69 c 0
 268 69 265 68 263 67 c 0
 257 63 219 63 203 67 c 0
 192 70 172 88 159 108 c 0
 154 117 148 129 148 134 c 0xb0
 148 138 146 144 145 148 c 0
 142 156 137 175 137 179 c 0
 137 180 138 184 138 188 c 0
 138 192 138 198 137 202 c 0
 135 207 135 221 134 249 c 0
 134 271 133 294 132 300 c 0
 131 312 131 369 133 371 c 0
 134 373 134 407 132 410 c 0
 130 413 130 435 133 441 c 1
 135 449 133 451 120 449 c 0
 116 449 110 448 109 447 c 0xc0
EndSplineSet
EndChar

StartChar: uni0076
Encoding: 118 118 54
Width: 466
Flags: MW
VStem: 35 98<416.5 428> 49 86 65 92<361.5 362> 78 91<331.5 335> 85 88<316 323> 88 92<305.5 310.5> 101 84<278 295> 106 91<265 266.5 264.5 267> 113 93 138 80<192.5 214> 183 111<96 97> 199 78<56.5 57.5> 224 47<6 42> 249 88<202 216> 255 95<226.5 233> 290 84<286.5 309.5> 312 84<343 366.5> 320 84<365 381>
LayerCount: 2
Fore
SplineSet
389 451 m 1x000040
 352 451 l 1
 352 451 349 447 347 443 c 1
 346 438 343 433 342 431 c 0
 341 429 340 425 339 422 c 0
 338 419 336 415 335 413 c 0
 329 401 320 382 320 380 c 0x000040
 320 379 318 376 316 373 c 0
 314 370 312 367 312 366 c 0x000080
 312 364 310 358 306 351 c 0
 303 344 299 334 297 328 c 0
 295 323 293 317 292 315 c 0
 291 312 290 310 290 309 c 0x0001
 290 308 288 306 287 304 c 0
 285 302 283 296 281 290 c 0
 278 279 268 257 264 248 c 0
 262 245 260 241 260 240 c 0
 260 239 259 236 257 233 c 0
 256 231 255 228 255 227 c 0x0002
 255 226 253 223 252 221 c 0
 250 219 249 217 249 215 c 0
 249 214 248 210 246 207 c 0
 245 204 242 197 240 192 c 0
 239 187 237 183 237 183 c 1
 235 184 227 195 226 199 c 0
 225 201 223 204 221 206 c 0
 220 208 218 212 218 213 c 0x0044
 218 215 217 218 215 220 c 0
 214 222 213 225 213 226 c 0
 213 228 211 232 209 234 c 0
 207 237 206 241 206 243 c 0x0080
 206 244 205 247 204 249 c 1
 202 250 201 253 201 254 c 0
 201 256 200 258 199 260 c 0
 198 261 197 264 197 265 c 0x0110
 197 268 189 285 186 289 c 0
 185 290 185 292 185 294 c 0x02
 185 296 185 298 183 300 c 0
 182 302 180 305 180 306 c 0x0420
 180 307 179 310 177 313 c 0
 175 316 173 320 173 322 c 0x08
 173 324 172 327 171 328 c 0
 170 330 169 332 169 334 c 0x10
 169 336 168 338 167 340 c 0
 166 341 165 344 165 346 c 0
 165 347 163 351 161 353 c 2
 157 361 l 2x20
 157 363 155 366 154 368 c 0
 152 370 151 372 151 373 c 0
 151 374 149 378 148 382 c 1
 146 385 143 393 141 398 c 0
 139 403 136 408 135 410 c 0x40
 134 412 133 416 133 417 c 0
 133 419 132 422 131 423 c 0
 129 425 129 428 129 429 c 0
 129 431 128 433 127 433 c 0
 125 434 120 445 121 445 c 2
 121 445 121 446 120 448 c 0
 119 450 117 451 114 451 c 2
 75 451 l 1
 20 452 11 450 27 441 c 0
 32 438 33 436 33 433 c 0
 33 430 34 428 35 428 c 1x80
 35 427 37 424 38 420 c 1
 40 417 42 412 43 410 c 0
 45 408 46 406 46 405 c 0
 46 404 48 400 49 396 c 0x40
 51 392 53 388 53 387 c 0
 53 386 55 383 57 381 c 0
 59 378 61 374 61 373 c 0
 61 371 62 368 64 366 c 0
 65 364 66 362 65 362 c 1x20
 65 361 65 359 67 356 c 0
 68 354 70 350 71 347 c 0
 72 345 74 341 76 339 c 0
 77 337 78 334 78 332 c 0x10
 78 331 80 327 82 325 c 0
 84 322 85 319 85 317 c 0x08
 85 315 86 313 87 313 c 1
 87 312 88 311 88 310 c 0x04
 88 307 91 299 97 288 c 0
 99 285 101 280 101 279 c 0x02
 101 277 102 275 103 273 c 0
 105 271 106 268 106 266 c 0x01
 106 264 108 260 110 257 c 0
 112 254 113 251 113 250 c 0x0080
 113 249 114 246 115 244 c 0
 116 242 119 236 121 231 c 0
 124 226 128 216 132 208 c 0
 135 201 138 194 138 193 c 0x0040
 138 192 140 190 141 188 c 1
 143 187 145 183 146 180 c 0
 147 176 149 172 151 170 c 0
 152 168 154 165 154 164 c 0
 154 163 155 160 157 157 c 0
 158 155 159 152 159 151 c 0
 159 150 161 146 163 144 c 0
 165 141 166 137 166 135 c 0
 166 132 167 130 168 129 c 0
 170 128 171 126 171 125 c 2
 171 125 172 120 175 116 c 1
 177 111 179 106 179 105 c 0
 179 104 180 102 181 101 c 0
 182 100 183 98 183 96 c 0x2020
 183 94 184 92 184 92 c 2
 185 91 187 88 188 84 c 0
 189 80 191 75 192 74 c 0
 194 72 194 69 194 68 c 0
 194 66 195 64 197 62 c 0
 198 61 199 58 199 57 c 0x0110
 199 55 200 52 202 49 c 0
 204 47 206 43 206 42 c 0
 207 38 216 19 220 16 c 1
 222 13 224 11 224 8 c 0
 224 4 230 -2 233 -1 c 0
 234 0 237 0 241 -1 c 0
 248 -3 250 -1 258 13 c 0
 267 28 269 34 271 41 c 0x0088
 271 43 272 47 274 50 c 0
 276 53 277 56 277 57 c 0
 277 59 283 72 287 77 c 0
 288 79 290 82 290 84 c 0x0011
 290 86 290 89 292 90 c 1
 293 92 294 95 294 97 c 0x0020
 294 99 295 101 296 103 c 0
 297 104 298 107 298 109 c 0
 298 110 299 113 300 114 c 0
 301 116 302 118 302 120 c 0
 302 122 303 125 305 127 c 2
 309 135 l 1
 309 138 310 141 311 142 c 0
 312 142 313 145 313 148 c 0
 313 150 314 153 315 154 c 0
 317 155 318 158 319 161 c 0
 320 164 322 168 323 170 c 0
 325 173 326 176 326 178 c 0
 326 179 327 181 327 181 c 2
 328 182 329 185 330 188 c 0
 331 192 333 196 335 197 c 0
 336 198 337 201 337 203 c 0x0004
 337 205 338 208 339 209 c 0
 340 211 341 213 341 215 c 0
 341 216 343 220 346 224 c 0
 348 227 350 231 350 232 c 0x0002
 350 234 352 239 359 252 c 0
 360 254 361 257 361 258 c 0
 361 260 362 262 364 264 c 0
 365 266 367 271 368 274 c 0
 369 277 370 281 371 282 c 0
 373 284 374 286 374 287 c 0x0001
 374 289 374 292 375 294 c 0
 377 297 378 301 379 304 c 0
 383 314 384 317 387 321 c 0
 388 323 389 326 389 327 c 0
 389 329 391 332 392 335 c 0
 394 338 396 342 396 344 c 0x000080
 396 349 399 358 402 361 c 0
 403 362 404 364 404 366 c 0
 404 367 408 374 411 382 c 1
 415 389 418 396 418 397 c 0
 418 398 420 401 421 403 c 0
 423 405 424 407 424 409 c 0
 424 410 426 413 427 416 c 0
 429 420 431 423 431 425 c 0
 431 427 433 430 434 432 c 0
 436 434 439 440 441 444 c 2
 443 451 l 1
 438 453 l 2
 433 455 431 455 427 453 c 0
 426 452 413 452 389 451 c 1x000040
EndSplineSet
EndChar

StartChar: uni0077
Encoding: 119 119 55
Width: 726
Flags: MW
VStem: 41.958 98.9014<355.277 373.028> 60.9395 84.915<329.955 345.042> 85.9141 71.9277<275.083 318.357> 169.83 80.9189<38.7949 89.1128> 169.83 95.9043<79.6177 89.1128> 308.691 89.9102<424.23 430.619> 408.592 83.916<206.527 223.325> 425.574 165.834<168.177 168.757 167.715 169.181> 432.567 151.849<151.5 152.302> 444.556 111.888<85.293 125.449>
LayerCount: 2
Fore
SplineSet
352.647 454.198 m 0x24
 363.137 455.028 370.302 454.748 378.621 453.182 c 0
 382.817 452.393 385.001 451.251 387.862 448.352 c 0
 389.933 446.254 391.608 443.617 391.608 442.458 c 0
 391.608 441.313 393.197 437.362 395.104 433.767 c 0
 397.012 430.17 398.602 426.129 398.602 424.875 c 0
 398.602 423.586 400.093 420.779 401.998 418.481 c 0
 403.874 416.22 406.404 411.389 407.65 407.692 c 0
 409.939 400.899 413.894 391.91 417.447 385.415 c 0
 419.861 381.004 428.486 362.038 434.03 348.951 c 0
 436.357 343.457 439.386 337.163 440.76 334.965 c 0
 442.121 332.785 444.064 328.472 445.034 325.475 c 0
 447.733 317.126 457.842 292.508 463.902 279.521 c 0
 464.8 277.598 468.459 270.629 472.034 264.036 c 0
 480.321 248.751 492.508 224.073 492.508 222.577 c 0x26
 492.508 221.356 504.358 194.405 507.268 189.011 c 0
 508.237 187.213 509.428 185.66 509.99 185.462 c 0
 511.399 184.964 515.058 192.107 518.867 202.797 c 0
 520.701 207.942 524.919 217.882 528.321 225.075 c 0
 531.725 232.268 534.755 239.622 535.115 241.559 c 0
 535.468 243.456 536.312 245.74 536.963 246.554 c 0
 537.619 247.374 539.632 252.348 541.408 257.542 c 0
 543.186 262.737 545.243 267.96 545.954 269.081 c 0
 546.662 270.198 547.826 273.127 548.514 275.524 c 0
 550.332 281.859 561.115 308.891 564.574 315.784 c 0
 566.213 319.05 568.376 324.975 569.424 329.071 c 0
 571.314 336.464 572.653 339.742 574.89 342.457 c 0
 575.56 343.271 576.421 345.555 576.773 347.452 c 0
 577.132 349.384 579.658 355.645 582.418 361.438 c 0
 585.177 367.232 587.435 372.822 587.463 373.926 c 0
 587.49 375.025 588.164 376.801 588.961 377.872 c 0
 589.757 378.942 591.31 382.768 592.407 386.363 c 0
 593.506 389.96 595.306 394.257 596.403 395.904 c 0
 597.536 397.603 598.401 399.485 598.401 400.25 c 0
 598.401 400.996 601.034 407.243 604.296 414.235 c 0
 607.558 421.229 610.726 428.858 611.389 431.318 c 0
 612.049 433.767 614.136 438.861 616.034 442.657 c 0
 618.981 448.552 620.104 449.825 623.776 451.447 c 0
 633.767 455.859 701.519 456.95 709.79 452.832 c 0
 715.172 450.153 715.312 447.853 710.469 441.758 c 0
 705.712 435.773 703.265 430.969 700.343 421.878 c 0
 696.805 410.872 684.684 381.119 678.243 367.633 c 0
 674.999 360.839 672.057 354.049 671.729 352.598 c 0
 671.396 351.131 669.658 347.053 667.832 343.457 c 0
 666.006 339.86 663.198 334.066 661.538 330.47 c 0
 659.88 326.876 656.824 320.43 654.695 316.034 c 0
 652.566 311.639 650.343 306.308 649.715 304.096 c 0
 647.504 296.304 645.329 291.392 641.886 286.414 c 0
 639.951 283.616 638.361 280.643 638.361 279.82 c 0
 638.361 278.112 628.35 257.442 625.393 253.047 c 0
 624.25 251.349 623.377 249.162 623.377 248.002 c 0
 623.377 246.899 622.454 244.156 621.379 242.058 c 0
 620.303 239.96 619.381 236.709 619.381 235.015 c 0
 619.381 233.062 618.188 230.22 616.233 227.522 c 0
 614.504 225.134 611.85 219.331 610.34 214.636 c 0
 608.829 209.94 606.603 204.407 605.395 202.348 c 0
 604.171 200.261 602.799 196.854 602.298 194.655 c 0
 601.806 192.495 600.042 188.562 598.401 185.964 c 0
 596.761 183.366 595.404 180.179 595.404 178.921 c 0
 595.404 177.648 594.514 175.175 593.406 173.377 c 0
 592.3 171.578 591.408 169.283 591.408 168.231 c 0x05
 591.408 167.199 589.814 163.486 587.912 160.09 c 0
 586.01 156.693 584.416 153.003 584.416 151.998 c 0x0480
 584.416 151.001 583.058 148.102 581.469 145.704 c 0
 579.879 143.307 578.223 139.855 577.872 138.212 c 0
 577.512 136.519 576.224 133.167 574.975 130.669 c 0
 573.727 128.172 572.416 124.553 572.028 122.527 c 0
 571.645 120.529 570.674 118.339 569.88 117.683 c 0
 569.077 117.018 567.941 114.636 567.333 112.338 c 0
 566.731 110.068 564.923 106.044 563.337 103.446 c 0
 561.751 100.85 560.439 97.7969 560.439 96.7031 c 0
 560.439 95.5967 559.548 93.2568 558.441 91.459 c 0
 557.335 89.6602 556.443 87.1865 556.443 85.9141 c 0
 556.443 84.6719 555.595 81.918 554.596 79.9199 c 0
 553.597 77.9219 552.419 74.8467 552.032 73.2266 c 0
 551.368 70.4434 545.832 58.1416 541.377 49.5508 c 0
 540.341 47.5527 539.461 44.8906 539.461 43.7559 c 0
 539.461 42.5811 538.625 40.0098 537.562 37.9121 c 0
 536.524 35.8633 535.008 31.0186 534.216 27.2227 c 0
 533.424 23.4268 531.794 18.3779 530.619 16.084 c 0
 529.443 13.7861 528.472 10.8486 528.472 9.59082 c 0
 528.472 1.5332 516.684 -2.55469 504.995 1.4502 c 0
 498.502 3.6748 491.824 10.3525 490.961 15.4844 c 0
 489.399 24.7754 487.555 29.9111 484.218 34.2656 c 0
 482.226 36.8652 479.884 41.459 478.971 44.5557 c 0
 478.059 47.6523 476.297 52.1787 475.025 54.6953 c 0
 473.77 57.1797 471.356 63.1367 469.704 67.832 c 0
 466.574 76.7236 462.19 85.9463 458.593 91.209 c 0
 457.466 92.8574 456.09 96.0039 455.536 98.2021 c 0
 454.288 103.151 451.272 110.489 447.449 117.882 c 0
 445.848 120.979 444.556 124.168 444.556 125.025 c 0x0440
 444.556 125.872 441.84 131.868 438.562 138.262 c 0
 435.283 144.655 432.567 150.787 432.567 151.798 c 0x0480
 432.567 152.807 430.979 156.644 429.071 160.24 c 0
 427.164 163.836 425.574 167.673 425.574 168.682 c 0x05
 425.574 169.681 425.069 170.842 424.476 171.209 c 0
 422.846 172.216 413.734 191.509 412.954 195.604 c 0
 412.592 197.503 411.443 200.471 410.439 202.098 c 0
 409.393 203.796 408.592 205.961 408.592 207.093 c 0
 408.592 208.178 407.519 210.689 406.244 212.587 c 0
 404.97 214.485 403.543 217.226 403.124 218.581 c 0
 402.379 220.993 400.179 225.574 391.851 242.058 c 0
 389.629 246.453 387.475 251.174 387.062 252.548 c 0
 386.65 253.921 382.515 263.137 377.872 273.027 c 0
 373.229 282.917 368.576 293.257 367.532 296.004 c 0
 366.47 298.801 363.876 302.977 361.639 305.494 c 2
 357.643 309.99 l 1
 354.396 306.344 l 2
 352.416 304.121 349.843 299.051 347.802 293.356 c 0
 345.977 288.262 342.615 280.383 340.407 276.024 c 0
 336.259 267.832 331.234 255.05 329.412 248.052 c 0
 328.84 245.854 327.54 242.415 326.523 240.409 c 0
 325.511 238.411 324.676 235.725 324.676 234.466 c 0
 324.676 231.372 320.255 220.579 316.654 214.885 c 0
 315.013 212.288 313.687 209.163 313.687 207.893 c 0
 313.687 205.459 311.407 199.9 306.189 189.61 c 0
 304.366 186.014 302.34 181.334 301.648 179.121 c 0
 300.962 176.923 299.838 174.226 299.15 173.127 c 0
 298.47 172.037 297.607 169.131 297.253 166.733 c 0
 296.895 164.312 295.056 158.592 293.157 153.996 c 0
 291.258 149.4 289.71 144.847 289.71 143.856 c 0
 289.71 142.878 288.094 138.711 286.164 134.715 c 0
 284.199 130.647 281.749 124.076 280.669 119.98 c 0
 279.59 115.884 277.83 111.385 276.724 109.89 c 0
 275.604 108.38 274.121 104.995 273.353 102.198 c 0
 271.753 96.376 270.128 91.8086 267.562 85.9141 c 0
 266.561 83.6162 265.734 80.9727 265.734 80.0703 c 0x0e
 265.734 79.165 264.653 76.124 263.337 73.3262 c 0
 262.013 70.5127 259.284 63.5361 257.243 57.7422 c 0
 255.201 51.9482 252.921 46.0449 252.147 44.5557 c 0
 251.371 43.0566 250.749 40.793 250.749 39.4609 c 0x14
 250.749 38.1289 249.04 34.665 246.903 31.668 c 0
 244.054 27.6719 242.906 24.9268 242.476 21.0791 c 0
 241.738 14.4854 238.913 8.96289 234.166 4.83691 c 0
 229.696 0.951172 226.773 -0.200195 221.379 -0.200195 c 0
 214.698 -0.200195 210.28 3.49609 207.767 11.1885 c 0
 207.064 13.3379 205.016 17.0332 203.197 19.4307 c 0
 201.378 21.8281 199.586 24.8066 199.199 26.0742 c 0
 197.675 31.0693 188.506 50.3545 186.755 52.248 c 0
 185.697 53.3916 183.944 56.8428 182.899 59.8398 c 0
 179.626 69.2305 175.213 79.084 172.476 83.1172 c 0
 171.051 85.2148 169.83 87.7734 169.83 88.6611 c 0
 169.83 89.5645 168.25 93.6064 166.334 97.6025 c 0
 164.418 101.599 162.837 105.347 162.837 105.895 c 0
 162.837 106.442 161.937 108.042 160.839 109.44 c 0
 159.742 110.839 158.841 112.979 158.841 114.186 c 0
 158.841 115.385 157.74 118.382 156.419 120.779 c 0
 152.564 127.772 144.186 144.804 142.755 148.552 c 0
 142.03 150.45 140.049 153.996 138.262 156.594 c 0
 136.475 159.19 134.734 162.758 134.315 164.686 c 0
 133.909 166.557 132.777 169.73 131.84 171.628 c 0
 128.46 178.474 123.033 190.21 119.83 197.603 c 0
 118.029 201.757 114.247 209.99 111.339 216.084 c 0
 108.431 222.178 105.582 228.942 104.945 231.269 c 0
 104.316 233.566 103.345 235.75 102.797 236.096 c 0
 101.222 237.09 98.8262 242.357 97.3125 248.151 c 0
 96.5381 251.119 93.6562 258.042 90.9092 263.536 c 0
 88.1621 269.031 85.9141 274.493 85.9141 275.674 c 0x2c
 85.9141 276.873 85.208 278.617 84.3154 279.62 c 0
 83.4404 280.604 82.3105 283.566 81.8184 286.164 c 0
 81.3203 288.79 79.0898 294.455 76.8232 298.852 c 0
 74.5566 303.247 71.9023 309.202 70.8789 312.188 c 0
 69.8525 315.185 67.7393 319.226 66.124 321.278 c 0
 62.5107 325.874 60.9395 328.841 60.9395 331.069 c 0x44
 60.9395 333.092 59.5518 336.164 49.3428 356.743 c 0
 45.2783 364.936 41.958 372.122 41.958 372.728 c 0
 41.958 373.329 39.292 379.271 36.0635 385.864 c 0
 32.8359 392.457 29.8535 399.687 29.4707 401.848 c 0
 29.0811 404.046 27.9971 407.365 27.0234 409.341 c 0
 26.0674 411.279 23.6738 416.284 21.7432 420.38 c 0
 7.33301 450.949 6.78027 449.564 33.2666 449.26 c 0
 43.2256 449.146 60.4395 449.403 71.3291 449.83 c 0
 94.5059 450.737 100.638 449.912 103.806 445.454 c 0
 104.904 443.909 107.319 437.962 109.201 432.168 c 0
 115.14 413.886 132.198 372.961 138.267 362.438 c 0
 139.707 359.94 140.859 357.01 140.859 355.844 c 0x84
 140.859 354.71 142.007 352.048 143.356 350.05 c 0
 144.707 348.052 145.854 345.527 145.854 344.556 c 0x44
 145.854 343.568 146.755 341.608 147.853 340.21 c 0
 148.96 338.797 150.317 335.415 150.899 332.617 c 0
 151.48 329.82 153.261 325.926 154.896 323.876 c 0
 156.488 321.878 157.842 319.032 157.842 317.683 c 0
 157.842 316.281 158.873 313.387 160.189 311.089 c 0
 161.507 308.791 162.869 305.896 163.294 304.495 c 0
 164.39 300.874 172.312 282.418 177.231 272.028 c 0
 181.156 263.736 182.287 260.997 185.066 253.047 c 0
 185.641 251.402 187.174 247.503 188.462 244.405 c 0
 189.75 241.309 190.81 238.22 190.81 237.562 c 0
 190.81 236.907 192.803 232.218 195.205 227.223 c 0
 197.606 222.228 201.027 214.004 202.747 209.091 c 0
 208.866 191.608 217.782 177.034 217.782 184.516 c 0
 217.782 185.544 218.926 188.861 220.279 191.758 c 0
 221.634 194.655 222.777 198.109 222.777 199.301 c 0
 222.777 201.538 223.925 204.596 228.518 214.585 c 0
 232.282 222.777 237.545 236.316 239.311 242.357 c 0
 240.161 245.266 243.134 253.146 245.904 259.84 c 0
 248.675 266.533 252.66 276.869 254.745 282.768 c 0
 256.829 288.661 259.488 295.017 260.64 296.854 c 0
 261.767 298.651 262.737 301.401 262.737 302.797 c 0
 262.737 304.214 263.359 306.894 264.106 308.691 c 0
 266.348 314.086 268.857 321.747 269.769 325.974 c 0
 270.245 328.188 273.125 335.765 276.224 342.957 c 0
 279.322 350.149 282.42 358.173 283.167 360.939 c 0
 283.922 363.736 285.369 367.912 286.455 370.43 c 0
 288.404 374.948 290.02 379.32 294.282 391.608 c 0
 295.563 395.305 297.274 399.33 298.102 400.6 c 0
 298.937 401.88 300.463 405.994 301.549 409.89 c 0
 302.634 413.786 304.646 419.316 306.094 422.378 c 0
 307.511 425.375 308.691 428.849 308.691 430.02 c 0
 308.691 431.219 309.354 432.697 310.189 433.366 c 0
 310.992 434.009 311.688 435.864 311.688 437.362 c 0
 311.688 441.559 313.422 445.454 316.891 449.051 c 0
 321.226 453.547 325.274 454.656 334.965 454.001 c 0
 339.449 453.697 347.452 453.787 352.647 454.198 c 0x24
EndSplineSet
EndChar
